<svg width="1437" height="412" viewBox="0 0 1437 412" fill="none" xmlns="http://www.w3.org/2000/svg">
    <rect x="-3" width="1440" height="250" fill="#9F2884"/>
    <path d="M267.359 83.293H279.8V88H261.499V59.5625H267.359V83.293ZM293.334 88.3906C290.235 88.3906 287.709 87.4401 285.756 85.5391C283.816 83.638 282.846 81.1055 282.846 77.9414V77.3945C282.846 75.2721 283.256 73.3776 284.077 71.7109C284.897 70.0312 286.056 68.7422 287.553 67.8438C289.064 66.9323 290.782 66.4766 292.709 66.4766C295.6 66.4766 297.872 67.388 299.526 69.2109C301.192 71.0339 302.026 73.6185 302.026 76.9648V79.2695H288.569C288.751 80.6497 289.298 81.7565 290.209 82.5898C291.134 83.4232 292.299 83.8398 293.705 83.8398C295.88 83.8398 297.579 83.0521 298.803 81.4766L301.577 84.582C300.73 85.7799 299.584 86.7174 298.139 87.3945C296.694 88.0586 295.092 88.3906 293.334 88.3906ZM292.69 71.0469C291.57 71.0469 290.659 71.4245 289.955 72.1797C289.265 72.9349 288.823 74.0156 288.627 75.4219H296.479V74.9727C296.453 73.7227 296.114 72.7591 295.463 72.082C294.812 71.3919 293.888 71.0469 292.69 71.0469ZM312.806 61.6719V66.8672H316.42V71.0078H312.806V81.5547C312.806 82.3359 312.956 82.8958 313.255 83.2344C313.555 83.5729 314.128 83.7422 314.974 83.7422C315.599 83.7422 316.153 83.6966 316.634 83.6055V87.8828C315.528 88.2214 314.388 88.3906 313.216 88.3906C309.258 88.3906 307.24 86.3919 307.162 82.3945V71.0078H304.076V66.8672H307.162V61.6719H312.806ZM321.985 68.293L319.329 66.75C320.449 64.9922 321.028 63.1758 321.067 61.3008V58H325.559V61.0273C325.559 62.1992 325.234 63.4688 324.583 64.8359C323.932 66.2031 323.066 67.3555 321.985 68.293ZM341.789 82.1602C341.789 81.4701 341.444 80.9297 340.754 80.5391C340.077 80.1354 338.983 79.7773 337.473 79.4648C332.447 78.4102 329.934 76.2747 329.934 73.0586C329.934 71.1836 330.708 69.6211 332.258 68.3711C333.82 67.1081 335.858 66.4766 338.371 66.4766C341.053 66.4766 343.195 67.1081 344.797 68.3711C346.411 69.6341 347.219 71.2747 347.219 73.293H341.574C341.574 72.4857 341.314 71.8216 340.793 71.3008C340.272 70.7669 339.458 70.5 338.352 70.5C337.401 70.5 336.665 70.7148 336.145 71.1445C335.624 71.5742 335.363 72.1211 335.363 72.7852C335.363 73.4102 335.656 73.918 336.242 74.3086C336.841 74.6862 337.844 75.0182 339.25 75.3047C340.656 75.5781 341.841 75.8906 342.805 76.2422C345.786 77.3359 347.277 79.2305 347.277 81.9258C347.277 83.8529 346.451 85.4154 344.797 86.6133C343.143 87.7982 341.008 88.3906 338.391 88.3906C336.62 88.3906 335.044 88.0781 333.664 87.4531C332.297 86.8151 331.223 85.9492 330.441 84.8555C329.66 83.7487 329.27 82.5573 329.27 81.2812H334.621C334.673 82.2839 335.044 83.0521 335.734 83.5859C336.424 84.1198 337.349 84.3867 338.508 84.3867C339.589 84.3867 340.402 84.1849 340.949 83.7812C341.509 83.3646 341.789 82.8242 341.789 82.1602ZM363.858 88V71.0078H360.713V66.8672H363.858V65.8906C363.884 63.2344 364.698 61.1901 366.299 59.7578C367.914 58.3125 370.186 57.5898 373.116 57.5898C374.873 57.5898 377.009 57.974 379.522 58.7422L378.702 63.4102C377.426 63.0326 376.436 62.7917 375.733 62.6875C375.03 62.5703 374.274 62.5117 373.467 62.5117C370.837 62.5117 369.522 63.6771 369.522 66.0078V66.8672H373.682V71.0078H369.522V88H363.858ZM382.159 88H376.495V66.8672H382.159V88ZM392.822 66.8672L392.998 69.3086C394.508 67.4206 396.533 66.4766 399.072 66.4766C401.311 66.4766 402.978 67.1341 404.072 68.4492C405.166 69.7643 405.726 71.7305 405.752 74.3477V88H400.107V74.4844C400.107 73.2865 399.847 72.4206 399.326 71.8867C398.805 71.3398 397.939 71.0664 396.728 71.0664C395.14 71.0664 393.948 71.7435 393.154 73.0977V88H387.509V66.8672H392.822ZM409.97 77.2773C409.97 73.9831 410.705 71.3594 412.177 69.4062C413.661 67.4531 415.686 66.4766 418.251 66.4766C420.308 66.4766 422.007 67.2448 423.348 68.7812V58H429.012V88H423.915L423.641 85.7539C422.235 87.5117 420.425 88.3906 418.212 88.3906C415.725 88.3906 413.726 87.4141 412.216 85.4609C410.718 83.4948 409.97 80.7669 409.97 77.2773ZM415.614 77.6875C415.614 79.6667 415.959 81.1836 416.649 82.2383C417.339 83.293 418.342 83.8203 419.657 83.8203C421.402 83.8203 422.632 83.0846 423.348 81.6133V73.2734C422.645 71.8021 421.428 71.0664 419.696 71.0664C416.975 71.0664 415.614 73.2734 415.614 77.6875ZM444.07 77.2383C444.07 75.1419 444.473 73.2734 445.28 71.6328C446.088 69.9922 447.247 68.7227 448.757 67.8242C450.28 66.9258 452.045 66.4766 454.05 66.4766C456.902 66.4766 459.226 67.349 461.023 69.0938C462.833 70.8385 463.842 73.2083 464.05 76.2031L464.089 77.6484C464.089 80.8906 463.184 83.4948 461.374 85.4609C459.564 87.4141 457.136 88.3906 454.089 88.3906C451.042 88.3906 448.607 87.4141 446.784 85.4609C444.974 83.5078 444.07 80.8516 444.07 77.4922V77.2383ZM449.714 77.6484C449.714 79.6536 450.092 81.1901 450.847 82.2578C451.602 83.3125 452.683 83.8398 454.089 83.8398C455.456 83.8398 456.524 83.319 457.292 82.2773C458.06 81.2227 458.445 79.543 458.445 77.2383C458.445 75.2721 458.06 73.7487 457.292 72.668C456.524 71.5872 455.443 71.0469 454.05 71.0469C452.67 71.0469 451.602 71.5872 450.847 72.668C450.092 73.7357 449.714 75.3958 449.714 77.6484ZM481.022 85.8516C479.629 87.5443 477.702 88.3906 475.241 88.3906C472.975 88.3906 471.243 87.7396 470.045 86.4375C468.86 85.1354 468.255 83.2279 468.229 80.7148V66.8672H473.873V80.5195C473.873 82.7201 474.876 83.8203 476.881 83.8203C478.795 83.8203 480.11 83.1562 480.827 81.8281V66.8672H486.491V88H481.178L481.022 85.8516ZM498.306 61.6719V66.8672H501.92V71.0078H498.306V81.5547C498.306 82.3359 498.456 82.8958 498.755 83.2344C499.055 83.5729 499.628 83.7422 500.474 83.7422C501.099 83.7422 501.653 83.6966 502.134 83.6055V87.8828C501.028 88.2214 499.888 88.3906 498.716 88.3906C494.758 88.3906 492.74 86.3919 492.662 82.3945V71.0078H489.576V66.8672H492.662V61.6719H498.306ZM535.004 80.3242L537.777 66.8672H543.227L537.836 88H533.109L529.105 74.6992L525.102 88H520.395L515.004 66.8672H520.453L523.207 80.3047L527.074 66.8672H531.156L535.004 80.3242ZM552.347 69.1719C553.844 67.375 555.726 66.4766 557.991 66.4766C562.575 66.4766 564.899 69.1393 564.964 74.4648V88H559.32V74.6211C559.32 73.4102 559.059 72.5182 558.538 71.9453C558.017 71.3594 557.152 71.0664 555.941 71.0664C554.287 71.0664 553.089 71.7044 552.347 72.9805V88H546.702V58H552.347V69.1719ZM569.143 77.2383C569.143 75.1419 569.547 73.2734 570.354 71.6328C571.161 69.9922 572.32 68.7227 573.83 67.8242C575.354 66.9258 577.118 66.4766 579.123 66.4766C581.975 66.4766 584.299 67.349 586.096 69.0938C587.906 70.8385 588.915 73.2083 589.123 76.2031L589.162 77.6484C589.162 80.8906 588.258 83.4948 586.448 85.4609C584.638 87.4141 582.209 88.3906 579.162 88.3906C576.116 88.3906 573.681 87.4141 571.858 85.4609C570.048 83.5078 569.143 80.8516 569.143 77.4922V77.2383ZM574.787 77.6484C574.787 79.6536 575.165 81.1901 575.92 82.2578C576.675 83.3125 577.756 83.8398 579.162 83.8398C580.53 83.8398 581.597 83.319 582.366 82.2773C583.134 81.2227 583.518 79.543 583.518 77.2383C583.518 75.2721 583.134 73.7487 582.366 72.668C581.597 71.5872 580.517 71.0469 579.123 71.0469C577.743 71.0469 576.675 71.5872 575.92 72.668C575.165 73.7357 574.787 75.3958 574.787 77.6484ZM612.989 83.8398C614.031 83.8398 614.877 83.5534 615.528 82.9805C616.179 82.4076 616.518 81.6458 616.544 80.6953H621.837C621.824 82.1276 621.433 83.4427 620.665 84.6406C619.897 85.8255 618.842 86.75 617.501 87.4141C616.173 88.0651 614.701 88.3906 613.087 88.3906C610.066 88.3906 607.683 87.4336 605.938 85.5195C604.193 83.5924 603.321 80.9362 603.321 77.5508V77.1797C603.321 73.9245 604.187 71.3268 605.919 69.3867C607.651 67.4466 610.027 66.4766 613.048 66.4766C615.691 66.4766 617.807 67.2318 619.395 68.7422C620.997 70.2396 621.811 72.2383 621.837 74.7383H616.544C616.518 73.6445 616.179 72.7591 615.528 72.082C614.877 71.3919 614.018 71.0469 612.95 71.0469C611.635 71.0469 610.639 71.5286 609.962 72.4922C609.298 73.4427 608.966 74.9922 608.966 77.1406V77.7266C608.966 79.901 609.298 81.4635 609.962 82.4141C610.626 83.3646 611.635 83.8398 612.989 83.8398ZM638.105 88C637.845 87.4922 637.656 86.8607 637.539 86.1055C636.172 87.6289 634.395 88.3906 632.207 88.3906C630.137 88.3906 628.418 87.7917 627.051 86.5938C625.697 85.3958 625.02 83.8854 625.02 82.0625C625.02 79.8229 625.846 78.1042 627.5 76.9062C629.167 75.7083 631.569 75.1029 634.707 75.0898H637.305V73.8789C637.305 72.9023 637.051 72.1211 636.543 71.5352C636.048 70.9492 635.26 70.6562 634.18 70.6562C633.229 70.6562 632.48 70.8841 631.934 71.3398C631.4 71.7956 631.133 72.4206 631.133 73.2148H625.488C625.488 71.9909 625.866 70.8581 626.621 69.8164C627.376 68.7747 628.444 67.9609 629.824 67.375C631.204 66.776 632.754 66.4766 634.473 66.4766C637.077 66.4766 639.141 67.1341 640.664 68.4492C642.201 69.7513 642.969 71.5872 642.969 73.957V83.1172C642.982 85.1224 643.262 86.6393 643.809 87.668V88H638.105ZM633.438 84.0742C634.271 84.0742 635.039 83.8919 635.742 83.5273C636.445 83.1497 636.966 82.6484 637.305 82.0234V78.3906H635.195C632.37 78.3906 630.866 79.3672 630.684 81.3203L630.664 81.6523C630.664 82.3555 630.911 82.9349 631.406 83.3906C631.901 83.8464 632.578 84.0742 633.438 84.0742ZM653.3 66.8672L653.476 69.3086C654.986 67.4206 657.011 66.4766 659.55 66.4766C661.79 66.4766 663.456 67.1341 664.55 68.4492C665.644 69.7643 666.204 71.7305 666.23 74.3477V88H660.585V74.4844C660.585 73.2865 660.325 72.4206 659.804 71.8867C659.283 71.3398 658.417 71.0664 657.206 71.0664C655.618 71.0664 654.426 71.7435 653.632 73.0977V88H647.987V66.8672H653.3ZM687.595 69.1719C689.093 67.375 690.974 66.4766 693.24 66.4766C697.823 66.4766 700.147 69.1393 700.212 74.4648V88H694.568V74.6211C694.568 73.4102 694.308 72.5182 693.787 71.9453C693.266 71.3594 692.4 71.0664 691.189 71.0664C689.535 71.0664 688.337 71.7044 687.595 72.9805V88H681.951V58H687.595V69.1719ZM714.997 88.3906C711.898 88.3906 709.372 87.4401 707.419 85.5391C705.479 83.638 704.509 81.1055 704.509 77.9414V77.3945C704.509 75.2721 704.919 73.3776 705.739 71.7109C706.559 70.0312 707.718 68.7422 709.216 67.8438C710.726 66.9323 712.445 66.4766 714.372 66.4766C717.262 66.4766 719.535 67.388 721.188 69.2109C722.855 71.0339 723.688 73.6185 723.688 76.9648V79.2695H710.231C710.414 80.6497 710.96 81.7565 711.872 82.5898C712.796 83.4232 713.962 83.8398 715.368 83.8398C717.542 83.8398 719.242 83.0521 720.466 81.4766L723.239 84.582C722.393 85.7799 721.247 86.7174 719.802 87.3945C718.356 88.0586 716.755 88.3906 714.997 88.3906ZM714.352 71.0469C713.233 71.0469 712.321 71.4245 711.618 72.1797C710.928 72.9349 710.485 74.0156 710.29 75.4219H718.141V74.9727C718.115 73.7227 717.777 72.7591 717.126 72.082C716.475 71.3919 715.55 71.0469 714.352 71.0469ZM733.668 88H728.004V58H733.668V88ZM758.159 77.6289C758.159 80.8841 757.417 83.4948 755.933 85.4609C754.461 87.4141 752.469 88.3906 749.956 88.3906C747.821 88.3906 746.096 87.6484 744.78 86.1641V96.125H739.136V66.8672H744.37L744.566 68.9375C745.933 67.2969 747.717 66.4766 749.917 66.4766C752.521 66.4766 754.546 67.4401 755.991 69.3672C757.437 71.2943 758.159 73.9505 758.159 77.3359V77.6289ZM752.515 77.2188C752.515 75.2526 752.163 73.7357 751.46 72.668C750.77 71.6003 749.761 71.0664 748.433 71.0664C746.662 71.0664 745.445 71.7435 744.78 73.0977V81.75C745.471 83.1432 746.701 83.8398 748.472 83.8398C751.167 83.8398 752.515 81.6328 752.515 77.2188ZM781.127 80.0117L785.033 66.8672H791.087L782.591 91.2812L782.123 92.3945C780.86 95.1549 778.776 96.5352 775.873 96.5352C775.052 96.5352 774.219 96.4115 773.373 96.1641V91.8867L774.232 91.9062C775.3 91.9062 776.094 91.7435 776.615 91.418C777.149 91.0924 777.565 90.5521 777.865 89.7969L778.529 88.0586L771.127 66.8672H777.201L781.127 80.0117ZM793.235 77.2383C793.235 75.1419 793.639 73.2734 794.446 71.6328C795.253 69.9922 796.412 68.7227 797.923 67.8242C799.446 66.9258 801.21 66.4766 803.216 66.4766C806.067 66.4766 808.391 67.349 810.188 69.0938C811.998 70.8385 813.007 73.2083 813.216 76.2031L813.255 77.6484C813.255 80.8906 812.35 83.4948 810.54 85.4609C808.73 87.4141 806.302 88.3906 803.255 88.3906C800.208 88.3906 797.773 87.4141 795.95 85.4609C794.14 83.5078 793.235 80.8516 793.235 77.4922V77.2383ZM798.88 77.6484C798.88 79.6536 799.257 81.1901 800.013 82.2578C800.768 83.3125 801.848 83.8398 803.255 83.8398C804.622 83.8398 805.69 83.319 806.458 82.2773C807.226 81.2227 807.61 79.543 807.61 77.2383C807.61 75.2721 807.226 73.7487 806.458 72.668C805.69 71.5872 804.609 71.0469 803.216 71.0469C801.835 71.0469 800.768 71.5872 800.013 72.668C799.257 73.7357 798.88 75.3958 798.88 77.6484ZM830.188 85.8516C828.794 87.5443 826.867 88.3906 824.406 88.3906C822.141 88.3906 820.409 87.7396 819.211 86.4375C818.026 85.1354 817.421 83.2279 817.395 80.7148V66.8672H823.039V80.5195C823.039 82.7201 824.042 83.8203 826.047 83.8203C827.961 83.8203 829.276 83.1562 829.992 81.8281V66.8672H835.656V88H830.344L830.188 85.8516ZM869.854 80.3242L872.627 66.8672H878.077L872.686 88H867.959L863.955 74.6992L859.952 88H855.245L849.854 66.8672H855.303L858.057 80.3047L861.924 66.8672H866.006L869.854 80.3242ZM887.646 88H881.982V66.8672H887.646V88ZM881.65 61.3984C881.65 60.5521 881.93 59.8555 882.49 59.3086C883.063 58.7617 883.837 58.4883 884.814 58.4883C885.778 58.4883 886.546 58.7617 887.119 59.3086C887.692 59.8555 887.978 60.5521 887.978 61.3984C887.978 62.2578 887.685 62.9609 887.099 63.5078C886.526 64.0547 885.765 64.3281 884.814 64.3281C883.864 64.3281 883.095 64.0547 882.509 63.5078C881.936 62.9609 881.65 62.2578 881.65 61.3984ZM899.872 61.6719V66.8672H903.485V71.0078H899.872V81.5547C899.872 82.3359 900.022 82.8958 900.321 83.2344C900.621 83.5729 901.194 83.7422 902.04 83.7422C902.665 83.7422 903.218 83.6966 903.7 83.6055V87.8828C902.593 88.2214 901.454 88.3906 900.282 88.3906C896.324 88.3906 894.305 86.3919 894.227 82.3945V71.0078H891.141V66.8672H894.227V61.6719H899.872ZM912.938 69.1719C914.435 67.375 916.316 66.4766 918.582 66.4766C923.165 66.4766 925.49 69.1393 925.555 74.4648V88H919.91V74.6211C919.91 73.4102 919.65 72.5182 919.129 71.9453C918.608 71.3594 917.742 71.0664 916.531 71.0664C914.878 71.0664 913.68 71.7044 912.938 72.9805V88H907.293V58H912.938V69.1719ZM948.131 61.6719V66.8672H951.745V71.0078H948.131V81.5547C948.131 82.3359 948.281 82.8958 948.58 83.2344C948.88 83.5729 949.453 83.7422 950.299 83.7422C950.924 83.7422 951.478 83.6966 951.959 83.6055V87.8828C950.853 88.2214 949.713 88.3906 948.541 88.3906C944.583 88.3906 942.565 86.3919 942.487 82.3945V71.0078H939.401V66.8672H942.487V61.6719H948.131ZM961.197 69.1719C962.694 67.375 964.576 66.4766 966.841 66.4766C971.425 66.4766 973.749 69.1393 973.814 74.4648V88H968.169V74.6211C968.169 73.4102 967.909 72.5182 967.388 71.9453C966.867 71.3594 966.002 71.0664 964.791 71.0664C963.137 71.0664 961.939 71.7044 961.197 72.9805V88H955.552V58H961.197V69.1719ZM988.598 88.3906C985.499 88.3906 982.973 87.4401 981.02 85.5391C979.08 83.638 978.11 81.1055 978.11 77.9414V77.3945C978.11 75.2721 978.52 73.3776 979.341 71.7109C980.161 70.0312 981.32 68.7422 982.817 67.8438C984.328 66.9323 986.046 66.4766 987.973 66.4766C990.864 66.4766 993.136 67.388 994.79 69.2109C996.457 71.0339 997.29 73.6185 997.29 76.9648V79.2695H983.833C984.015 80.6497 984.562 81.7565 985.473 82.5898C986.398 83.4232 987.563 83.8398 988.97 83.8398C991.144 83.8398 992.843 83.0521 994.067 81.4766L996.841 84.582C995.994 85.7799 994.848 86.7174 993.403 87.3945C991.958 88.0586 990.356 88.3906 988.598 88.3906ZM987.954 71.0469C986.834 71.0469 985.923 71.4245 985.22 72.1797C984.529 72.9349 984.087 74.0156 983.891 75.4219H991.743V74.9727C991.717 73.7227 991.378 72.7591 990.727 72.082C990.076 71.3919 989.152 71.0469 987.954 71.0469ZM1023.52 82.1602C1023.52 81.4701 1023.17 80.9297 1022.48 80.5391C1021.81 80.1354 1020.71 79.7773 1019.2 79.4648C1014.18 78.4102 1011.66 76.2747 1011.66 73.0586C1011.66 71.1836 1012.44 69.6211 1013.99 68.3711C1015.55 67.1081 1017.59 66.4766 1020.1 66.4766C1022.78 66.4766 1024.92 67.1081 1026.53 68.3711C1028.14 69.6341 1028.95 71.2747 1028.95 73.293H1023.3C1023.3 72.4857 1023.04 71.8216 1022.52 71.3008C1022 70.7669 1021.19 70.5 1020.08 70.5C1019.13 70.5 1018.4 70.7148 1017.87 71.1445C1017.35 71.5742 1017.09 72.1211 1017.09 72.7852C1017.09 73.4102 1017.39 73.918 1017.97 74.3086C1018.57 74.6862 1019.57 75.0182 1020.98 75.3047C1022.39 75.5781 1023.57 75.8906 1024.53 76.2422C1027.52 77.3359 1029.01 79.2305 1029.01 81.9258C1029.01 83.8529 1028.18 85.4154 1026.53 86.6133C1024.87 87.7982 1022.74 88.3906 1020.12 88.3906C1018.35 88.3906 1016.77 88.0781 1015.39 87.4531C1014.03 86.8151 1012.95 85.9492 1012.17 84.8555C1011.39 83.7487 1011 82.5573 1011 81.2812H1016.35C1016.4 82.2839 1016.77 83.0521 1017.46 83.5859C1018.15 84.1198 1019.08 84.3867 1020.24 84.3867C1021.32 84.3867 1022.13 84.1849 1022.68 83.7812C1023.24 83.3646 1023.52 82.8242 1023.52 82.1602ZM1039.42 88H1033.75V66.8672H1039.42V88ZM1033.42 61.3984C1033.42 60.5521 1033.7 59.8555 1034.26 59.3086C1034.83 58.7617 1035.61 58.4883 1036.58 58.4883C1037.55 58.4883 1038.32 58.7617 1038.89 59.3086C1039.46 59.8555 1039.75 60.5521 1039.75 61.3984C1039.75 62.2578 1039.46 62.9609 1038.87 63.5078C1038.3 64.0547 1037.53 64.3281 1036.58 64.3281C1035.63 64.3281 1034.87 64.0547 1034.28 63.5078C1033.71 62.9609 1033.42 62.2578 1033.42 61.3984ZM1051.64 61.6719V66.8672H1055.26V71.0078H1051.64V81.5547C1051.64 82.3359 1051.79 82.8958 1052.09 83.2344C1052.39 83.5729 1052.96 83.7422 1053.81 83.7422C1054.44 83.7422 1054.99 83.6966 1055.47 83.6055V87.8828C1054.36 88.2214 1053.22 88.3906 1052.05 88.3906C1048.09 88.3906 1046.08 86.3919 1046 82.3945V71.0078H1042.91V66.8672H1046V61.6719H1051.64ZM1071.86 85.8516C1070.46 87.5443 1068.54 88.3906 1066.08 88.3906C1063.81 88.3906 1062.08 87.7396 1060.88 86.4375C1059.69 85.1354 1059.09 83.2279 1059.06 80.7148V66.8672H1064.71V80.5195C1064.71 82.7201 1065.71 83.8203 1067.72 83.8203C1069.63 83.8203 1070.94 83.1562 1071.66 81.8281V66.8672H1077.33V88H1072.01L1071.86 85.8516ZM1094.63 88C1094.37 87.4922 1094.18 86.8607 1094.06 86.1055C1092.7 87.6289 1090.92 88.3906 1088.73 88.3906C1086.66 88.3906 1084.94 87.7917 1083.57 86.5938C1082.22 85.3958 1081.54 83.8854 1081.54 82.0625C1081.54 79.8229 1082.37 78.1042 1084.02 76.9062C1085.69 75.7083 1088.09 75.1029 1091.23 75.0898H1093.83V73.8789C1093.83 72.9023 1093.57 72.1211 1093.07 71.5352C1092.57 70.9492 1091.78 70.6562 1090.7 70.6562C1089.75 70.6562 1089 70.8841 1088.46 71.3398C1087.92 71.7956 1087.66 72.4206 1087.66 73.2148H1082.01C1082.01 71.9909 1082.39 70.8581 1083.14 69.8164C1083.9 68.7747 1084.97 67.9609 1086.35 67.375C1087.73 66.776 1089.28 66.4766 1091 66.4766C1093.6 66.4766 1095.66 67.1341 1097.19 68.4492C1098.72 69.7513 1099.49 71.5872 1099.49 73.957V83.1172C1099.51 85.1224 1099.79 86.6393 1100.33 87.668V88H1094.63ZM1089.96 84.0742C1090.79 84.0742 1091.56 83.8919 1092.27 83.5273C1092.97 83.1497 1093.49 82.6484 1093.83 82.0234V78.3906H1091.72C1088.89 78.3906 1087.39 79.3672 1087.21 81.3203L1087.19 81.6523C1087.19 82.3555 1087.43 82.9349 1087.93 83.3906C1088.42 83.8464 1089.1 84.0742 1089.96 84.0742ZM1111.39 61.6719V66.8672H1115V71.0078H1111.39V81.5547C1111.39 82.3359 1111.54 82.8958 1111.84 83.2344C1112.13 83.5729 1112.71 83.7422 1113.55 83.7422C1114.18 83.7422 1114.73 83.6966 1115.21 83.6055V87.8828C1114.11 88.2214 1112.97 88.3906 1111.8 88.3906C1107.84 88.3906 1105.82 86.3919 1105.74 82.3945V71.0078H1102.66V66.8672H1105.74V61.6719H1111.39ZM1124.9 88H1119.24V66.8672H1124.9V88ZM1118.9 61.3984C1118.9 60.5521 1119.18 59.8555 1119.74 59.3086C1120.32 58.7617 1121.09 58.4883 1122.07 58.4883C1123.03 58.4883 1123.8 58.7617 1124.37 59.3086C1124.95 59.8555 1125.23 60.5521 1125.23 61.3984C1125.23 62.2578 1124.94 62.9609 1124.35 63.5078C1123.78 64.0547 1123.02 64.3281 1122.07 64.3281C1121.12 64.3281 1120.35 64.0547 1119.76 63.5078C1119.19 62.9609 1118.9 62.2578 1118.9 61.3984ZM1129.49 77.2383C1129.49 75.1419 1129.89 73.2734 1130.7 71.6328C1131.51 69.9922 1132.67 68.7227 1134.18 67.8242C1135.7 66.9258 1137.47 66.4766 1139.47 66.4766C1142.32 66.4766 1144.65 67.349 1146.44 69.0938C1148.25 70.8385 1149.26 73.2083 1149.47 76.2031L1149.51 77.6484C1149.51 80.8906 1148.6 83.4948 1146.79 85.4609C1144.98 87.4141 1142.56 88.3906 1139.51 88.3906C1136.46 88.3906 1134.03 87.4141 1132.2 85.4609C1130.39 83.5078 1129.49 80.8516 1129.49 77.4922V77.2383ZM1135.13 77.6484C1135.13 79.6536 1135.51 81.1901 1136.27 82.2578C1137.02 83.3125 1138.1 83.8398 1139.51 83.8398C1140.88 83.8398 1141.94 83.319 1142.71 82.2773C1143.48 81.2227 1143.86 79.543 1143.86 77.2383C1143.86 75.2721 1143.48 73.7487 1142.71 72.668C1141.94 71.5872 1140.86 71.0469 1139.47 71.0469C1138.09 71.0469 1137.02 71.5872 1136.27 72.668C1135.51 73.7357 1135.13 75.3958 1135.13 77.6484ZM1158.98 66.8672L1159.16 69.3086C1160.67 67.4206 1162.69 66.4766 1165.23 66.4766C1167.47 66.4766 1169.14 67.1341 1170.23 68.4492C1171.33 69.7643 1171.88 71.7305 1171.91 74.3477V88H1166.27V74.4844C1166.27 73.2865 1166.01 72.4206 1165.49 71.8867C1164.96 71.3398 1164.1 71.0664 1162.89 71.0664C1161.3 71.0664 1160.11 71.7435 1159.31 73.0977V88H1153.67V66.8672H1158.98Z" fill="white"/>
    <path d="M396.49 139.135C396.008 139.825 395.335 140.342 394.469 140.688C393.609 141.026 392.607 141.195 391.461 141.195C390.302 141.195 389.273 140.925 388.375 140.385C387.477 139.838 386.78 139.063 386.285 138.061C385.797 137.058 385.546 135.896 385.533 134.574V133.334C385.533 131.192 386.031 129.532 387.027 128.354C388.03 127.175 389.436 126.586 391.246 126.586C392.73 126.586 393.925 126.967 394.83 127.729C395.735 128.484 396.288 129.558 396.49 130.951H394.615C394.264 129.07 393.144 128.129 391.256 128.129C389.999 128.129 389.046 128.572 388.395 129.457C387.75 130.336 387.424 131.612 387.418 133.285V134.447C387.418 136.042 387.783 137.312 388.512 138.256C389.241 139.193 390.227 139.662 391.471 139.662C392.174 139.662 392.789 139.584 393.316 139.428C393.844 139.271 394.28 139.008 394.625 138.637V135.443H391.334V133.92H396.49V139.135ZM403.727 141.195C402.294 141.195 401.129 140.727 400.23 139.789C399.332 138.845 398.883 137.585 398.883 136.01V135.678C398.883 134.63 399.081 133.695 399.479 132.875C399.882 132.048 400.442 131.404 401.158 130.941C401.881 130.473 402.662 130.238 403.502 130.238C404.876 130.238 405.943 130.691 406.705 131.596C407.467 132.501 407.848 133.796 407.848 135.482V136.234H400.689C400.715 137.276 401.018 138.119 401.598 138.764C402.184 139.402 402.926 139.721 403.824 139.721C404.462 139.721 405.003 139.59 405.445 139.33C405.888 139.07 406.275 138.725 406.607 138.295L407.711 139.154C406.826 140.515 405.497 141.195 403.727 141.195ZM403.502 131.723C402.773 131.723 402.161 131.99 401.666 132.523C401.171 133.051 400.865 133.793 400.748 134.75H406.041V134.613C405.989 133.695 405.742 132.986 405.299 132.484C404.856 131.977 404.257 131.723 403.502 131.723ZM412.398 127.875V130.434H414.371V131.83H412.398V138.383C412.398 138.806 412.486 139.125 412.662 139.34C412.838 139.548 413.137 139.652 413.561 139.652C413.769 139.652 414.055 139.613 414.42 139.535V141C413.945 141.13 413.482 141.195 413.033 141.195C412.226 141.195 411.617 140.951 411.207 140.463C410.797 139.975 410.592 139.281 410.592 138.383V131.83H408.668V130.434H410.592V127.875H412.398ZM427.975 141C427.87 140.792 427.786 140.421 427.721 139.887C426.881 140.759 425.878 141.195 424.713 141.195C423.671 141.195 422.815 140.902 422.145 140.316C421.48 139.724 421.148 138.975 421.148 138.07C421.148 136.97 421.565 136.117 422.398 135.512C423.238 134.9 424.417 134.594 425.934 134.594H427.691V133.764C427.691 133.132 427.503 132.631 427.125 132.26C426.747 131.882 426.191 131.693 425.455 131.693C424.811 131.693 424.27 131.856 423.834 132.182C423.398 132.507 423.18 132.901 423.18 133.363H421.363C421.363 132.836 421.549 132.328 421.92 131.84C422.298 131.345 422.805 130.954 423.443 130.668C424.088 130.382 424.794 130.238 425.562 130.238C426.78 130.238 427.734 130.544 428.424 131.156C429.114 131.762 429.472 132.598 429.498 133.666V138.529C429.498 139.499 429.622 140.271 429.869 140.844V141H427.975ZM424.977 139.623C425.543 139.623 426.08 139.477 426.588 139.184C427.096 138.891 427.464 138.51 427.691 138.041V135.873H426.275C424.062 135.873 422.955 136.521 422.955 137.816C422.955 138.383 423.144 138.826 423.521 139.145C423.899 139.464 424.384 139.623 424.977 139.623ZM434.293 141H432.486V126H434.293V141ZM439.156 141H437.35V126H439.156V141ZM449.469 127.875V130.434H451.441V131.83H449.469V138.383C449.469 138.806 449.557 139.125 449.732 139.34C449.908 139.548 450.208 139.652 450.631 139.652C450.839 139.652 451.126 139.613 451.49 139.535V141C451.015 141.13 450.553 141.195 450.104 141.195C449.296 141.195 448.688 140.951 448.277 140.463C447.867 139.975 447.662 139.281 447.662 138.383V131.83H445.738V130.434H447.662V127.875H449.469ZM455.367 131.713C456.168 130.73 457.21 130.238 458.492 130.238C460.725 130.238 461.852 131.498 461.871 134.018V141H460.064V134.008C460.058 133.246 459.882 132.683 459.537 132.318C459.199 131.954 458.668 131.771 457.945 131.771C457.359 131.771 456.845 131.928 456.402 132.24C455.96 132.553 455.615 132.963 455.367 133.471V141H453.561V126H455.367V131.713ZM468.961 141.195C467.529 141.195 466.363 140.727 465.465 139.789C464.566 138.845 464.117 137.585 464.117 136.01V135.678C464.117 134.63 464.316 133.695 464.713 132.875C465.117 132.048 465.676 131.404 466.393 130.941C467.115 130.473 467.896 130.238 468.736 130.238C470.11 130.238 471.178 130.691 471.939 131.596C472.701 132.501 473.082 133.796 473.082 135.482V136.234H465.924C465.95 137.276 466.253 138.119 466.832 138.764C467.418 139.402 468.16 139.721 469.059 139.721C469.697 139.721 470.237 139.59 470.68 139.33C471.122 139.07 471.51 138.725 471.842 138.295L472.945 139.154C472.06 140.515 470.732 141.195 468.961 141.195ZM468.736 131.723C468.007 131.723 467.395 131.99 466.9 132.523C466.406 133.051 466.1 133.793 465.982 134.75H471.275V134.613C471.223 133.695 470.976 132.986 470.533 132.484C470.09 131.977 469.492 131.723 468.736 131.723ZM486.295 138.197C486.295 137.709 486.109 137.331 485.738 137.064C485.374 136.791 484.732 136.557 483.814 136.361C482.903 136.166 482.177 135.932 481.637 135.658C481.103 135.385 480.706 135.059 480.445 134.682C480.191 134.304 480.064 133.855 480.064 133.334C480.064 132.468 480.429 131.736 481.158 131.137C481.894 130.538 482.831 130.238 483.971 130.238C485.169 130.238 486.139 130.548 486.881 131.166C487.63 131.785 488.004 132.576 488.004 133.539H486.188C486.188 133.044 485.976 132.618 485.553 132.26C485.136 131.902 484.609 131.723 483.971 131.723C483.313 131.723 482.799 131.866 482.428 132.152C482.057 132.439 481.871 132.813 481.871 133.275C481.871 133.712 482.044 134.04 482.389 134.262C482.734 134.483 483.355 134.695 484.254 134.896C485.159 135.098 485.891 135.339 486.451 135.619C487.011 135.899 487.424 136.238 487.691 136.635C487.965 137.025 488.102 137.504 488.102 138.07C488.102 139.014 487.724 139.773 486.969 140.346C486.214 140.912 485.234 141.195 484.029 141.195C483.183 141.195 482.434 141.046 481.783 140.746C481.132 140.447 480.621 140.03 480.25 139.496C479.885 138.956 479.703 138.373 479.703 137.748H481.51C481.542 138.354 481.783 138.835 482.232 139.193C482.688 139.545 483.287 139.721 484.029 139.721C484.713 139.721 485.26 139.584 485.67 139.311C486.087 139.031 486.295 138.66 486.295 138.197ZM496.979 139.955C496.275 140.782 495.243 141.195 493.883 141.195C492.757 141.195 491.897 140.87 491.305 140.219C490.719 139.561 490.423 138.591 490.416 137.309V130.434H492.223V137.26C492.223 138.861 492.874 139.662 494.176 139.662C495.556 139.662 496.474 139.148 496.93 138.119V130.434H498.736V141H497.018L496.979 139.955ZM510.416 135.834C510.416 137.442 510.048 138.738 509.312 139.721C508.577 140.704 507.581 141.195 506.324 141.195C505.042 141.195 504.033 140.788 503.297 139.975V145.062H501.49V130.434H503.141L503.229 131.605C503.964 130.694 504.986 130.238 506.295 130.238C507.564 130.238 508.567 130.717 509.303 131.674C510.045 132.631 510.416 133.962 510.416 135.668V135.834ZM508.609 135.629C508.609 134.438 508.355 133.497 507.848 132.807C507.34 132.117 506.643 131.771 505.758 131.771C504.664 131.771 503.844 132.257 503.297 133.227V138.275C503.837 139.239 504.664 139.721 505.777 139.721C506.643 139.721 507.33 139.379 507.838 138.695C508.352 138.005 508.609 136.983 508.609 135.629ZM521.646 135.834C521.646 137.442 521.279 138.738 520.543 139.721C519.807 140.704 518.811 141.195 517.555 141.195C516.272 141.195 515.263 140.788 514.527 139.975V145.062H512.721V130.434H514.371L514.459 131.605C515.195 130.694 516.217 130.238 517.525 130.238C518.795 130.238 519.798 130.717 520.533 131.674C521.275 132.631 521.646 133.962 521.646 135.668V135.834ZM519.84 135.629C519.84 134.438 519.586 133.497 519.078 132.807C518.57 132.117 517.874 131.771 516.988 131.771C515.895 131.771 515.074 132.257 514.527 133.227V138.275C515.068 139.239 515.895 139.721 517.008 139.721C517.874 139.721 518.561 139.379 519.068 138.695C519.583 138.005 519.84 136.983 519.84 135.629ZM523.473 135.619C523.473 134.584 523.674 133.653 524.078 132.826C524.488 131.999 525.055 131.361 525.777 130.912C526.507 130.463 527.337 130.238 528.268 130.238C529.706 130.238 530.868 130.736 531.754 131.732C532.646 132.729 533.092 134.053 533.092 135.707V135.834C533.092 136.863 532.893 137.787 532.496 138.607C532.105 139.421 531.542 140.056 530.807 140.512C530.077 140.967 529.238 141.195 528.287 141.195C526.855 141.195 525.693 140.697 524.801 139.701C523.915 138.705 523.473 137.387 523.473 135.746V135.619ZM525.289 135.834C525.289 137.006 525.559 137.947 526.1 138.656C526.646 139.366 527.376 139.721 528.287 139.721C529.205 139.721 529.934 139.363 530.475 138.646C531.015 137.924 531.285 136.915 531.285 135.619C531.285 134.46 531.008 133.523 530.455 132.807C529.908 132.084 529.179 131.723 528.268 131.723C527.376 131.723 526.656 132.077 526.109 132.787C525.562 133.497 525.289 134.512 525.289 135.834ZM540.465 132.055C540.191 132.009 539.895 131.986 539.576 131.986C538.391 131.986 537.587 132.491 537.164 133.5V141H535.357V130.434H537.115L537.145 131.654C537.737 130.71 538.577 130.238 539.664 130.238C540.016 130.238 540.283 130.284 540.465 130.375V132.055ZM545.074 127.875V130.434H547.047V131.83H545.074V138.383C545.074 138.806 545.162 139.125 545.338 139.34C545.514 139.548 545.813 139.652 546.236 139.652C546.445 139.652 546.731 139.613 547.096 139.535V141C546.62 141.13 546.158 141.195 545.709 141.195C544.902 141.195 544.293 140.951 543.883 140.463C543.473 139.975 543.268 139.281 543.268 138.383V131.83H541.344V130.434H543.268V127.875H545.074ZM557.584 138.354L560.045 130.434H561.979L557.73 142.631C557.073 144.389 556.028 145.268 554.596 145.268L554.254 145.238L553.58 145.111V143.646L554.068 143.686C554.68 143.686 555.156 143.562 555.494 143.314C555.839 143.067 556.122 142.615 556.344 141.957L556.744 140.883L552.975 130.434H554.947L557.584 138.354ZM562.965 135.619C562.965 134.584 563.167 133.653 563.57 132.826C563.98 131.999 564.547 131.361 565.27 130.912C565.999 130.463 566.829 130.238 567.76 130.238C569.199 130.238 570.361 130.736 571.246 131.732C572.138 132.729 572.584 134.053 572.584 135.707V135.834C572.584 136.863 572.385 137.787 571.988 138.607C571.598 139.421 571.035 140.056 570.299 140.512C569.57 140.967 568.73 141.195 567.779 141.195C566.347 141.195 565.185 140.697 564.293 139.701C563.408 138.705 562.965 137.387 562.965 135.746V135.619ZM564.781 135.834C564.781 137.006 565.051 137.947 565.592 138.656C566.139 139.366 566.868 139.721 567.779 139.721C568.697 139.721 569.426 139.363 569.967 138.646C570.507 137.924 570.777 136.915 570.777 135.619C570.777 134.46 570.501 133.523 569.947 132.807C569.4 132.084 568.671 131.723 567.76 131.723C566.868 131.723 566.148 132.077 565.602 132.787C565.055 133.497 564.781 134.512 564.781 135.834ZM581.373 139.955C580.67 140.782 579.638 141.195 578.277 141.195C577.151 141.195 576.292 140.87 575.699 140.219C575.113 139.561 574.817 138.591 574.811 137.309V130.434H576.617V137.26C576.617 138.861 577.268 139.662 578.57 139.662C579.951 139.662 580.868 139.148 581.324 138.119V130.434H583.131V141H581.412L581.373 139.955ZM592.555 130.434L592.613 131.762C593.421 130.746 594.475 130.238 595.777 130.238C598.01 130.238 599.137 131.498 599.156 134.018V141H597.35V134.008C597.343 133.246 597.167 132.683 596.822 132.318C596.484 131.954 595.953 131.771 595.23 131.771C594.645 131.771 594.13 131.928 593.688 132.24C593.245 132.553 592.9 132.963 592.652 133.471V141H590.846V130.434H592.555ZM606.266 141.195C604.833 141.195 603.668 140.727 602.77 139.789C601.871 138.845 601.422 137.585 601.422 136.01V135.678C601.422 134.63 601.62 133.695 602.018 132.875C602.421 132.048 602.981 131.404 603.697 130.941C604.42 130.473 605.201 130.238 606.041 130.238C607.415 130.238 608.482 130.691 609.244 131.596C610.006 132.501 610.387 133.796 610.387 135.482V136.234H603.229C603.255 137.276 603.557 138.119 604.137 138.764C604.723 139.402 605.465 139.721 606.363 139.721C607.001 139.721 607.542 139.59 607.984 139.33C608.427 139.07 608.814 138.725 609.146 138.295L610.25 139.154C609.365 140.515 608.036 141.195 606.266 141.195ZM606.041 131.723C605.312 131.723 604.7 131.99 604.205 132.523C603.71 133.051 603.404 133.793 603.287 134.75H608.58V134.613C608.528 133.695 608.281 132.986 607.838 132.484C607.395 131.977 606.796 131.723 606.041 131.723ZM616.871 141.195C615.439 141.195 614.273 140.727 613.375 139.789C612.477 138.845 612.027 137.585 612.027 136.01V135.678C612.027 134.63 612.226 133.695 612.623 132.875C613.027 132.048 613.587 131.404 614.303 130.941C615.025 130.473 615.807 130.238 616.646 130.238C618.02 130.238 619.088 130.691 619.85 131.596C620.611 132.501 620.992 133.796 620.992 135.482V136.234H613.834C613.86 137.276 614.163 138.119 614.742 138.764C615.328 139.402 616.07 139.721 616.969 139.721C617.607 139.721 618.147 139.59 618.59 139.33C619.033 139.07 619.42 138.725 619.752 138.295L620.855 139.154C619.97 140.515 618.642 141.195 616.871 141.195ZM616.646 131.723C615.917 131.723 615.305 131.99 614.811 132.523C614.316 133.051 614.01 133.793 613.893 134.75H619.186V134.613C619.133 133.695 618.886 132.986 618.443 132.484C618.001 131.977 617.402 131.723 616.646 131.723ZM622.652 135.629C622.652 134.008 623.036 132.706 623.805 131.723C624.573 130.733 625.579 130.238 626.822 130.238C628.059 130.238 629.039 130.661 629.762 131.508V126H631.568V141H629.908L629.82 139.867C629.098 140.753 628.092 141.195 626.803 141.195C625.579 141.195 624.579 140.694 623.805 139.691C623.036 138.689 622.652 137.38 622.652 135.766V135.629ZM624.459 135.834C624.459 137.032 624.706 137.969 625.201 138.646C625.696 139.324 626.38 139.662 627.252 139.662C628.398 139.662 629.234 139.148 629.762 138.119V133.266C629.221 132.27 628.391 131.771 627.271 131.771C626.386 131.771 625.696 132.113 625.201 132.797C624.706 133.48 624.459 134.493 624.459 135.834ZM640.23 141V131.83H638.561V130.434H640.23V129.35C640.23 128.217 640.533 127.341 641.139 126.723C641.744 126.104 642.6 125.795 643.707 125.795C644.124 125.795 644.537 125.85 644.947 125.961L644.85 127.426C644.544 127.367 644.218 127.338 643.873 127.338C643.287 127.338 642.835 127.51 642.516 127.855C642.197 128.194 642.037 128.682 642.037 129.32V130.434H644.293V131.83H642.037V141H640.23ZM645.816 135.619C645.816 134.584 646.018 133.653 646.422 132.826C646.832 131.999 647.398 131.361 648.121 130.912C648.85 130.463 649.68 130.238 650.611 130.238C652.05 130.238 653.212 130.736 654.098 131.732C654.99 132.729 655.436 134.053 655.436 135.707V135.834C655.436 136.863 655.237 137.787 654.84 138.607C654.449 139.421 653.886 140.056 653.15 140.512C652.421 140.967 651.581 141.195 650.631 141.195C649.199 141.195 648.036 140.697 647.145 139.701C646.259 138.705 645.816 137.387 645.816 135.746V135.619ZM647.633 135.834C647.633 137.006 647.903 137.947 648.443 138.656C648.99 139.366 649.719 139.721 650.631 139.721C651.549 139.721 652.278 139.363 652.818 138.646C653.359 137.924 653.629 136.915 653.629 135.619C653.629 134.46 653.352 133.523 652.799 132.807C652.252 132.084 651.523 131.723 650.611 131.723C649.719 131.723 649 132.077 648.453 132.787C647.906 133.497 647.633 134.512 647.633 135.834ZM662.809 132.055C662.535 132.009 662.239 131.986 661.92 131.986C660.735 131.986 659.931 132.491 659.508 133.5V141H657.701V130.434H659.459L659.488 131.654C660.081 130.71 660.921 130.238 662.008 130.238C662.359 130.238 662.626 130.284 662.809 130.375V132.055ZM672.896 138.354L675.357 130.434H677.291L673.043 142.631C672.385 144.389 671.34 145.268 669.908 145.268L669.566 145.238L668.893 145.111V143.646L669.381 143.686C669.993 143.686 670.468 143.562 670.807 143.314C671.152 143.067 671.435 142.615 671.656 141.957L672.057 140.883L668.287 130.434H670.26L672.896 138.354ZM678.277 135.619C678.277 134.584 678.479 133.653 678.883 132.826C679.293 131.999 679.859 131.361 680.582 130.912C681.311 130.463 682.141 130.238 683.072 130.238C684.511 130.238 685.673 130.736 686.559 131.732C687.451 132.729 687.896 134.053 687.896 135.707V135.834C687.896 136.863 687.698 137.787 687.301 138.607C686.91 139.421 686.347 140.056 685.611 140.512C684.882 140.967 684.042 141.195 683.092 141.195C681.66 141.195 680.497 140.697 679.605 139.701C678.72 138.705 678.277 137.387 678.277 135.746V135.619ZM680.094 135.834C680.094 137.006 680.364 137.947 680.904 138.656C681.451 139.366 682.18 139.721 683.092 139.721C684.01 139.721 684.739 139.363 685.279 138.646C685.82 137.924 686.09 136.915 686.09 135.619C686.09 134.46 685.813 133.523 685.26 132.807C684.713 132.084 683.984 131.723 683.072 131.723C682.18 131.723 681.461 132.077 680.914 132.787C680.367 133.497 680.094 134.512 680.094 135.834ZM696.686 139.955C695.982 140.782 694.951 141.195 693.59 141.195C692.464 141.195 691.604 140.87 691.012 140.219C690.426 139.561 690.13 138.591 690.123 137.309V130.434H691.93V137.26C691.93 138.861 692.581 139.662 693.883 139.662C695.263 139.662 696.181 139.148 696.637 138.119V130.434H698.443V141H696.725L696.686 139.955ZM706.305 132.055C706.031 132.009 705.735 131.986 705.416 131.986C704.231 131.986 703.427 132.491 703.004 133.5V141H701.197V130.434H702.955L702.984 131.654C703.577 130.71 704.417 130.238 705.504 130.238C705.855 130.238 706.122 130.284 706.305 130.375V132.055ZM714.645 130.434L714.703 131.762C715.51 130.746 716.565 130.238 717.867 130.238C720.1 130.238 721.227 131.498 721.246 134.018V141H719.439V134.008C719.433 133.246 719.257 132.683 718.912 132.318C718.574 131.954 718.043 131.771 717.32 131.771C716.734 131.771 716.22 131.928 715.777 132.24C715.335 132.553 714.99 132.963 714.742 133.471V141H712.936V130.434H714.645ZM728.355 141.195C726.923 141.195 725.758 140.727 724.859 139.789C723.961 138.845 723.512 137.585 723.512 136.01V135.678C723.512 134.63 723.71 133.695 724.107 132.875C724.511 132.048 725.071 131.404 725.787 130.941C726.51 130.473 727.291 130.238 728.131 130.238C729.505 130.238 730.572 130.691 731.334 131.596C732.096 132.501 732.477 133.796 732.477 135.482V136.234H725.318C725.344 137.276 725.647 138.119 726.227 138.764C726.812 139.402 727.555 139.721 728.453 139.721C729.091 139.721 729.632 139.59 730.074 139.33C730.517 139.07 730.904 138.725 731.236 138.295L732.34 139.154C731.454 140.515 730.126 141.195 728.355 141.195ZM728.131 131.723C727.402 131.723 726.79 131.99 726.295 132.523C725.8 133.051 725.494 133.793 725.377 134.75H730.67V134.613C730.618 133.695 730.37 132.986 729.928 132.484C729.485 131.977 728.886 131.723 728.131 131.723ZM738.121 134.291L740.465 130.434H742.574L739.117 135.658L742.682 141H740.592L738.15 137.045L735.709 141H733.609L737.174 135.658L733.717 130.434H735.807L738.121 134.291ZM746.949 127.875V130.434H748.922V131.83H746.949V138.383C746.949 138.806 747.037 139.125 747.213 139.34C747.389 139.548 747.688 139.652 748.111 139.652C748.32 139.652 748.606 139.613 748.971 139.535V141C748.495 141.13 748.033 141.195 747.584 141.195C746.777 141.195 746.168 140.951 745.758 140.463C745.348 139.975 745.143 139.281 745.143 138.383V131.83H743.219V130.434H745.143V127.875H746.949ZM764.928 135.834C764.928 137.442 764.56 138.738 763.824 139.721C763.089 140.704 762.092 141.195 760.836 141.195C759.553 141.195 758.544 140.788 757.809 139.975V145.062H756.002V130.434H757.652L757.74 131.605C758.476 130.694 759.498 130.238 760.807 130.238C762.076 130.238 763.079 130.717 763.814 131.674C764.557 132.631 764.928 133.962 764.928 135.668V135.834ZM763.121 135.629C763.121 134.438 762.867 133.497 762.359 132.807C761.852 132.117 761.155 131.771 760.27 131.771C759.176 131.771 758.355 132.257 757.809 133.227V138.275C758.349 139.239 759.176 139.721 760.289 139.721C761.155 139.721 761.842 139.379 762.35 138.695C762.864 138.005 763.121 136.983 763.121 135.629ZM772.34 132.055C772.066 132.009 771.77 131.986 771.451 131.986C770.266 131.986 769.462 132.491 769.039 133.5V141H767.232V130.434H768.99L769.02 131.654C769.612 130.71 770.452 130.238 771.539 130.238C771.891 130.238 772.158 130.284 772.34 130.375V132.055ZM773.336 135.619C773.336 134.584 773.538 133.653 773.941 132.826C774.352 131.999 774.918 131.361 775.641 130.912C776.37 130.463 777.2 130.238 778.131 130.238C779.57 130.238 780.732 130.736 781.617 131.732C782.509 132.729 782.955 134.053 782.955 135.707V135.834C782.955 136.863 782.757 137.787 782.359 138.607C781.969 139.421 781.406 140.056 780.67 140.512C779.941 140.967 779.101 141.195 778.15 141.195C776.718 141.195 775.556 140.697 774.664 139.701C773.779 138.705 773.336 137.387 773.336 135.746V135.619ZM775.152 135.834C775.152 137.006 775.423 137.947 775.963 138.656C776.51 139.366 777.239 139.721 778.15 139.721C779.068 139.721 779.798 139.363 780.338 138.646C780.878 137.924 781.148 136.915 781.148 135.619C781.148 134.46 780.872 133.523 780.318 132.807C779.771 132.084 779.042 131.723 778.131 131.723C777.239 131.723 776.52 132.077 775.973 132.787C775.426 133.497 775.152 134.512 775.152 135.834ZM787.086 130.434V142.221C787.086 144.252 786.165 145.268 784.322 145.268C783.925 145.268 783.557 145.209 783.219 145.092V143.646C783.427 143.699 783.701 143.725 784.039 143.725C784.443 143.725 784.749 143.614 784.957 143.393C785.172 143.178 785.279 142.8 785.279 142.26V130.434H787.086ZM785.094 127.631C785.094 127.344 785.182 127.1 785.357 126.898C785.54 126.69 785.803 126.586 786.148 126.586C786.5 126.586 786.767 126.687 786.949 126.889C787.132 127.09 787.223 127.338 787.223 127.631C787.223 127.924 787.132 128.168 786.949 128.363C786.767 128.559 786.5 128.656 786.148 128.656C785.797 128.656 785.533 128.559 785.357 128.363C785.182 128.168 785.094 127.924 785.094 127.631ZM794.391 141.195C792.958 141.195 791.793 140.727 790.895 139.789C789.996 138.845 789.547 137.585 789.547 136.01V135.678C789.547 134.63 789.745 133.695 790.143 132.875C790.546 132.048 791.106 131.404 791.822 130.941C792.545 130.473 793.326 130.238 794.166 130.238C795.54 130.238 796.607 130.691 797.369 131.596C798.131 132.501 798.512 133.796 798.512 135.482V136.234H791.354C791.38 137.276 791.682 138.119 792.262 138.764C792.848 139.402 793.59 139.721 794.488 139.721C795.126 139.721 795.667 139.59 796.109 139.33C796.552 139.07 796.939 138.725 797.271 138.295L798.375 139.154C797.49 140.515 796.161 141.195 794.391 141.195ZM794.166 131.723C793.437 131.723 792.825 131.99 792.33 132.523C791.835 133.051 791.529 133.793 791.412 134.75H796.705V134.613C796.653 133.695 796.406 132.986 795.963 132.484C795.52 131.977 794.921 131.723 794.166 131.723ZM804.85 139.721C805.494 139.721 806.057 139.525 806.539 139.135C807.021 138.744 807.288 138.256 807.34 137.67H809.049C809.016 138.275 808.808 138.852 808.424 139.398C808.04 139.945 807.525 140.382 806.881 140.707C806.243 141.033 805.566 141.195 804.85 141.195C803.411 141.195 802.265 140.717 801.412 139.76C800.566 138.796 800.143 137.481 800.143 135.814V135.512C800.143 134.483 800.331 133.568 800.709 132.768C801.087 131.967 801.627 131.345 802.33 130.902C803.04 130.46 803.876 130.238 804.84 130.238C806.025 130.238 807.008 130.593 807.789 131.303C808.577 132.012 808.997 132.934 809.049 134.066H807.34C807.288 133.383 807.027 132.823 806.559 132.387C806.096 131.944 805.523 131.723 804.84 131.723C803.922 131.723 803.209 132.055 802.701 132.719C802.2 133.376 801.949 134.33 801.949 135.58V135.922C801.949 137.139 802.2 138.077 802.701 138.734C803.202 139.392 803.919 139.721 804.85 139.721ZM813.531 127.875V130.434H815.504V131.83H813.531V138.383C813.531 138.806 813.619 139.125 813.795 139.34C813.971 139.548 814.27 139.652 814.693 139.652C814.902 139.652 815.188 139.613 815.553 139.535V141C815.077 141.13 814.615 141.195 814.166 141.195C813.359 141.195 812.75 140.951 812.34 140.463C811.93 139.975 811.725 139.281 811.725 138.383V131.83H809.801V130.434H811.725V127.875H813.531ZM827.691 132.055C827.418 132.009 827.122 131.986 826.803 131.986C825.618 131.986 824.814 132.491 824.391 133.5V141H822.584V130.434H824.342L824.371 131.654C824.964 130.71 825.803 130.238 826.891 130.238C827.242 130.238 827.509 130.284 827.691 130.375V132.055ZM831.324 141H829.518V130.434H831.324V141ZM829.371 127.631C829.371 127.338 829.459 127.09 829.635 126.889C829.817 126.687 830.084 126.586 830.436 126.586C830.787 126.586 831.054 126.687 831.236 126.889C831.419 127.09 831.51 127.338 831.51 127.631C831.51 127.924 831.419 128.168 831.236 128.363C831.054 128.559 830.787 128.656 830.436 128.656C830.084 128.656 829.817 128.559 829.635 128.363C829.459 128.168 829.371 127.924 829.371 127.631ZM833.795 135.629C833.795 133.982 834.176 132.673 834.938 131.703C835.699 130.727 836.708 130.238 837.965 130.238C839.254 130.238 840.26 130.694 840.982 131.605L841.07 130.434H842.721V140.746C842.721 142.113 842.314 143.191 841.5 143.979C840.693 144.766 839.605 145.16 838.238 145.16C837.477 145.16 836.731 144.997 836.002 144.672C835.273 144.346 834.716 143.9 834.332 143.334L835.27 142.25C836.044 143.207 836.992 143.686 838.111 143.686C838.99 143.686 839.674 143.438 840.162 142.943C840.657 142.449 840.904 141.752 840.904 140.854V139.945C840.182 140.779 839.195 141.195 837.945 141.195C836.708 141.195 835.706 140.697 834.938 139.701C834.176 138.705 833.795 137.348 833.795 135.629ZM835.611 135.834C835.611 137.025 835.855 137.963 836.344 138.646C836.832 139.324 837.516 139.662 838.395 139.662C839.534 139.662 840.37 139.145 840.904 138.109V133.285C840.351 132.276 839.521 131.771 838.414 131.771C837.535 131.771 836.848 132.113 836.354 132.797C835.859 133.48 835.611 134.493 835.611 135.834ZM847.262 131.713C848.062 130.73 849.104 130.238 850.387 130.238C852.62 130.238 853.746 131.498 853.766 134.018V141H851.959V134.008C851.952 133.246 851.777 132.683 851.432 132.318C851.093 131.954 850.562 131.771 849.84 131.771C849.254 131.771 848.74 131.928 848.297 132.24C847.854 132.553 847.509 132.963 847.262 133.471V141H845.455V126H847.262V131.713ZM858.922 127.875V130.434H860.895V131.83H858.922V138.383C858.922 138.806 859.01 139.125 859.186 139.34C859.361 139.548 859.661 139.652 860.084 139.652C860.292 139.652 860.579 139.613 860.943 139.535V141C860.468 141.13 860.006 141.195 859.557 141.195C858.749 141.195 858.141 140.951 857.73 140.463C857.32 139.975 857.115 139.281 857.115 138.383V131.83H855.191V130.434H857.115V127.875H858.922ZM869.781 131.713C870.582 130.73 871.624 130.238 872.906 130.238C875.139 130.238 876.266 131.498 876.285 134.018V141H874.479V134.008C874.472 133.246 874.296 132.683 873.951 132.318C873.613 131.954 873.082 131.771 872.359 131.771C871.773 131.771 871.259 131.928 870.816 132.24C870.374 132.553 870.029 132.963 869.781 133.471V141H867.975V126H869.781V131.713ZM883.375 141.195C881.943 141.195 880.777 140.727 879.879 139.789C878.98 138.845 878.531 137.585 878.531 136.01V135.678C878.531 134.63 878.73 133.695 879.127 132.875C879.531 132.048 880.09 131.404 880.807 130.941C881.529 130.473 882.311 130.238 883.15 130.238C884.524 130.238 885.592 130.691 886.354 131.596C887.115 132.501 887.496 133.796 887.496 135.482V136.234H880.338C880.364 137.276 880.667 138.119 881.246 138.764C881.832 139.402 882.574 139.721 883.473 139.721C884.111 139.721 884.651 139.59 885.094 139.33C885.536 139.07 885.924 138.725 886.256 138.295L887.359 139.154C886.474 140.515 885.146 141.195 883.375 141.195ZM883.15 131.723C882.421 131.723 881.809 131.99 881.314 132.523C880.82 133.051 880.514 133.793 880.396 134.75H885.689V134.613C885.637 133.695 885.39 132.986 884.947 132.484C884.505 131.977 883.906 131.723 883.15 131.723ZM894.703 132.055C894.43 132.009 894.133 131.986 893.814 131.986C892.63 131.986 891.826 132.491 891.402 133.5V141H889.596V130.434H891.354L891.383 131.654C891.975 130.71 892.815 130.238 893.902 130.238C894.254 130.238 894.521 130.284 894.703 130.375V132.055ZM900.562 141.195C899.13 141.195 897.965 140.727 897.066 139.789C896.168 138.845 895.719 137.585 895.719 136.01V135.678C895.719 134.63 895.917 133.695 896.314 132.875C896.718 132.048 897.278 131.404 897.994 130.941C898.717 130.473 899.498 130.238 900.338 130.238C901.712 130.238 902.779 130.691 903.541 131.596C904.303 132.501 904.684 133.796 904.684 135.482V136.234H897.525C897.551 137.276 897.854 138.119 898.434 138.764C899.02 139.402 899.762 139.721 900.66 139.721C901.298 139.721 901.839 139.59 902.281 139.33C902.724 139.07 903.111 138.725 903.443 138.295L904.547 139.154C903.661 140.515 902.333 141.195 900.562 141.195ZM900.338 131.723C899.609 131.723 898.997 131.99 898.502 132.523C898.007 133.051 897.701 133.793 897.584 134.75H902.877V134.613C902.825 133.695 902.577 132.986 902.135 132.484C901.692 131.977 901.093 131.723 900.338 131.723ZM918.268 141C918.163 140.792 918.079 140.421 918.014 139.887C917.174 140.759 916.171 141.195 915.006 141.195C913.964 141.195 913.108 140.902 912.438 140.316C911.773 139.724 911.441 138.975 911.441 138.07C911.441 136.97 911.858 136.117 912.691 135.512C913.531 134.9 914.71 134.594 916.227 134.594H917.984V133.764C917.984 133.132 917.796 132.631 917.418 132.26C917.04 131.882 916.484 131.693 915.748 131.693C915.104 131.693 914.563 131.856 914.127 132.182C913.691 132.507 913.473 132.901 913.473 133.363H911.656C911.656 132.836 911.842 132.328 912.213 131.84C912.59 131.345 913.098 130.954 913.736 130.668C914.381 130.382 915.087 130.238 915.855 130.238C917.073 130.238 918.027 130.544 918.717 131.156C919.407 131.762 919.765 132.598 919.791 133.666V138.529C919.791 139.499 919.915 140.271 920.162 140.844V141H918.268ZM915.27 139.623C915.836 139.623 916.373 139.477 916.881 139.184C917.389 138.891 917.757 138.51 917.984 138.041V135.873H916.568C914.355 135.873 913.248 136.521 913.248 137.816C913.248 138.383 913.437 138.826 913.814 139.145C914.192 139.464 914.677 139.623 915.27 139.623ZM925.074 127.875V130.434H927.047V131.83H925.074V138.383C925.074 138.806 925.162 139.125 925.338 139.34C925.514 139.548 925.813 139.652 926.236 139.652C926.445 139.652 926.731 139.613 927.096 139.535V141C926.62 141.13 926.158 141.195 925.709 141.195C924.902 141.195 924.293 140.951 923.883 140.463C923.473 139.975 923.268 139.281 923.268 138.383V131.83H921.344V130.434H923.268V127.875H925.074ZM936.285 135.434V141H934.41V126.781H939.654C941.21 126.781 942.428 127.178 943.307 127.973C944.192 128.767 944.635 129.818 944.635 131.127C944.635 132.507 944.202 133.572 943.336 134.32C942.477 135.062 941.243 135.434 939.635 135.434H936.285ZM936.285 133.9H939.654C940.657 133.9 941.425 133.666 941.959 133.197C942.493 132.722 942.76 132.038 942.76 131.146C942.76 130.3 942.493 129.623 941.959 129.115C941.425 128.607 940.693 128.344 939.762 128.324H936.285V133.9ZM950.992 141.195C949.56 141.195 948.395 140.727 947.496 139.789C946.598 138.845 946.148 137.585 946.148 136.01V135.678C946.148 134.63 946.347 133.695 946.744 132.875C947.148 132.048 947.708 131.404 948.424 130.941C949.146 130.473 949.928 130.238 950.768 130.238C952.141 130.238 953.209 130.691 953.971 131.596C954.732 132.501 955.113 133.796 955.113 135.482V136.234H947.955C947.981 137.276 948.284 138.119 948.863 138.764C949.449 139.402 950.191 139.721 951.09 139.721C951.728 139.721 952.268 139.59 952.711 139.33C953.154 139.07 953.541 138.725 953.873 138.295L954.977 139.154C954.091 140.515 952.763 141.195 950.992 141.195ZM950.768 131.723C950.038 131.723 949.426 131.99 948.932 132.523C948.437 133.051 948.131 133.793 948.014 134.75H953.307V134.613C953.255 133.695 953.007 132.986 952.564 132.484C952.122 131.977 951.523 131.723 950.768 131.723ZM959.664 127.875V130.434H961.637V131.83H959.664V138.383C959.664 138.806 959.752 139.125 959.928 139.34C960.104 139.548 960.403 139.652 960.826 139.652C961.035 139.652 961.321 139.613 961.686 139.535V141C961.21 141.13 960.748 141.195 960.299 141.195C959.492 141.195 958.883 140.951 958.473 140.463C958.062 139.975 957.857 139.281 957.857 138.383V131.83H955.934V130.434H957.857V127.875H959.664ZM969.908 138.197C969.908 137.709 969.723 137.331 969.352 137.064C968.987 136.791 968.346 136.557 967.428 136.361C966.516 136.166 965.79 135.932 965.25 135.658C964.716 135.385 964.319 135.059 964.059 134.682C963.805 134.304 963.678 133.855 963.678 133.334C963.678 132.468 964.042 131.736 964.771 131.137C965.507 130.538 966.445 130.238 967.584 130.238C968.782 130.238 969.752 130.548 970.494 131.166C971.243 131.785 971.617 132.576 971.617 133.539H969.801C969.801 133.044 969.589 132.618 969.166 132.26C968.749 131.902 968.222 131.723 967.584 131.723C966.926 131.723 966.412 131.866 966.041 132.152C965.67 132.439 965.484 132.813 965.484 133.275C965.484 133.712 965.657 134.04 966.002 134.262C966.347 134.483 966.969 134.695 967.867 134.896C968.772 135.098 969.505 135.339 970.064 135.619C970.624 135.899 971.038 136.238 971.305 136.635C971.578 137.025 971.715 137.504 971.715 138.07C971.715 139.014 971.337 139.773 970.582 140.346C969.827 140.912 968.847 141.195 967.643 141.195C966.796 141.195 966.048 141.046 965.396 140.746C964.745 140.447 964.234 140.03 963.863 139.496C963.499 138.956 963.316 138.373 963.316 137.748H965.123C965.156 138.354 965.396 138.835 965.846 139.193C966.301 139.545 966.9 139.721 967.643 139.721C968.326 139.721 968.873 139.584 969.283 139.311C969.7 139.031 969.908 138.66 969.908 138.197ZM973.59 135.619C973.59 134.584 973.792 133.653 974.195 132.826C974.605 131.999 975.172 131.361 975.895 130.912C976.624 130.463 977.454 130.238 978.385 130.238C979.824 130.238 980.986 130.736 981.871 131.732C982.763 132.729 983.209 134.053 983.209 135.707V135.834C983.209 136.863 983.01 137.787 982.613 138.607C982.223 139.421 981.66 140.056 980.924 140.512C980.195 140.967 979.355 141.195 978.404 141.195C976.972 141.195 975.81 140.697 974.918 139.701C974.033 138.705 973.59 137.387 973.59 135.746V135.619ZM975.406 135.834C975.406 137.006 975.676 137.947 976.217 138.656C976.764 139.366 977.493 139.721 978.404 139.721C979.322 139.721 980.051 139.363 980.592 138.646C981.132 137.924 981.402 136.915 981.402 135.619C981.402 134.46 981.126 133.523 980.572 132.807C980.025 132.084 979.296 131.723 978.385 131.723C977.493 131.723 976.773 132.077 976.227 132.787C975.68 133.497 975.406 134.512 975.406 135.834ZM985.514 140.053C985.514 139.74 985.605 139.48 985.787 139.271C985.976 139.063 986.256 138.959 986.627 138.959C986.998 138.959 987.278 139.063 987.467 139.271C987.662 139.48 987.76 139.74 987.76 140.053C987.76 140.352 987.662 140.603 987.467 140.805C987.278 141.007 986.998 141.107 986.627 141.107C986.256 141.107 985.976 141.007 985.787 140.805C985.605 140.603 985.514 140.352 985.514 140.053ZM999.059 136.518L999.332 138.393L999.732 136.703L1002.54 126.781H1004.13L1006.87 136.703L1007.26 138.422L1007.56 136.508L1009.77 126.781H1011.66L1008.21 141H1006.5L1003.57 130.639L1003.35 129.555L1003.12 130.639L1000.08 141H998.375L994.938 126.781H996.812L999.059 136.518ZM1015.27 131.713C1016.07 130.73 1017.11 130.238 1018.39 130.238C1020.63 130.238 1021.75 131.498 1021.77 134.018V141H1019.97V134.008C1019.96 133.246 1019.78 132.683 1019.44 132.318C1019.1 131.954 1018.57 131.771 1017.85 131.771C1017.26 131.771 1016.75 131.928 1016.3 132.24C1015.86 132.553 1015.52 132.963 1015.27 133.471V141H1013.46V126H1015.27V131.713ZM1028.86 141.195C1027.43 141.195 1026.27 140.727 1025.37 139.789C1024.47 138.845 1024.02 137.585 1024.02 136.01V135.678C1024.02 134.63 1024.22 133.695 1024.62 132.875C1025.02 132.048 1025.58 131.404 1026.29 130.941C1027.02 130.473 1027.8 130.238 1028.64 130.238C1030.01 130.238 1031.08 130.691 1031.84 131.596C1032.6 132.501 1032.98 133.796 1032.98 135.482V136.234H1025.83C1025.85 137.276 1026.15 138.119 1026.73 138.764C1027.32 139.402 1028.06 139.721 1028.96 139.721C1029.6 139.721 1030.14 139.59 1030.58 139.33C1031.02 139.07 1031.41 138.725 1031.74 138.295L1032.85 139.154C1031.96 140.515 1030.63 141.195 1028.86 141.195ZM1028.64 131.723C1027.91 131.723 1027.3 131.99 1026.8 132.523C1026.31 133.051 1026 133.793 1025.88 134.75H1031.18V134.613C1031.13 133.695 1030.88 132.986 1030.44 132.484C1029.99 131.977 1029.39 131.723 1028.64 131.723ZM1037.54 127.875V130.434H1039.51V131.83H1037.54V138.383C1037.54 138.806 1037.62 139.125 1037.8 139.34C1037.97 139.548 1038.27 139.652 1038.7 139.652C1038.91 139.652 1039.19 139.613 1039.56 139.535V141C1039.08 141.13 1038.62 141.195 1038.17 141.195C1037.36 141.195 1036.75 140.951 1036.34 140.463C1035.93 139.975 1035.73 139.281 1035.73 138.383V131.83H1033.8V130.434H1035.73V127.875H1037.54ZM1043.43 131.713C1044.23 130.73 1045.28 130.238 1046.56 130.238C1048.79 130.238 1049.92 131.498 1049.94 134.018V141H1048.13V134.008C1048.12 133.246 1047.95 132.683 1047.6 132.318C1047.26 131.954 1046.73 131.771 1046.01 131.771C1045.43 131.771 1044.91 131.928 1044.47 132.24C1044.03 132.553 1043.68 132.963 1043.43 133.471V141H1041.63V126H1043.43V131.713ZM1057.03 141.195C1055.6 141.195 1054.43 140.727 1053.53 139.789C1052.63 138.845 1052.18 137.585 1052.18 136.01V135.678C1052.18 134.63 1052.38 133.695 1052.78 132.875C1053.18 132.048 1053.74 131.404 1054.46 130.941C1055.18 130.473 1055.96 130.238 1056.8 130.238C1058.18 130.238 1059.24 130.691 1060.01 131.596C1060.77 132.501 1061.15 133.796 1061.15 135.482V136.234H1053.99C1054.02 137.276 1054.32 138.119 1054.9 138.764C1055.48 139.402 1056.23 139.721 1057.12 139.721C1057.76 139.721 1058.3 139.59 1058.75 139.33C1059.19 139.07 1059.58 138.725 1059.91 138.295L1061.01 139.154C1060.13 140.515 1058.8 141.195 1057.03 141.195ZM1056.8 131.723C1056.07 131.723 1055.46 131.99 1054.97 132.523C1054.47 133.051 1054.17 133.793 1054.05 134.75H1059.34V134.613C1059.29 133.695 1059.04 132.986 1058.6 132.484C1058.16 131.977 1057.56 131.723 1056.8 131.723ZM1068.36 132.055C1068.08 132.009 1067.79 131.986 1067.47 131.986C1066.28 131.986 1065.48 132.491 1065.05 133.5V141H1063.25V130.434H1065.01L1065.04 131.654C1065.63 130.71 1066.47 130.238 1067.55 130.238C1067.91 130.238 1068.17 130.284 1068.36 130.375V132.055ZM460.016 164H458.209V153.434H460.016V164ZM458.062 150.631C458.062 150.338 458.15 150.09 458.326 149.889C458.508 149.687 458.775 149.586 459.127 149.586C459.479 149.586 459.745 149.687 459.928 149.889C460.11 150.09 460.201 150.338 460.201 150.631C460.201 150.924 460.11 151.168 459.928 151.363C459.745 151.559 459.479 151.656 459.127 151.656C458.775 151.656 458.508 151.559 458.326 151.363C458.15 151.168 458.062 150.924 458.062 150.631ZM465.367 150.875V153.434H467.34V154.83H465.367V161.383C465.367 161.806 465.455 162.125 465.631 162.34C465.807 162.548 466.106 162.652 466.529 162.652C466.738 162.652 467.024 162.613 467.389 162.535V164C466.913 164.13 466.451 164.195 466.002 164.195C465.195 164.195 464.586 163.951 464.176 163.463C463.766 162.975 463.561 162.281 463.561 161.383V154.83H461.637V153.434H463.561V150.875H465.367ZM469.586 153.785L468.561 153.082C469.166 152.236 469.479 151.344 469.498 150.406V149H471.285V150.27C471.279 150.921 471.116 151.572 470.797 152.223C470.484 152.867 470.081 153.388 469.586 153.785ZM478.521 161.197C478.521 160.709 478.336 160.331 477.965 160.064C477.6 159.791 476.959 159.557 476.041 159.361C475.13 159.166 474.404 158.932 473.863 158.658C473.329 158.385 472.932 158.059 472.672 157.682C472.418 157.304 472.291 156.855 472.291 156.334C472.291 155.468 472.656 154.736 473.385 154.137C474.12 153.538 475.058 153.238 476.197 153.238C477.395 153.238 478.365 153.548 479.107 154.166C479.856 154.785 480.23 155.576 480.23 156.539H478.414C478.414 156.044 478.202 155.618 477.779 155.26C477.363 154.902 476.835 154.723 476.197 154.723C475.54 154.723 475.025 154.866 474.654 155.152C474.283 155.439 474.098 155.813 474.098 156.275C474.098 156.712 474.27 157.04 474.615 157.262C474.96 157.483 475.582 157.695 476.48 157.896C477.385 158.098 478.118 158.339 478.678 158.619C479.238 158.899 479.651 159.238 479.918 159.635C480.191 160.025 480.328 160.504 480.328 161.07C480.328 162.014 479.951 162.773 479.195 163.346C478.44 163.912 477.46 164.195 476.256 164.195C475.41 164.195 474.661 164.046 474.01 163.746C473.359 163.447 472.848 163.03 472.477 162.496C472.112 161.956 471.93 161.373 471.93 160.748H473.736C473.769 161.354 474.01 161.835 474.459 162.193C474.915 162.545 475.514 162.721 476.256 162.721C476.939 162.721 477.486 162.584 477.896 162.311C478.313 162.031 478.521 161.66 478.521 161.197ZM490.094 150.875V153.434H492.066V154.83H490.094V161.383C490.094 161.806 490.182 162.125 490.357 162.34C490.533 162.548 490.833 162.652 491.256 162.652C491.464 162.652 491.751 162.613 492.115 162.535V164C491.64 164.13 491.178 164.195 490.729 164.195C489.921 164.195 489.312 163.951 488.902 163.463C488.492 162.975 488.287 162.281 488.287 161.383V154.83H486.363V153.434H488.287V150.875H490.094ZM495.992 154.713C496.793 153.73 497.835 153.238 499.117 153.238C501.35 153.238 502.477 154.498 502.496 157.018V164H500.689V157.008C500.683 156.246 500.507 155.683 500.162 155.318C499.824 154.954 499.293 154.771 498.57 154.771C497.984 154.771 497.47 154.928 497.027 155.24C496.585 155.553 496.24 155.963 495.992 156.471V164H494.186V149H495.992V154.713ZM509.586 164.195C508.154 164.195 506.988 163.727 506.09 162.789C505.191 161.845 504.742 160.585 504.742 159.01V158.678C504.742 157.63 504.941 156.695 505.338 155.875C505.742 155.048 506.301 154.404 507.018 153.941C507.74 153.473 508.521 153.238 509.361 153.238C510.735 153.238 511.803 153.691 512.564 154.596C513.326 155.501 513.707 156.796 513.707 158.482V159.234H506.549C506.575 160.276 506.878 161.119 507.457 161.764C508.043 162.402 508.785 162.721 509.684 162.721C510.322 162.721 510.862 162.59 511.305 162.33C511.747 162.07 512.135 161.725 512.467 161.295L513.57 162.154C512.685 163.515 511.357 164.195 509.586 164.195ZM509.361 154.723C508.632 154.723 508.02 154.99 507.525 155.523C507.031 156.051 506.725 156.793 506.607 157.75H511.9V157.613C511.848 156.695 511.601 155.986 511.158 155.484C510.715 154.977 510.117 154.723 509.361 154.723ZM521.656 164V154.83H519.986V153.434H521.656V152.35C521.656 151.217 521.959 150.341 522.564 149.723C523.17 149.104 524.026 148.795 525.133 148.795C525.549 148.795 525.963 148.85 526.373 148.961L526.275 150.426C525.969 150.367 525.644 150.338 525.299 150.338C524.713 150.338 524.26 150.51 523.941 150.855C523.622 151.194 523.463 151.682 523.463 152.32V153.434H525.719V154.83H523.463V164H521.656ZM534.244 162.955C533.541 163.782 532.509 164.195 531.148 164.195C530.022 164.195 529.163 163.87 528.57 163.219C527.984 162.561 527.688 161.591 527.682 160.309V153.434H529.488V160.26C529.488 161.861 530.139 162.662 531.441 162.662C532.822 162.662 533.74 162.148 534.195 161.119V153.434H536.002V164H534.283L534.244 162.955ZM540.465 153.434L540.523 154.762C541.331 153.746 542.385 153.238 543.688 153.238C545.921 153.238 547.047 154.498 547.066 157.018V164H545.26V157.008C545.253 156.246 545.077 155.683 544.732 155.318C544.394 154.954 543.863 154.771 543.141 154.771C542.555 154.771 542.04 154.928 541.598 155.24C541.155 155.553 540.81 155.963 540.562 156.471V164H538.756V153.434H540.465ZM549.352 158.629C549.352 157.008 549.736 155.706 550.504 154.723C551.272 153.733 552.278 153.238 553.521 153.238C554.758 153.238 555.738 153.661 556.461 154.508V149H558.268V164H556.607L556.52 162.867C555.797 163.753 554.791 164.195 553.502 164.195C552.278 164.195 551.279 163.694 550.504 162.691C549.736 161.689 549.352 160.38 549.352 158.766V158.629ZM551.158 158.834C551.158 160.032 551.406 160.969 551.9 161.646C552.395 162.324 553.079 162.662 553.951 162.662C555.097 162.662 555.934 162.148 556.461 161.119V156.266C555.921 155.27 555.09 154.771 553.971 154.771C553.085 154.771 552.395 155.113 551.9 155.797C551.406 156.48 551.158 157.493 551.158 158.834ZM565.562 158.619C565.562 157.584 565.764 156.653 566.168 155.826C566.578 154.999 567.145 154.361 567.867 153.912C568.596 153.463 569.426 153.238 570.357 153.238C571.796 153.238 572.958 153.736 573.844 154.732C574.736 155.729 575.182 157.053 575.182 158.707V158.834C575.182 159.863 574.983 160.787 574.586 161.607C574.195 162.421 573.632 163.056 572.896 163.512C572.167 163.967 571.327 164.195 570.377 164.195C568.945 164.195 567.783 163.697 566.891 162.701C566.005 161.705 565.562 160.387 565.562 158.746V158.619ZM567.379 158.834C567.379 160.006 567.649 160.947 568.189 161.656C568.736 162.366 569.465 162.721 570.377 162.721C571.295 162.721 572.024 162.363 572.564 161.646C573.105 160.924 573.375 159.915 573.375 158.619C573.375 157.46 573.098 156.523 572.545 155.807C571.998 155.084 571.269 154.723 570.357 154.723C569.465 154.723 568.746 155.077 568.199 155.787C567.652 156.497 567.379 157.512 567.379 158.834ZM582.555 155.055C582.281 155.009 581.985 154.986 581.666 154.986C580.481 154.986 579.677 155.491 579.254 156.5V164H577.447V153.434H579.205L579.234 154.654C579.827 153.71 580.667 153.238 581.754 153.238C582.105 153.238 582.372 153.284 582.555 153.375V155.055ZM591.637 150.875V153.434H593.609V154.83H591.637V161.383C591.637 161.806 591.725 162.125 591.9 162.34C592.076 162.548 592.376 162.652 592.799 162.652C593.007 162.652 593.294 162.613 593.658 162.535V164C593.183 164.13 592.721 164.195 592.271 164.195C591.464 164.195 590.855 163.951 590.445 163.463C590.035 162.975 589.83 162.281 589.83 161.383V154.83H587.906V153.434H589.83V150.875H591.637ZM597.535 154.713C598.336 153.73 599.378 153.238 600.66 153.238C602.893 153.238 604.02 154.498 604.039 157.018V164H602.232V157.008C602.226 156.246 602.05 155.683 601.705 155.318C601.367 154.954 600.836 154.771 600.113 154.771C599.527 154.771 599.013 154.928 598.57 155.24C598.128 155.553 597.783 155.963 597.535 156.471V164H595.729V149H597.535V154.713ZM611.129 164.195C609.697 164.195 608.531 163.727 607.633 162.789C606.734 161.845 606.285 160.585 606.285 159.01V158.678C606.285 157.63 606.484 156.695 606.881 155.875C607.285 155.048 607.844 154.404 608.561 153.941C609.283 153.473 610.064 153.238 610.904 153.238C612.278 153.238 613.346 153.691 614.107 154.596C614.869 155.501 615.25 156.796 615.25 158.482V159.234H608.092C608.118 160.276 608.421 161.119 609 161.764C609.586 162.402 610.328 162.721 611.227 162.721C611.865 162.721 612.405 162.59 612.848 162.33C613.29 162.07 613.678 161.725 614.01 161.295L615.113 162.154C614.228 163.515 612.9 164.195 611.129 164.195ZM610.904 154.723C610.175 154.723 609.563 154.99 609.068 155.523C608.574 156.051 608.268 156.793 608.15 157.75H613.443V157.613C613.391 156.695 613.144 155.986 612.701 155.484C612.258 154.977 611.66 154.723 610.904 154.723ZM631.666 161.51L633.697 153.434H635.504L632.428 164H630.963L628.395 155.992L625.895 164H624.43L621.363 153.434H623.16L625.24 161.344L627.701 153.434H629.156L631.666 161.51ZM636.871 158.619C636.871 157.584 637.073 156.653 637.477 155.826C637.887 154.999 638.453 154.361 639.176 153.912C639.905 153.463 640.735 153.238 641.666 153.238C643.105 153.238 644.267 153.736 645.152 154.732C646.044 155.729 646.49 157.053 646.49 158.707V158.834C646.49 159.863 646.292 160.787 645.895 161.607C645.504 162.421 644.941 163.056 644.205 163.512C643.476 163.967 642.636 164.195 641.686 164.195C640.253 164.195 639.091 163.697 638.199 162.701C637.314 161.705 636.871 160.387 636.871 158.746V158.619ZM638.688 158.834C638.688 160.006 638.958 160.947 639.498 161.656C640.045 162.366 640.774 162.721 641.686 162.721C642.604 162.721 643.333 162.363 643.873 161.646C644.413 160.924 644.684 159.915 644.684 158.619C644.684 157.46 644.407 156.523 643.854 155.807C643.307 155.084 642.577 154.723 641.666 154.723C640.774 154.723 640.055 155.077 639.508 155.787C638.961 156.497 638.688 157.512 638.688 158.834ZM653.863 155.055C653.59 155.009 653.294 154.986 652.975 154.986C651.79 154.986 650.986 155.491 650.562 156.5V164H648.756V153.434H650.514L650.543 154.654C651.135 153.71 651.975 153.238 653.062 153.238C653.414 153.238 653.681 153.284 653.863 153.375V155.055ZM658.482 159.107L657.35 160.289V164H655.543V149H657.35V158.072L658.316 156.91L661.607 153.434H663.805L659.693 157.848L664.283 164H662.164L658.482 159.107ZM666.559 164V154.83H664.889V153.434H666.559V152.35C666.559 151.217 666.861 150.341 667.467 149.723C668.072 149.104 668.928 148.795 670.035 148.795C670.452 148.795 670.865 148.85 671.275 148.961L671.178 150.426C670.872 150.367 670.546 150.338 670.201 150.338C669.615 150.338 669.163 150.51 668.844 150.855C668.525 151.194 668.365 151.682 668.365 152.32V153.434H670.621V154.83H668.365V164H666.559ZM672.145 158.619C672.145 157.584 672.346 156.653 672.75 155.826C673.16 154.999 673.727 154.361 674.449 153.912C675.178 153.463 676.008 153.238 676.939 153.238C678.378 153.238 679.54 153.736 680.426 154.732C681.318 155.729 681.764 157.053 681.764 158.707V158.834C681.764 159.863 681.565 160.787 681.168 161.607C680.777 162.421 680.214 163.056 679.479 163.512C678.749 163.967 677.91 164.195 676.959 164.195C675.527 164.195 674.365 163.697 673.473 162.701C672.587 161.705 672.145 160.387 672.145 158.746V158.619ZM673.961 158.834C673.961 160.006 674.231 160.947 674.771 161.656C675.318 162.366 676.048 162.721 676.959 162.721C677.877 162.721 678.606 162.363 679.146 161.646C679.687 160.924 679.957 159.915 679.957 158.619C679.957 157.46 679.68 156.523 679.127 155.807C678.58 155.084 677.851 154.723 676.939 154.723C676.048 154.723 675.328 155.077 674.781 155.787C674.234 156.497 673.961 157.512 673.961 158.834ZM689.137 155.055C688.863 155.009 688.567 154.986 688.248 154.986C687.063 154.986 686.259 155.491 685.836 156.5V164H684.029V153.434H685.787L685.816 154.654C686.409 153.71 687.249 153.238 688.336 153.238C688.688 153.238 688.954 153.284 689.137 153.375V155.055ZM694.85 162.721C695.494 162.721 696.057 162.525 696.539 162.135C697.021 161.744 697.288 161.256 697.34 160.67H699.049C699.016 161.275 698.808 161.852 698.424 162.398C698.04 162.945 697.525 163.382 696.881 163.707C696.243 164.033 695.566 164.195 694.85 164.195C693.411 164.195 692.265 163.717 691.412 162.76C690.566 161.796 690.143 160.481 690.143 158.814V158.512C690.143 157.483 690.331 156.568 690.709 155.768C691.087 154.967 691.627 154.345 692.33 153.902C693.04 153.46 693.876 153.238 694.84 153.238C696.025 153.238 697.008 153.593 697.789 154.303C698.577 155.012 698.997 155.934 699.049 157.066H697.34C697.288 156.383 697.027 155.823 696.559 155.387C696.096 154.944 695.523 154.723 694.84 154.723C693.922 154.723 693.209 155.055 692.701 155.719C692.2 156.376 691.949 157.33 691.949 158.58V158.922C691.949 160.139 692.2 161.077 692.701 161.734C693.202 162.392 693.919 162.721 694.85 162.721ZM705.465 164.195C704.033 164.195 702.867 163.727 701.969 162.789C701.07 161.845 700.621 160.585 700.621 159.01V158.678C700.621 157.63 700.82 156.695 701.217 155.875C701.62 155.048 702.18 154.404 702.896 153.941C703.619 153.473 704.4 153.238 705.24 153.238C706.614 153.238 707.682 153.691 708.443 154.596C709.205 155.501 709.586 156.796 709.586 158.482V159.234H702.428C702.454 160.276 702.757 161.119 703.336 161.764C703.922 162.402 704.664 162.721 705.562 162.721C706.201 162.721 706.741 162.59 707.184 162.33C707.626 162.07 708.014 161.725 708.346 161.295L709.449 162.154C708.564 163.515 707.236 164.195 705.465 164.195ZM705.24 154.723C704.511 154.723 703.899 154.99 703.404 155.523C702.91 156.051 702.604 156.793 702.486 157.75H707.779V157.613C707.727 156.695 707.48 155.986 707.037 155.484C706.594 154.977 705.995 154.723 705.24 154.723ZM711.627 166.832L710.602 166.129C711.214 165.276 711.533 164.397 711.559 163.492V161.861H713.326V163.277C713.326 163.935 713.163 164.592 712.838 165.25C712.519 165.908 712.115 166.435 711.627 166.832ZM722.535 164H720.729V149H722.535V164ZM729.82 164.195C728.388 164.195 727.223 163.727 726.324 162.789C725.426 161.845 724.977 160.585 724.977 159.01V158.678C724.977 157.63 725.175 156.695 725.572 155.875C725.976 155.048 726.536 154.404 727.252 153.941C727.975 153.473 728.756 153.238 729.596 153.238C730.969 153.238 732.037 153.691 732.799 154.596C733.561 155.501 733.941 156.796 733.941 158.482V159.234H726.783C726.809 160.276 727.112 161.119 727.691 161.764C728.277 162.402 729.02 162.721 729.918 162.721C730.556 162.721 731.096 162.59 731.539 162.33C731.982 162.07 732.369 161.725 732.701 161.295L733.805 162.154C732.919 163.515 731.591 164.195 729.82 164.195ZM729.596 154.723C728.867 154.723 728.255 154.99 727.76 155.523C727.265 156.051 726.959 156.793 726.842 157.75H732.135V157.613C732.083 156.695 731.835 155.986 731.393 155.484C730.95 154.977 730.351 154.723 729.596 154.723ZM738.492 150.875V153.434H740.465V154.83H738.492V161.383C738.492 161.806 738.58 162.125 738.756 162.34C738.932 162.548 739.231 162.652 739.654 162.652C739.863 162.652 740.149 162.613 740.514 162.535V164C740.038 164.13 739.576 164.195 739.127 164.195C738.32 164.195 737.711 163.951 737.301 163.463C736.891 162.975 736.686 162.281 736.686 161.383V154.83H734.762V153.434H736.686V150.875H738.492ZM754.068 162.955C753.365 163.782 752.333 164.195 750.973 164.195C749.846 164.195 748.987 163.87 748.395 163.219C747.809 162.561 747.512 161.591 747.506 160.309V153.434H749.312V160.26C749.312 161.861 749.964 162.662 751.266 162.662C752.646 162.662 753.564 162.148 754.02 161.119V153.434H755.826V164H754.107L754.068 162.955ZM764.732 161.197C764.732 160.709 764.547 160.331 764.176 160.064C763.811 159.791 763.17 159.557 762.252 159.361C761.34 159.166 760.615 158.932 760.074 158.658C759.54 158.385 759.143 158.059 758.883 157.682C758.629 157.304 758.502 156.855 758.502 156.334C758.502 155.468 758.867 154.736 759.596 154.137C760.331 153.538 761.269 153.238 762.408 153.238C763.606 153.238 764.576 153.548 765.318 154.166C766.067 154.785 766.441 155.576 766.441 156.539H764.625C764.625 156.044 764.413 155.618 763.99 155.26C763.574 154.902 763.046 154.723 762.408 154.723C761.751 154.723 761.236 154.866 760.865 155.152C760.494 155.439 760.309 155.813 760.309 156.275C760.309 156.712 760.481 157.04 760.826 157.262C761.171 157.483 761.793 157.695 762.691 157.896C763.596 158.098 764.329 158.339 764.889 158.619C765.449 158.899 765.862 159.238 766.129 159.635C766.402 160.025 766.539 160.504 766.539 161.07C766.539 162.014 766.161 162.773 765.406 163.346C764.651 163.912 763.671 164.195 762.467 164.195C761.62 164.195 760.872 164.046 760.221 163.746C759.57 163.447 759.059 163.03 758.688 162.496C758.323 161.956 758.141 161.373 758.141 160.748H759.947C759.98 161.354 760.221 161.835 760.67 162.193C761.126 162.545 761.725 162.721 762.467 162.721C763.15 162.721 763.697 162.584 764.107 162.311C764.524 162.031 764.732 161.66 764.732 161.197ZM775.66 154.713C776.461 153.73 777.503 153.238 778.785 153.238C781.018 153.238 782.145 154.498 782.164 157.018V164H780.357V157.008C780.351 156.246 780.175 155.683 779.83 155.318C779.492 154.954 778.961 154.771 778.238 154.771C777.652 154.771 777.138 154.928 776.695 155.24C776.253 155.553 775.908 155.963 775.66 156.471V164H773.854V149H775.66V154.713ZM789.254 164.195C787.822 164.195 786.656 163.727 785.758 162.789C784.859 161.845 784.41 160.585 784.41 159.01V158.678C784.41 157.63 784.609 156.695 785.006 155.875C785.41 155.048 785.969 154.404 786.686 153.941C787.408 153.473 788.189 153.238 789.029 153.238C790.403 153.238 791.471 153.691 792.232 154.596C792.994 155.501 793.375 156.796 793.375 158.482V159.234H786.217C786.243 160.276 786.546 161.119 787.125 161.764C787.711 162.402 788.453 162.721 789.352 162.721C789.99 162.721 790.53 162.59 790.973 162.33C791.415 162.07 791.803 161.725 792.135 161.295L793.238 162.154C792.353 163.515 791.025 164.195 789.254 164.195ZM789.029 154.723C788.3 154.723 787.688 154.99 787.193 155.523C786.699 156.051 786.393 156.793 786.275 157.75H791.568V157.613C791.516 156.695 791.269 155.986 790.826 155.484C790.383 154.977 789.785 154.723 789.029 154.723ZM797.438 164H795.631V149H797.438V164ZM809.264 158.834C809.264 160.442 808.896 161.738 808.16 162.721C807.424 163.704 806.428 164.195 805.172 164.195C803.889 164.195 802.88 163.788 802.145 162.975V168.062H800.338V153.434H801.988L802.076 154.605C802.812 153.694 803.834 153.238 805.143 153.238C806.412 153.238 807.415 153.717 808.15 154.674C808.893 155.631 809.264 156.962 809.264 158.668V158.834ZM807.457 158.629C807.457 157.438 807.203 156.497 806.695 155.807C806.188 155.117 805.491 154.771 804.605 154.771C803.512 154.771 802.691 155.257 802.145 156.227V161.275C802.685 162.239 803.512 162.721 804.625 162.721C805.491 162.721 806.178 162.379 806.686 161.695C807.2 161.005 807.457 159.983 807.457 158.629ZM819.986 161.354L822.447 153.434H824.381L820.133 165.631C819.475 167.389 818.43 168.268 816.998 168.268L816.656 168.238L815.982 168.111V166.646L816.471 166.686C817.083 166.686 817.558 166.562 817.896 166.314C818.242 166.067 818.525 165.615 818.746 164.957L819.146 163.883L815.377 153.434H817.35L819.986 161.354ZM825.367 158.619C825.367 157.584 825.569 156.653 825.973 155.826C826.383 154.999 826.949 154.361 827.672 153.912C828.401 153.463 829.231 153.238 830.162 153.238C831.601 153.238 832.763 153.736 833.648 154.732C834.54 155.729 834.986 157.053 834.986 158.707V158.834C834.986 159.863 834.788 160.787 834.391 161.607C834 162.421 833.437 163.056 832.701 163.512C831.972 163.967 831.132 164.195 830.182 164.195C828.749 164.195 827.587 163.697 826.695 162.701C825.81 161.705 825.367 160.387 825.367 158.746V158.619ZM827.184 158.834C827.184 160.006 827.454 160.947 827.994 161.656C828.541 162.366 829.27 162.721 830.182 162.721C831.1 162.721 831.829 162.363 832.369 161.646C832.91 160.924 833.18 159.915 833.18 158.619C833.18 157.46 832.903 156.523 832.35 155.807C831.803 155.084 831.074 154.723 830.162 154.723C829.27 154.723 828.551 155.077 828.004 155.787C827.457 156.497 827.184 157.512 827.184 158.834ZM843.775 162.955C843.072 163.782 842.04 164.195 840.68 164.195C839.553 164.195 838.694 163.87 838.102 163.219C837.516 162.561 837.219 161.591 837.213 160.309V153.434H839.02V160.26C839.02 161.861 839.671 162.662 840.973 162.662C842.353 162.662 843.271 162.148 843.727 161.119V153.434H845.533V164H843.814L843.775 162.955ZM852.818 158.629C852.818 156.982 853.199 155.673 853.961 154.703C854.723 153.727 855.732 153.238 856.988 153.238C858.277 153.238 859.283 153.694 860.006 154.605L860.094 153.434H861.744V163.746C861.744 165.113 861.337 166.191 860.523 166.979C859.716 167.766 858.629 168.16 857.262 168.16C856.5 168.16 855.755 167.997 855.025 167.672C854.296 167.346 853.74 166.9 853.355 166.334L854.293 165.25C855.068 166.207 856.015 166.686 857.135 166.686C858.014 166.686 858.697 166.438 859.186 165.943C859.68 165.449 859.928 164.752 859.928 163.854V162.945C859.205 163.779 858.219 164.195 856.969 164.195C855.732 164.195 854.729 163.697 853.961 162.701C853.199 161.705 852.818 160.348 852.818 158.629ZM854.635 158.834C854.635 160.025 854.879 160.963 855.367 161.646C855.855 162.324 856.539 162.662 857.418 162.662C858.557 162.662 859.394 162.145 859.928 161.109V156.285C859.374 155.276 858.544 154.771 857.438 154.771C856.559 154.771 855.872 155.113 855.377 155.797C854.882 156.48 854.635 157.493 854.635 158.834ZM868.863 164.195C867.431 164.195 866.266 163.727 865.367 162.789C864.469 161.845 864.02 160.585 864.02 159.01V158.678C864.02 157.63 864.218 156.695 864.615 155.875C865.019 155.048 865.579 154.404 866.295 153.941C867.018 153.473 867.799 153.238 868.639 153.238C870.012 153.238 871.08 153.691 871.842 154.596C872.604 155.501 872.984 156.796 872.984 158.482V159.234H865.826C865.852 160.276 866.155 161.119 866.734 161.764C867.32 162.402 868.062 162.721 868.961 162.721C869.599 162.721 870.139 162.59 870.582 162.33C871.025 162.07 871.412 161.725 871.744 161.295L872.848 162.154C871.962 163.515 870.634 164.195 868.863 164.195ZM868.639 154.723C867.91 154.723 867.298 154.99 866.803 155.523C866.308 156.051 866.002 156.793 865.885 157.75H871.178V157.613C871.126 156.695 870.878 155.986 870.436 155.484C869.993 154.977 869.394 154.723 868.639 154.723ZM877.535 150.875V153.434H879.508V154.83H877.535V161.383C877.535 161.806 877.623 162.125 877.799 162.34C877.975 162.548 878.274 162.652 878.697 162.652C878.906 162.652 879.192 162.613 879.557 162.535V164C879.081 164.13 878.619 164.195 878.17 164.195C877.363 164.195 876.754 163.951 876.344 163.463C875.934 162.975 875.729 162.281 875.729 161.383V154.83H873.805V153.434H875.729V150.875H877.535ZM893.111 164C893.007 163.792 892.923 163.421 892.857 162.887C892.018 163.759 891.015 164.195 889.85 164.195C888.808 164.195 887.952 163.902 887.281 163.316C886.617 162.724 886.285 161.975 886.285 161.07C886.285 159.97 886.702 159.117 887.535 158.512C888.375 157.9 889.553 157.594 891.07 157.594H892.828V156.764C892.828 156.132 892.639 155.631 892.262 155.26C891.884 154.882 891.327 154.693 890.592 154.693C889.947 154.693 889.407 154.856 888.971 155.182C888.535 155.507 888.316 155.901 888.316 156.363H886.5C886.5 155.836 886.686 155.328 887.057 154.84C887.434 154.345 887.942 153.954 888.58 153.668C889.225 153.382 889.931 153.238 890.699 153.238C891.917 153.238 892.87 153.544 893.561 154.156C894.251 154.762 894.609 155.598 894.635 156.666V161.529C894.635 162.499 894.758 163.271 895.006 163.844V164H893.111ZM890.113 162.623C890.68 162.623 891.217 162.477 891.725 162.184C892.232 161.891 892.6 161.51 892.828 161.041V158.873H891.412C889.199 158.873 888.092 159.521 888.092 160.816C888.092 161.383 888.281 161.826 888.658 162.145C889.036 162.464 889.521 162.623 890.113 162.623ZM899.43 164H897.623V149H899.43V164ZM904.293 164H902.486V149H904.293V164ZM915.611 161.354L918.072 153.434H920.006L915.758 165.631C915.1 167.389 914.055 168.268 912.623 168.268L912.281 168.238L911.607 168.111V166.646L912.096 166.686C912.708 166.686 913.183 166.562 913.521 166.314C913.867 166.067 914.15 165.615 914.371 164.957L914.771 163.883L911.002 153.434H912.975L915.611 161.354ZM920.992 158.619C920.992 157.584 921.194 156.653 921.598 155.826C922.008 154.999 922.574 154.361 923.297 153.912C924.026 153.463 924.856 153.238 925.787 153.238C927.226 153.238 928.388 153.736 929.273 154.732C930.165 155.729 930.611 157.053 930.611 158.707V158.834C930.611 159.863 930.413 160.787 930.016 161.607C929.625 162.421 929.062 163.056 928.326 163.512C927.597 163.967 926.757 164.195 925.807 164.195C924.374 164.195 923.212 163.697 922.32 162.701C921.435 161.705 920.992 160.387 920.992 158.746V158.619ZM922.809 158.834C922.809 160.006 923.079 160.947 923.619 161.656C924.166 162.366 924.895 162.721 925.807 162.721C926.725 162.721 927.454 162.363 927.994 161.646C928.535 160.924 928.805 159.915 928.805 158.619C928.805 157.46 928.528 156.523 927.975 155.807C927.428 155.084 926.699 154.723 925.787 154.723C924.895 154.723 924.176 155.077 923.629 155.787C923.082 156.497 922.809 157.512 922.809 158.834ZM939.4 162.955C938.697 163.782 937.665 164.195 936.305 164.195C935.178 164.195 934.319 163.87 933.727 163.219C933.141 162.561 932.844 161.591 932.838 160.309V153.434H934.645V160.26C934.645 161.861 935.296 162.662 936.598 162.662C937.978 162.662 938.896 162.148 939.352 161.119V153.434H941.158V164H939.439L939.4 162.955ZM950.582 153.434L950.641 154.762C951.448 153.746 952.503 153.238 953.805 153.238C956.038 153.238 957.164 154.498 957.184 157.018V164H955.377V157.008C955.37 156.246 955.195 155.683 954.85 155.318C954.511 154.954 953.98 154.771 953.258 154.771C952.672 154.771 952.158 154.928 951.715 155.24C951.272 155.553 950.927 155.963 950.68 156.471V164H948.873V153.434H950.582ZM964.293 164.195C962.861 164.195 961.695 163.727 960.797 162.789C959.898 161.845 959.449 160.585 959.449 159.01V158.678C959.449 157.63 959.648 156.695 960.045 155.875C960.449 155.048 961.008 154.404 961.725 153.941C962.447 153.473 963.229 153.238 964.068 153.238C965.442 153.238 966.51 153.691 967.271 154.596C968.033 155.501 968.414 156.796 968.414 158.482V159.234H961.256C961.282 160.276 961.585 161.119 962.164 161.764C962.75 162.402 963.492 162.721 964.391 162.721C965.029 162.721 965.569 162.59 966.012 162.33C966.454 162.07 966.842 161.725 967.174 161.295L968.277 162.154C967.392 163.515 966.064 164.195 964.293 164.195ZM964.068 154.723C963.339 154.723 962.727 154.99 962.232 155.523C961.738 156.051 961.432 156.793 961.314 157.75H966.607V157.613C966.555 156.695 966.308 155.986 965.865 155.484C965.423 154.977 964.824 154.723 964.068 154.723ZM974.898 164.195C973.466 164.195 972.301 163.727 971.402 162.789C970.504 161.845 970.055 160.585 970.055 159.01V158.678C970.055 157.63 970.253 156.695 970.65 155.875C971.054 155.048 971.614 154.404 972.33 153.941C973.053 153.473 973.834 153.238 974.674 153.238C976.048 153.238 977.115 153.691 977.877 154.596C978.639 155.501 979.02 156.796 979.02 158.482V159.234H971.861C971.887 160.276 972.19 161.119 972.77 161.764C973.355 162.402 974.098 162.721 974.996 162.721C975.634 162.721 976.174 162.59 976.617 162.33C977.06 162.07 977.447 161.725 977.779 161.295L978.883 162.154C977.997 163.515 976.669 164.195 974.898 164.195ZM974.674 154.723C973.945 154.723 973.333 154.99 972.838 155.523C972.343 156.051 972.037 156.793 971.92 157.75H977.213V157.613C977.161 156.695 976.913 155.986 976.471 155.484C976.028 154.977 975.429 154.723 974.674 154.723ZM980.68 158.629C980.68 157.008 981.064 155.706 981.832 154.723C982.6 153.733 983.606 153.238 984.85 153.238C986.087 153.238 987.066 153.661 987.789 154.508V149H989.596V164H987.936L987.848 162.867C987.125 163.753 986.119 164.195 984.83 164.195C983.606 164.195 982.607 163.694 981.832 162.691C981.064 161.689 980.68 160.38 980.68 158.766V158.629ZM982.486 158.834C982.486 160.032 982.734 160.969 983.229 161.646C983.723 162.324 984.407 162.662 985.279 162.662C986.425 162.662 987.262 162.148 987.789 161.119V156.266C987.249 155.27 986.419 154.771 985.299 154.771C984.413 154.771 983.723 155.113 983.229 155.797C982.734 156.48 982.486 157.493 982.486 158.834ZM992.447 163.053C992.447 162.74 992.538 162.48 992.721 162.271C992.91 162.063 993.189 161.959 993.561 161.959C993.932 161.959 994.212 162.063 994.4 162.271C994.596 162.48 994.693 162.74 994.693 163.053C994.693 163.352 994.596 163.603 994.4 163.805C994.212 164.007 993.932 164.107 993.561 164.107C993.189 164.107 992.91 164.007 992.721 163.805C992.538 163.603 992.447 163.352 992.447 163.053Z" fill="white"/>
</svg>
