<svg width="1440" height="412" viewBox="0 0 1440 412" fill="none" xmlns="http://www.w3.org/2000/svg">
<rect width="1440" height="309" fill="#9F2884"/>
<path d="M363.314 79.7969L367.142 59.5625H372.982L366.673 88H360.775L356.146 68.9766L351.517 88H345.619L339.31 59.5625H345.15L348.998 79.7578L353.685 59.5625H358.646L363.314 79.7969ZM382.102 69.1719C383.6 67.375 385.481 66.4766 387.747 66.4766C392.33 66.4766 394.654 69.1393 394.72 74.4648V88H389.075V74.6211C389.075 73.4102 388.815 72.5182 388.294 71.9453C387.773 71.3594 386.907 71.0664 385.696 71.0664C384.042 71.0664 382.845 71.7044 382.102 72.9805V88H376.458V58H382.102V69.1719ZM412.023 88C411.763 87.4922 411.574 86.8607 411.457 86.1055C410.09 87.6289 408.312 88.3906 406.125 88.3906C404.055 88.3906 402.336 87.7917 400.969 86.5938C399.615 85.3958 398.938 83.8854 398.938 82.0625C398.938 79.8229 399.764 78.1042 401.418 76.9062C403.085 75.7083 405.487 75.1029 408.625 75.0898H411.223V73.8789C411.223 72.9023 410.969 72.1211 410.461 71.5352C409.966 70.9492 409.178 70.6562 408.098 70.6562C407.147 70.6562 406.398 70.8841 405.852 71.3398C405.318 71.7956 405.051 72.4206 405.051 73.2148H399.406C399.406 71.9909 399.784 70.8581 400.539 69.8164C401.294 68.7747 402.362 67.9609 403.742 67.375C405.122 66.776 406.672 66.4766 408.391 66.4766C410.995 66.4766 413.059 67.1341 414.582 68.4492C416.118 69.7513 416.887 71.5872 416.887 73.957V83.1172C416.9 85.1224 417.18 86.6393 417.727 87.668V88H412.023ZM407.355 84.0742C408.189 84.0742 408.957 83.8919 409.66 83.5273C410.363 83.1497 410.884 82.6484 411.223 82.0234V78.3906H409.113C406.288 78.3906 404.784 79.3672 404.602 81.3203L404.582 81.6523C404.582 82.3555 404.829 82.9349 405.324 83.3906C405.819 83.8464 406.496 84.0742 407.355 84.0742ZM428.78 61.6719V66.8672H432.394V71.0078H428.78V81.5547C428.78 82.3359 428.93 82.8958 429.23 83.2344C429.529 83.5729 430.102 83.7422 430.948 83.7422C431.573 83.7422 432.127 83.6966 432.609 83.6055V87.8828C431.502 88.2214 430.362 88.3906 429.191 88.3906C425.232 88.3906 423.214 86.3919 423.136 82.3945V71.0078H420.05V66.8672H423.136V61.6719H428.78ZM437.959 68.293L435.303 66.75C436.423 64.9922 437.002 63.1758 437.041 61.3008V58H441.534V61.0273C441.534 62.1992 441.208 63.4688 440.557 64.8359C439.906 66.2031 439.04 67.3555 437.959 68.293ZM457.763 82.1602C457.763 81.4701 457.418 80.9297 456.728 80.5391C456.051 80.1354 454.957 79.7773 453.447 79.4648C448.421 78.4102 445.908 76.2747 445.908 73.0586C445.908 71.1836 446.683 69.6211 448.232 68.3711C449.795 67.1081 451.832 66.4766 454.345 66.4766C457.028 66.4766 459.17 67.1081 460.771 68.3711C462.386 69.6341 463.193 71.2747 463.193 73.293H457.548C457.548 72.4857 457.288 71.8216 456.767 71.3008C456.246 70.7669 455.433 70.5 454.326 70.5C453.375 70.5 452.64 70.7148 452.119 71.1445C451.598 71.5742 451.337 72.1211 451.337 72.7852C451.337 73.4102 451.63 73.918 452.216 74.3086C452.815 74.6862 453.818 75.0182 455.224 75.3047C456.63 75.5781 457.815 75.8906 458.779 76.2422C461.761 77.3359 463.252 79.2305 463.252 81.9258C463.252 83.8529 462.425 85.4154 460.771 86.6133C459.117 87.7982 456.982 88.3906 454.365 88.3906C452.594 88.3906 451.018 88.0781 449.638 87.4531C448.271 86.8151 447.197 85.9492 446.416 84.8555C445.634 83.7487 445.244 82.5573 445.244 81.2812H450.595C450.647 82.2839 451.018 83.0521 451.709 83.5859C452.399 84.1198 453.323 84.3867 454.482 84.3867C455.563 84.3867 456.377 84.1849 456.923 83.7812C457.483 83.3646 457.763 82.8242 457.763 82.1602ZM486.355 80.0117L490.262 66.8672H496.316L487.82 91.2812L487.352 92.3945C486.089 95.1549 484.005 96.5352 481.102 96.5352C480.281 96.5352 479.448 96.4115 478.602 96.1641V91.8867L479.461 91.9062C480.529 91.9062 481.323 91.7435 481.844 91.418C482.378 91.0924 482.794 90.5521 483.094 89.7969L483.758 88.0586L476.355 66.8672H482.43L486.355 80.0117ZM498.464 77.2383C498.464 75.1419 498.868 73.2734 499.675 71.6328C500.482 69.9922 501.641 68.7227 503.152 67.8242C504.675 66.9258 506.439 66.4766 508.445 66.4766C511.296 66.4766 513.62 67.349 515.417 69.0938C517.227 70.8385 518.236 73.2083 518.445 76.2031L518.484 77.6484C518.484 80.8906 517.579 83.4948 515.769 85.4609C513.959 87.4141 511.53 88.3906 508.484 88.3906C505.437 88.3906 503.002 87.4141 501.179 85.4609C499.369 83.5078 498.464 80.8516 498.464 77.4922V77.2383ZM504.109 77.6484C504.109 79.6536 504.486 81.1901 505.241 82.2578C505.997 83.3125 507.077 83.8398 508.484 83.8398C509.851 83.8398 510.918 83.319 511.687 82.2773C512.455 81.2227 512.839 79.543 512.839 77.2383C512.839 75.2721 512.455 73.7487 511.687 72.668C510.918 71.5872 509.838 71.0469 508.445 71.0469C507.064 71.0469 505.997 71.5872 505.241 72.668C504.486 73.7357 504.109 75.3958 504.109 77.6484ZM535.416 85.8516C534.023 87.5443 532.096 88.3906 529.635 88.3906C527.37 88.3906 525.638 87.7396 524.44 86.4375C523.255 85.1354 522.649 83.2279 522.623 80.7148V66.8672H528.268V80.5195C528.268 82.7201 529.271 83.8203 531.276 83.8203C533.19 83.8203 534.505 83.1562 535.221 81.8281V66.8672H540.885V88H535.573L535.416 85.8516ZM557.818 72.1602C557.05 72.056 556.373 72.0039 555.787 72.0039C553.651 72.0039 552.252 72.7266 551.587 74.1719V88H545.943V66.8672H551.275L551.431 69.3867C552.564 67.4466 554.133 66.4766 556.138 66.4766C556.763 66.4766 557.349 66.5612 557.896 66.7305L557.818 72.1602ZM577.309 66.8672L577.484 69.3086C578.995 67.4206 581.02 66.4766 583.559 66.4766C585.798 66.4766 587.465 67.1341 588.559 68.4492C589.652 69.7643 590.212 71.7305 590.238 74.3477V88H584.594V74.4844C584.594 73.2865 584.333 72.4206 583.812 71.8867C583.292 71.3398 582.426 71.0664 581.215 71.0664C579.626 71.0664 578.435 71.7435 577.641 73.0977V88H571.996V66.8672H577.309ZM605.062 88.3906C601.963 88.3906 599.437 87.4401 597.484 85.5391C595.543 83.638 594.573 81.1055 594.573 77.9414V77.3945C594.573 75.2721 594.984 73.3776 595.804 71.7109C596.624 70.0312 597.783 68.7422 599.28 67.8438C600.791 66.9323 602.51 66.4766 604.437 66.4766C607.327 66.4766 609.599 67.388 611.253 69.2109C612.92 71.0339 613.753 73.6185 613.753 76.9648V79.2695H600.296C600.478 80.6497 601.025 81.7565 601.937 82.5898C602.861 83.4232 604.027 83.8398 605.433 83.8398C607.607 83.8398 609.306 83.0521 610.53 81.4766L613.304 84.582C612.458 85.7799 611.312 86.7174 609.866 87.3945C608.421 88.0586 606.82 88.3906 605.062 88.3906ZM604.417 71.0469C603.297 71.0469 602.386 71.4245 601.683 72.1797C600.993 72.9349 600.55 74.0156 600.355 75.4219H608.206V74.9727C608.18 73.7227 607.842 72.7591 607.191 72.082C606.54 71.3919 605.615 71.0469 604.417 71.0469ZM625.823 73.1758L629.377 66.8672H635.413L629.397 77.2188L635.666 88H629.612L625.842 81.3594L622.092 88H616.018L622.288 77.2188L616.291 66.8672H622.346L625.823 73.1758ZM645.685 61.6719V66.8672H649.298V71.0078H645.685V81.5547C645.685 82.3359 645.835 82.8958 646.134 83.2344C646.434 83.5729 647.007 83.7422 647.853 83.7422C648.478 83.7422 649.032 83.6966 649.513 83.6055V87.8828C648.407 88.2214 647.267 88.3906 646.095 88.3906C642.137 88.3906 640.119 86.3919 640.041 82.3945V71.0078H636.955V66.8672H640.041V61.6719H645.685ZM676.25 88C675.99 87.4922 675.801 86.8607 675.684 86.1055C674.316 87.6289 672.539 88.3906 670.352 88.3906C668.281 88.3906 666.562 87.7917 665.195 86.5938C663.841 85.3958 663.164 83.8854 663.164 82.0625C663.164 79.8229 663.991 78.1042 665.645 76.9062C667.311 75.7083 669.714 75.1029 672.852 75.0898H675.449V73.8789C675.449 72.9023 675.195 72.1211 674.688 71.5352C674.193 70.9492 673.405 70.6562 672.324 70.6562C671.374 70.6562 670.625 70.8841 670.078 71.3398C669.544 71.7956 669.277 72.4206 669.277 73.2148H663.633C663.633 71.9909 664.01 70.8581 664.766 69.8164C665.521 68.7747 666.589 67.9609 667.969 67.375C669.349 66.776 670.898 66.4766 672.617 66.4766C675.221 66.4766 677.285 67.1341 678.809 68.4492C680.345 69.7513 681.113 71.5872 681.113 73.957V83.1172C681.126 85.1224 681.406 86.6393 681.953 87.668V88H676.25ZM671.582 84.0742C672.415 84.0742 673.184 83.8919 673.887 83.5273C674.59 83.1497 675.111 82.6484 675.449 82.0234V78.3906H673.34C670.514 78.3906 669.01 79.3672 668.828 81.3203L668.809 81.6523C668.809 82.3555 669.056 82.9349 669.551 83.3906C670.046 83.8464 670.723 84.0742 671.582 84.0742ZM691.445 66.8672L691.62 69.3086C693.131 67.4206 695.155 66.4766 697.695 66.4766C699.934 66.4766 701.601 67.1341 702.695 68.4492C703.788 69.7643 704.348 71.7305 704.374 74.3477V88H698.73V74.4844C698.73 73.2865 698.469 72.4206 697.948 71.8867C697.428 71.3398 696.562 71.0664 695.351 71.0664C693.762 71.0664 692.571 71.7435 691.777 73.0977V88H686.132V66.8672H691.445ZM715.428 88H709.764V66.8672H715.428V88ZM709.432 61.3984C709.432 60.5521 709.712 59.8555 710.272 59.3086C710.845 58.7617 711.62 58.4883 712.596 58.4883C713.56 58.4883 714.328 58.7617 714.901 59.3086C715.474 59.8555 715.76 60.5521 715.76 61.3984C715.76 62.2578 715.467 62.9609 714.881 63.5078C714.308 64.0547 713.547 64.3281 712.596 64.3281C711.646 64.3281 710.877 64.0547 710.291 63.5078C709.718 62.9609 709.432 62.2578 709.432 61.3984ZM726.189 66.8672L726.365 69.2305C727.862 67.3945 729.887 66.4766 732.439 66.4766C735.16 66.4766 737.029 67.5508 738.045 69.6992C739.529 67.5508 741.645 66.4766 744.392 66.4766C746.684 66.4766 748.39 67.1471 749.509 68.4883C750.629 69.8164 751.189 71.8216 751.189 74.5039V88H745.525V74.5234C745.525 73.3255 745.291 72.4531 744.822 71.9062C744.353 71.3464 743.526 71.0664 742.341 71.0664C740.649 71.0664 739.477 71.8737 738.826 73.4883L738.845 88H733.201V74.543C733.201 73.319 732.96 72.4336 732.478 71.8867C731.996 71.3398 731.176 71.0664 730.017 71.0664C728.416 71.0664 727.257 71.7305 726.541 73.0586V88H720.896V66.8672H726.189ZM768.591 88C768.33 87.4922 768.141 86.8607 768.024 86.1055C766.657 87.6289 764.88 88.3906 762.692 88.3906C760.622 88.3906 758.903 87.7917 757.536 86.5938C756.182 85.3958 755.505 83.8854 755.505 82.0625C755.505 79.8229 756.331 78.1042 757.985 76.9062C759.652 75.7083 762.054 75.1029 765.192 75.0898H767.79V73.8789C767.79 72.9023 767.536 72.1211 767.028 71.5352C766.533 70.9492 765.746 70.6562 764.665 70.6562C763.714 70.6562 762.966 70.8841 762.419 71.3398C761.885 71.7956 761.618 72.4206 761.618 73.2148H755.973C755.973 71.9909 756.351 70.8581 757.106 69.8164C757.861 68.7747 758.929 67.9609 760.309 67.375C761.69 66.776 763.239 66.4766 764.958 66.4766C767.562 66.4766 769.626 67.1341 771.149 68.4492C772.686 69.7513 773.454 71.5872 773.454 73.957V83.1172C773.467 85.1224 773.747 86.6393 774.294 87.668V88H768.591ZM763.923 84.0742C764.756 84.0742 765.524 83.8919 766.227 83.5273C766.93 83.1497 767.451 82.6484 767.79 82.0234V78.3906H765.68C762.855 78.3906 761.351 79.3672 761.169 81.3203L761.149 81.6523C761.149 82.3555 761.397 82.9349 761.891 83.3906C762.386 83.8464 763.063 84.0742 763.923 84.0742ZM784.547 88H778.883V58H784.547V88ZM819.155 80.3242L821.928 66.8672H827.377L821.987 88H817.26L813.256 74.6992L809.252 88H804.545L799.155 66.8672H804.604L807.358 80.3047L811.225 66.8672H815.307L819.155 80.3242ZM840.716 88.3906C837.617 88.3906 835.091 87.4401 833.138 85.5391C831.198 83.638 830.228 81.1055 830.228 77.9414V77.3945C830.228 75.2721 830.638 73.3776 831.459 71.7109C832.279 70.0312 833.438 68.7422 834.935 67.8438C836.446 66.9323 838.164 66.4766 840.091 66.4766C842.982 66.4766 845.254 67.388 846.908 69.2109C848.575 71.0339 849.408 73.6185 849.408 76.9648V79.2695H835.951C836.133 80.6497 836.68 81.7565 837.591 82.5898C838.516 83.4232 839.681 83.8398 841.088 83.8398C843.262 83.8398 844.961 83.0521 846.185 81.4766L848.959 84.582C848.112 85.7799 846.966 86.7174 845.521 87.3945C844.076 88.0586 842.474 88.3906 840.716 88.3906ZM840.072 71.0469C838.952 71.0469 838.041 71.4245 837.338 72.1797C836.647 72.9349 836.205 74.0156 836.009 75.4219H843.861V74.9727C843.835 73.7227 843.496 72.7591 842.845 72.082C842.194 71.3919 841.27 71.0469 840.072 71.0469ZM859.387 88H853.723V58H859.387V88ZM866.398 88V71.0078H863.254V66.8672H866.398V65.0703C866.398 62.7005 867.076 60.8646 868.43 59.5625C869.797 58.2474 871.704 57.5898 874.152 57.5898C874.934 57.5898 875.891 57.7201 877.023 57.9805L876.965 62.3555C876.496 62.2383 875.923 62.1797 875.246 62.1797C873.124 62.1797 872.062 63.1758 872.062 65.168V66.8672H876.262V71.0078H872.062V88H866.398ZM892.238 88C891.977 87.4922 891.788 86.8607 891.671 86.1055C890.304 87.6289 888.527 88.3906 886.339 88.3906C884.269 88.3906 882.55 87.7917 881.183 86.5938C879.829 85.3958 879.152 83.8854 879.152 82.0625C879.152 79.8229 879.978 78.1042 881.632 76.9062C883.299 75.7083 885.701 75.1029 888.839 75.0898H891.437V73.8789C891.437 72.9023 891.183 72.1211 890.675 71.5352C890.18 70.9492 889.392 70.6562 888.312 70.6562C887.361 70.6562 886.613 70.8841 886.066 71.3398C885.532 71.7956 885.265 72.4206 885.265 73.2148H879.62C879.62 71.9909 879.998 70.8581 880.753 69.8164C881.508 68.7747 882.576 67.9609 883.956 67.375C885.337 66.776 886.886 66.4766 888.605 66.4766C891.209 66.4766 893.273 67.1341 894.796 68.4492C896.333 69.7513 897.101 71.5872 897.101 73.957V83.1172C897.114 85.1224 897.394 86.6393 897.941 87.668V88H892.238ZM887.57 84.0742C888.403 84.0742 889.171 83.8919 889.874 83.5273C890.577 83.1497 891.098 82.6484 891.437 82.0234V78.3906H889.327C886.502 78.3906 884.998 79.3672 884.816 81.3203L884.796 81.6523C884.796 82.3555 885.044 82.9349 885.538 83.3906C886.033 83.8464 886.71 84.0742 887.57 84.0742ZM914.112 72.1602C913.343 72.056 912.666 72.0039 912.08 72.0039C909.945 72.0039 908.545 72.7266 907.881 74.1719V88H902.237V66.8672H907.569L907.725 69.3867C908.858 67.4466 910.427 66.4766 912.432 66.4766C913.057 66.4766 913.643 66.5612 914.19 66.7305L914.112 72.1602ZM927.373 88.3906C924.274 88.3906 921.748 87.4401 919.795 85.5391C917.854 83.638 916.884 81.1055 916.884 77.9414V77.3945C916.884 75.2721 917.295 73.3776 918.115 71.7109C918.935 70.0312 920.094 68.7422 921.591 67.8438C923.102 66.9323 924.821 66.4766 926.748 66.4766C929.638 66.4766 931.91 67.388 933.564 69.2109C935.231 71.0339 936.064 73.6185 936.064 76.9648V79.2695H922.607C922.789 80.6497 923.336 81.7565 924.248 82.5898C925.172 83.4232 926.338 83.8398 927.744 83.8398C929.918 83.8398 931.617 83.0521 932.841 81.4766L935.615 84.582C934.769 85.7799 933.623 86.7174 932.177 87.3945C930.732 88.0586 929.13 88.3906 927.373 88.3906ZM926.728 71.0469C925.608 71.0469 924.697 71.4245 923.994 72.1797C923.304 72.9349 922.861 74.0156 922.666 75.4219H930.517V74.9727C930.491 73.7227 930.153 72.7591 929.502 72.082C928.851 71.3919 927.926 71.0469 926.728 71.0469ZM969.871 77.6289C969.871 80.8841 969.129 83.4948 967.645 85.4609C966.173 87.4141 964.181 88.3906 961.668 88.3906C959.533 88.3906 957.807 87.6484 956.492 86.1641V96.125H950.848V66.8672H956.082L956.277 68.9375C957.645 67.2969 959.428 66.4766 961.629 66.4766C964.233 66.4766 966.258 67.4401 967.703 69.3672C969.148 71.2943 969.871 73.9505 969.871 77.3359V77.6289ZM964.227 77.2188C964.227 75.2526 963.875 73.7357 963.172 72.668C962.482 71.6003 961.473 71.0664 960.145 71.0664C958.374 71.0664 957.156 71.7435 956.492 73.0977V81.75C957.182 83.1432 958.413 83.8398 960.184 83.8398C962.879 83.8398 964.227 81.6328 964.227 77.2188ZM986.062 72.1602C985.294 72.056 984.616 72.0039 984.031 72.0039C981.895 72.0039 980.495 72.7266 979.831 74.1719V88H974.187V66.8672H979.519L979.675 69.3867C980.808 67.4466 982.377 66.4766 984.382 66.4766C985.007 66.4766 985.593 66.5612 986.14 66.7305L986.062 72.1602ZM988.717 77.2383C988.717 75.1419 989.121 73.2734 989.928 71.6328C990.735 69.9922 991.894 68.7227 993.405 67.8242C994.928 66.9258 996.692 66.4766 998.698 66.4766C1001.55 66.4766 1003.87 67.349 1005.67 69.0938C1007.48 70.8385 1008.49 73.2083 1008.7 76.2031L1008.74 77.6484C1008.74 80.8906 1007.83 83.4948 1006.02 85.4609C1004.21 87.4141 1001.78 88.3906 998.737 88.3906C995.69 88.3906 993.255 87.4141 991.432 85.4609C989.622 83.5078 988.717 80.8516 988.717 77.4922V77.2383ZM994.362 77.6484C994.362 79.6536 994.739 81.1901 995.495 82.2578C996.25 83.3125 997.33 83.8398 998.737 83.8398C1000.1 83.8398 1001.17 83.319 1001.94 82.2773C1002.71 81.2227 1003.09 79.543 1003.09 77.2383C1003.09 75.2721 1002.71 73.7487 1001.94 72.668C1001.17 71.5872 1000.09 71.0469 998.698 71.0469C997.317 71.0469 996.25 71.5872 995.495 72.668C994.739 73.7357 994.362 75.3958 994.362 77.6484ZM1018.99 66.8672V89.1523C1018.99 91.4831 1018.37 93.293 1017.13 94.582C1015.9 95.8841 1014.11 96.5352 1011.78 96.5352C1010.81 96.5352 1009.88 96.4245 1008.99 96.2031V91.7305C1009.67 91.8477 1010.26 91.9062 1010.77 91.9062C1012.47 91.9062 1013.33 91.0013 1013.33 89.1914V66.8672H1018.99ZM1012.88 61.3984C1012.88 60.5521 1013.16 59.8555 1013.72 59.3086C1014.29 58.7617 1015.06 58.4883 1016.04 58.4883C1017.02 58.4883 1017.79 58.7617 1018.35 59.3086C1018.92 59.8555 1019.2 60.5521 1019.2 61.3984C1019.2 62.2578 1018.91 62.9609 1018.33 63.5078C1017.75 64.0547 1016.99 64.3281 1016.04 64.3281C1015.09 64.3281 1014.32 64.0547 1013.74 63.5078C1013.16 62.9609 1012.88 62.2578 1012.88 61.3984ZM1033.93 88.3906C1030.83 88.3906 1028.31 87.4401 1026.35 85.5391C1024.41 83.638 1023.44 81.1055 1023.44 77.9414V77.3945C1023.44 75.2721 1023.85 73.3776 1024.67 71.7109C1025.49 70.0312 1026.65 68.7422 1028.15 67.8438C1029.66 66.9323 1031.38 66.4766 1033.31 66.4766C1036.2 66.4766 1038.47 67.388 1040.12 69.2109C1041.79 71.0339 1042.62 73.6185 1042.62 76.9648V79.2695H1029.16C1029.35 80.6497 1029.89 81.7565 1030.81 82.5898C1031.73 83.4232 1032.9 83.8398 1034.3 83.8398C1036.48 83.8398 1038.18 83.0521 1039.4 81.4766L1042.17 84.582C1041.33 85.7799 1040.18 86.7174 1038.74 87.3945C1037.29 88.0586 1035.69 88.3906 1033.93 88.3906ZM1033.29 71.0469C1032.17 71.0469 1031.25 71.4245 1030.55 72.1797C1029.86 72.9349 1029.42 74.0156 1029.22 75.4219H1037.07V74.9727C1037.05 73.7227 1036.71 72.7591 1036.06 72.082C1035.41 71.3919 1034.48 71.0469 1033.29 71.0469ZM1055.43 83.8398C1056.48 83.8398 1057.32 83.5534 1057.97 82.9805C1058.62 82.4076 1058.96 81.6458 1058.99 80.6953H1064.28C1064.27 82.1276 1063.88 83.4427 1063.11 84.6406C1062.34 85.8255 1061.29 86.75 1059.95 87.4141C1058.62 88.0651 1057.15 88.3906 1055.53 88.3906C1052.51 88.3906 1050.13 87.4336 1048.38 85.5195C1046.64 83.5924 1045.77 80.9362 1045.77 77.5508V77.1797C1045.77 73.9245 1046.63 71.3268 1048.36 69.3867C1050.1 67.4466 1052.47 66.4766 1055.49 66.4766C1058.14 66.4766 1060.25 67.2318 1061.84 68.7422C1063.44 70.2396 1064.26 72.2383 1064.28 74.7383H1058.99C1058.96 73.6445 1058.62 72.7591 1057.97 72.082C1057.32 71.3919 1056.46 71.0469 1055.39 71.0469C1054.08 71.0469 1053.08 71.5286 1052.41 72.4922C1051.74 73.4427 1051.41 74.9922 1051.41 77.1406V77.7266C1051.41 79.901 1051.74 81.4635 1052.41 82.4141C1053.07 83.3646 1054.08 83.8398 1055.43 83.8398ZM1075.06 61.6719V66.8672H1078.68V71.0078H1075.06V81.5547C1075.06 82.3359 1075.21 82.8958 1075.51 83.2344C1075.81 83.5729 1076.38 83.7422 1077.23 83.7422C1077.85 83.7422 1078.41 83.6966 1078.89 83.6055V87.8828C1077.78 88.2214 1076.64 88.3906 1075.47 88.3906C1071.51 88.3906 1069.5 86.3919 1069.42 82.3945V71.0078H1066.33V66.8672H1069.42V61.6719H1075.06ZM1087.23 79.2695C1087.23 77.4466 1087.45 75.9948 1087.89 74.9141C1088.34 73.8333 1089.14 72.7721 1090.31 71.7305C1091.5 70.6758 1092.29 69.8229 1092.68 69.1719C1093.07 68.5078 1093.26 67.8112 1093.26 67.082C1093.26 64.8815 1092.25 63.7812 1090.22 63.7812C1089.25 63.7812 1088.48 64.0807 1087.89 64.6797C1087.32 65.2656 1087.02 66.0794 1086.99 67.1211H1081.33C1081.36 64.6341 1082.16 62.6875 1083.73 61.2812C1085.32 59.875 1087.48 59.1719 1090.22 59.1719C1092.98 59.1719 1095.12 59.8424 1096.64 61.1836C1098.17 62.5117 1098.93 64.3932 1098.93 66.8281C1098.93 67.9349 1098.68 68.9831 1098.19 69.9727C1097.69 70.9492 1096.83 72.0365 1095.59 73.2344L1094.01 74.7383C1093.02 75.6888 1092.45 76.8021 1092.31 78.0781L1092.23 79.2695H1087.23ZM1086.66 85.2656C1086.66 84.3932 1086.96 83.6771 1087.54 83.1172C1088.14 82.5443 1088.9 82.2578 1089.83 82.2578C1090.75 82.2578 1091.51 82.5443 1092.09 83.1172C1092.69 83.6771 1092.99 84.3932 1092.99 85.2656C1092.99 86.125 1092.7 86.8346 1092.11 87.3945C1091.54 87.9544 1090.78 88.2344 1089.83 88.2344C1088.88 88.2344 1088.11 87.9544 1087.52 87.3945C1086.95 86.8346 1086.66 86.125 1086.66 85.2656Z" fill="white"/>
<path d="M399.49 139.135C399.008 139.825 398.335 140.342 397.469 140.688C396.609 141.026 395.607 141.195 394.461 141.195C393.302 141.195 392.273 140.925 391.375 140.385C390.477 139.838 389.78 139.063 389.285 138.061C388.797 137.058 388.546 135.896 388.533 134.574V133.334C388.533 131.192 389.031 129.532 390.027 128.354C391.03 127.175 392.436 126.586 394.246 126.586C395.73 126.586 396.925 126.967 397.83 127.729C398.735 128.484 399.288 129.558 399.49 130.951H397.615C397.264 129.07 396.144 128.129 394.256 128.129C392.999 128.129 392.046 128.572 391.395 129.457C390.75 130.336 390.424 131.612 390.418 133.285V134.447C390.418 136.042 390.783 137.312 391.512 138.256C392.241 139.193 393.227 139.662 394.471 139.662C395.174 139.662 395.789 139.584 396.316 139.428C396.844 139.271 397.28 139.008 397.625 138.637V135.443H394.334V133.92H399.49V139.135ZM406.727 141.195C405.294 141.195 404.129 140.727 403.23 139.789C402.332 138.845 401.883 137.585 401.883 136.01V135.678C401.883 134.63 402.081 133.695 402.479 132.875C402.882 132.048 403.442 131.404 404.158 130.941C404.881 130.473 405.662 130.238 406.502 130.238C407.876 130.238 408.943 130.691 409.705 131.596C410.467 132.501 410.848 133.796 410.848 135.482V136.234H403.689C403.715 137.276 404.018 138.119 404.598 138.764C405.184 139.402 405.926 139.721 406.824 139.721C407.462 139.721 408.003 139.59 408.445 139.33C408.888 139.07 409.275 138.725 409.607 138.295L410.711 139.154C409.826 140.515 408.497 141.195 406.727 141.195ZM406.502 131.723C405.773 131.723 405.161 131.99 404.666 132.523C404.171 133.051 403.865 133.793 403.748 134.75H409.041V134.613C408.989 133.695 408.742 132.986 408.299 132.484C407.856 131.977 407.257 131.723 406.502 131.723ZM415.398 127.875V130.434H417.371V131.83H415.398V138.383C415.398 138.806 415.486 139.125 415.662 139.34C415.838 139.548 416.137 139.652 416.561 139.652C416.769 139.652 417.055 139.613 417.42 139.535V141C416.945 141.13 416.482 141.195 416.033 141.195C415.226 141.195 414.617 140.951 414.207 140.463C413.797 139.975 413.592 139.281 413.592 138.383V131.83H411.668V130.434H413.592V127.875H415.398ZM430.975 141C430.87 140.792 430.786 140.421 430.721 139.887C429.881 140.759 428.878 141.195 427.713 141.195C426.671 141.195 425.815 140.902 425.145 140.316C424.48 139.724 424.148 138.975 424.148 138.07C424.148 136.97 424.565 136.117 425.398 135.512C426.238 134.9 427.417 134.594 428.934 134.594H430.691V133.764C430.691 133.132 430.503 132.631 430.125 132.26C429.747 131.882 429.191 131.693 428.455 131.693C427.811 131.693 427.27 131.856 426.834 132.182C426.398 132.507 426.18 132.901 426.18 133.363H424.363C424.363 132.836 424.549 132.328 424.92 131.84C425.298 131.345 425.805 130.954 426.443 130.668C427.088 130.382 427.794 130.238 428.562 130.238C429.78 130.238 430.734 130.544 431.424 131.156C432.114 131.762 432.472 132.598 432.498 133.666V138.529C432.498 139.499 432.622 140.271 432.869 140.844V141H430.975ZM427.977 139.623C428.543 139.623 429.08 139.477 429.588 139.184C430.096 138.891 430.464 138.51 430.691 138.041V135.873H429.275C427.062 135.873 425.955 136.521 425.955 137.816C425.955 138.383 426.144 138.826 426.521 139.145C426.899 139.464 427.384 139.623 427.977 139.623ZM437.293 141H435.486V126H437.293V141ZM442.156 141H440.35V126H442.156V141ZM452.469 127.875V130.434H454.441V131.83H452.469V138.383C452.469 138.806 452.557 139.125 452.732 139.34C452.908 139.548 453.208 139.652 453.631 139.652C453.839 139.652 454.126 139.613 454.49 139.535V141C454.015 141.13 453.553 141.195 453.104 141.195C452.296 141.195 451.688 140.951 451.277 140.463C450.867 139.975 450.662 139.281 450.662 138.383V131.83H448.738V130.434H450.662V127.875H452.469ZM458.367 131.713C459.168 130.73 460.21 130.238 461.492 130.238C463.725 130.238 464.852 131.498 464.871 134.018V141H463.064V134.008C463.058 133.246 462.882 132.683 462.537 132.318C462.199 131.954 461.668 131.771 460.945 131.771C460.359 131.771 459.845 131.928 459.402 132.24C458.96 132.553 458.615 132.963 458.367 133.471V141H456.561V126H458.367V131.713ZM471.961 141.195C470.529 141.195 469.363 140.727 468.465 139.789C467.566 138.845 467.117 137.585 467.117 136.01V135.678C467.117 134.63 467.316 133.695 467.713 132.875C468.117 132.048 468.676 131.404 469.393 130.941C470.115 130.473 470.896 130.238 471.736 130.238C473.11 130.238 474.178 130.691 474.939 131.596C475.701 132.501 476.082 133.796 476.082 135.482V136.234H468.924C468.95 137.276 469.253 138.119 469.832 138.764C470.418 139.402 471.16 139.721 472.059 139.721C472.697 139.721 473.237 139.59 473.68 139.33C474.122 139.07 474.51 138.725 474.842 138.295L475.945 139.154C475.06 140.515 473.732 141.195 471.961 141.195ZM471.736 131.723C471.007 131.723 470.395 131.99 469.9 132.523C469.406 133.051 469.1 133.793 468.982 134.75H474.275V134.613C474.223 133.695 473.976 132.986 473.533 132.484C473.09 131.977 472.492 131.723 471.736 131.723ZM489.295 138.197C489.295 137.709 489.109 137.331 488.738 137.064C488.374 136.791 487.732 136.557 486.814 136.361C485.903 136.166 485.177 135.932 484.637 135.658C484.103 135.385 483.706 135.059 483.445 134.682C483.191 134.304 483.064 133.855 483.064 133.334C483.064 132.468 483.429 131.736 484.158 131.137C484.894 130.538 485.831 130.238 486.971 130.238C488.169 130.238 489.139 130.548 489.881 131.166C490.63 131.785 491.004 132.576 491.004 133.539H489.188C489.188 133.044 488.976 132.618 488.553 132.26C488.136 131.902 487.609 131.723 486.971 131.723C486.313 131.723 485.799 131.866 485.428 132.152C485.057 132.439 484.871 132.813 484.871 133.275C484.871 133.712 485.044 134.04 485.389 134.262C485.734 134.483 486.355 134.695 487.254 134.896C488.159 135.098 488.891 135.339 489.451 135.619C490.011 135.899 490.424 136.238 490.691 136.635C490.965 137.025 491.102 137.504 491.102 138.07C491.102 139.014 490.724 139.773 489.969 140.346C489.214 140.912 488.234 141.195 487.029 141.195C486.183 141.195 485.434 141.046 484.783 140.746C484.132 140.447 483.621 140.03 483.25 139.496C482.885 138.956 482.703 138.373 482.703 137.748H484.51C484.542 138.354 484.783 138.835 485.232 139.193C485.688 139.545 486.287 139.721 487.029 139.721C487.713 139.721 488.26 139.584 488.67 139.311C489.087 139.031 489.295 138.66 489.295 138.197ZM499.979 139.955C499.275 140.782 498.243 141.195 496.883 141.195C495.757 141.195 494.897 140.87 494.305 140.219C493.719 139.561 493.423 138.591 493.416 137.309V130.434H495.223V137.26C495.223 138.861 495.874 139.662 497.176 139.662C498.556 139.662 499.474 139.148 499.93 138.119V130.434H501.736V141H500.018L499.979 139.955ZM513.416 135.834C513.416 137.442 513.048 138.738 512.312 139.721C511.577 140.704 510.581 141.195 509.324 141.195C508.042 141.195 507.033 140.788 506.297 139.975V145.062H504.49V130.434H506.141L506.229 131.605C506.964 130.694 507.986 130.238 509.295 130.238C510.564 130.238 511.567 130.717 512.303 131.674C513.045 132.631 513.416 133.962 513.416 135.668V135.834ZM511.609 135.629C511.609 134.438 511.355 133.497 510.848 132.807C510.34 132.117 509.643 131.771 508.758 131.771C507.664 131.771 506.844 132.257 506.297 133.227V138.275C506.837 139.239 507.664 139.721 508.777 139.721C509.643 139.721 510.33 139.379 510.838 138.695C511.352 138.005 511.609 136.983 511.609 135.629ZM524.646 135.834C524.646 137.442 524.279 138.738 523.543 139.721C522.807 140.704 521.811 141.195 520.555 141.195C519.272 141.195 518.263 140.788 517.527 139.975V145.062H515.721V130.434H517.371L517.459 131.605C518.195 130.694 519.217 130.238 520.525 130.238C521.795 130.238 522.798 130.717 523.533 131.674C524.275 132.631 524.646 133.962 524.646 135.668V135.834ZM522.84 135.629C522.84 134.438 522.586 133.497 522.078 132.807C521.57 132.117 520.874 131.771 519.988 131.771C518.895 131.771 518.074 132.257 517.527 133.227V138.275C518.068 139.239 518.895 139.721 520.008 139.721C520.874 139.721 521.561 139.379 522.068 138.695C522.583 138.005 522.84 136.983 522.84 135.629ZM526.473 135.619C526.473 134.584 526.674 133.653 527.078 132.826C527.488 131.999 528.055 131.361 528.777 130.912C529.507 130.463 530.337 130.238 531.268 130.238C532.706 130.238 533.868 130.736 534.754 131.732C535.646 132.729 536.092 134.053 536.092 135.707V135.834C536.092 136.863 535.893 137.787 535.496 138.607C535.105 139.421 534.542 140.056 533.807 140.512C533.077 140.967 532.238 141.195 531.287 141.195C529.855 141.195 528.693 140.697 527.801 139.701C526.915 138.705 526.473 137.387 526.473 135.746V135.619ZM528.289 135.834C528.289 137.006 528.559 137.947 529.1 138.656C529.646 139.366 530.376 139.721 531.287 139.721C532.205 139.721 532.934 139.363 533.475 138.646C534.015 137.924 534.285 136.915 534.285 135.619C534.285 134.46 534.008 133.523 533.455 132.807C532.908 132.084 532.179 131.723 531.268 131.723C530.376 131.723 529.656 132.077 529.109 132.787C528.562 133.497 528.289 134.512 528.289 135.834ZM543.465 132.055C543.191 132.009 542.895 131.986 542.576 131.986C541.391 131.986 540.587 132.491 540.164 133.5V141H538.357V130.434H540.115L540.145 131.654C540.737 130.71 541.577 130.238 542.664 130.238C543.016 130.238 543.283 130.284 543.465 130.375V132.055ZM548.074 127.875V130.434H550.047V131.83H548.074V138.383C548.074 138.806 548.162 139.125 548.338 139.34C548.514 139.548 548.813 139.652 549.236 139.652C549.445 139.652 549.731 139.613 550.096 139.535V141C549.62 141.13 549.158 141.195 548.709 141.195C547.902 141.195 547.293 140.951 546.883 140.463C546.473 139.975 546.268 139.281 546.268 138.383V131.83H544.344V130.434H546.268V127.875H548.074ZM560.584 138.354L563.045 130.434H564.979L560.73 142.631C560.073 144.389 559.028 145.268 557.596 145.268L557.254 145.238L556.58 145.111V143.646L557.068 143.686C557.68 143.686 558.156 143.562 558.494 143.314C558.839 143.067 559.122 142.615 559.344 141.957L559.744 140.883L555.975 130.434H557.947L560.584 138.354ZM565.965 135.619C565.965 134.584 566.167 133.653 566.57 132.826C566.98 131.999 567.547 131.361 568.27 130.912C568.999 130.463 569.829 130.238 570.76 130.238C572.199 130.238 573.361 130.736 574.246 131.732C575.138 132.729 575.584 134.053 575.584 135.707V135.834C575.584 136.863 575.385 137.787 574.988 138.607C574.598 139.421 574.035 140.056 573.299 140.512C572.57 140.967 571.73 141.195 570.779 141.195C569.347 141.195 568.185 140.697 567.293 139.701C566.408 138.705 565.965 137.387 565.965 135.746V135.619ZM567.781 135.834C567.781 137.006 568.051 137.947 568.592 138.656C569.139 139.366 569.868 139.721 570.779 139.721C571.697 139.721 572.426 139.363 572.967 138.646C573.507 137.924 573.777 136.915 573.777 135.619C573.777 134.46 573.501 133.523 572.947 132.807C572.4 132.084 571.671 131.723 570.76 131.723C569.868 131.723 569.148 132.077 568.602 132.787C568.055 133.497 567.781 134.512 567.781 135.834ZM584.373 139.955C583.67 140.782 582.638 141.195 581.277 141.195C580.151 141.195 579.292 140.87 578.699 140.219C578.113 139.561 577.817 138.591 577.811 137.309V130.434H579.617V137.26C579.617 138.861 580.268 139.662 581.57 139.662C582.951 139.662 583.868 139.148 584.324 138.119V130.434H586.131V141H584.412L584.373 139.955ZM595.555 130.434L595.613 131.762C596.421 130.746 597.475 130.238 598.777 130.238C601.01 130.238 602.137 131.498 602.156 134.018V141H600.35V134.008C600.343 133.246 600.167 132.683 599.822 132.318C599.484 131.954 598.953 131.771 598.23 131.771C597.645 131.771 597.13 131.928 596.688 132.24C596.245 132.553 595.9 132.963 595.652 133.471V141H593.846V130.434H595.555ZM609.266 141.195C607.833 141.195 606.668 140.727 605.77 139.789C604.871 138.845 604.422 137.585 604.422 136.01V135.678C604.422 134.63 604.62 133.695 605.018 132.875C605.421 132.048 605.981 131.404 606.697 130.941C607.42 130.473 608.201 130.238 609.041 130.238C610.415 130.238 611.482 130.691 612.244 131.596C613.006 132.501 613.387 133.796 613.387 135.482V136.234H606.229C606.255 137.276 606.557 138.119 607.137 138.764C607.723 139.402 608.465 139.721 609.363 139.721C610.001 139.721 610.542 139.59 610.984 139.33C611.427 139.07 611.814 138.725 612.146 138.295L613.25 139.154C612.365 140.515 611.036 141.195 609.266 141.195ZM609.041 131.723C608.312 131.723 607.7 131.99 607.205 132.523C606.71 133.051 606.404 133.793 606.287 134.75H611.58V134.613C611.528 133.695 611.281 132.986 610.838 132.484C610.395 131.977 609.796 131.723 609.041 131.723ZM619.871 141.195C618.439 141.195 617.273 140.727 616.375 139.789C615.477 138.845 615.027 137.585 615.027 136.01V135.678C615.027 134.63 615.226 133.695 615.623 132.875C616.027 132.048 616.587 131.404 617.303 130.941C618.025 130.473 618.807 130.238 619.646 130.238C621.02 130.238 622.088 130.691 622.85 131.596C623.611 132.501 623.992 133.796 623.992 135.482V136.234H616.834C616.86 137.276 617.163 138.119 617.742 138.764C618.328 139.402 619.07 139.721 619.969 139.721C620.607 139.721 621.147 139.59 621.59 139.33C622.033 139.07 622.42 138.725 622.752 138.295L623.855 139.154C622.97 140.515 621.642 141.195 619.871 141.195ZM619.646 131.723C618.917 131.723 618.305 131.99 617.811 132.523C617.316 133.051 617.01 133.793 616.893 134.75H622.186V134.613C622.133 133.695 621.886 132.986 621.443 132.484C621.001 131.977 620.402 131.723 619.646 131.723ZM625.652 135.629C625.652 134.008 626.036 132.706 626.805 131.723C627.573 130.733 628.579 130.238 629.822 130.238C631.059 130.238 632.039 130.661 632.762 131.508V126H634.568V141H632.908L632.82 139.867C632.098 140.753 631.092 141.195 629.803 141.195C628.579 141.195 627.579 140.694 626.805 139.691C626.036 138.689 625.652 137.38 625.652 135.766V135.629ZM627.459 135.834C627.459 137.032 627.706 137.969 628.201 138.646C628.696 139.324 629.38 139.662 630.252 139.662C631.398 139.662 632.234 139.148 632.762 138.119V133.266C632.221 132.27 631.391 131.771 630.271 131.771C629.386 131.771 628.696 132.113 628.201 132.797C627.706 133.48 627.459 134.493 627.459 135.834ZM643.23 141V131.83H641.561V130.434H643.23V129.35C643.23 128.217 643.533 127.341 644.139 126.723C644.744 126.104 645.6 125.795 646.707 125.795C647.124 125.795 647.537 125.85 647.947 125.961L647.85 127.426C647.544 127.367 647.218 127.338 646.873 127.338C646.287 127.338 645.835 127.51 645.516 127.855C645.197 128.194 645.037 128.682 645.037 129.32V130.434H647.293V131.83H645.037V141H643.23ZM648.816 135.619C648.816 134.584 649.018 133.653 649.422 132.826C649.832 131.999 650.398 131.361 651.121 130.912C651.85 130.463 652.68 130.238 653.611 130.238C655.05 130.238 656.212 130.736 657.098 131.732C657.99 132.729 658.436 134.053 658.436 135.707V135.834C658.436 136.863 658.237 137.787 657.84 138.607C657.449 139.421 656.886 140.056 656.15 140.512C655.421 140.967 654.581 141.195 653.631 141.195C652.199 141.195 651.036 140.697 650.145 139.701C649.259 138.705 648.816 137.387 648.816 135.746V135.619ZM650.633 135.834C650.633 137.006 650.903 137.947 651.443 138.656C651.99 139.366 652.719 139.721 653.631 139.721C654.549 139.721 655.278 139.363 655.818 138.646C656.359 137.924 656.629 136.915 656.629 135.619C656.629 134.46 656.352 133.523 655.799 132.807C655.252 132.084 654.523 131.723 653.611 131.723C652.719 131.723 652 132.077 651.453 132.787C650.906 133.497 650.633 134.512 650.633 135.834ZM665.809 132.055C665.535 132.009 665.239 131.986 664.92 131.986C663.735 131.986 662.931 132.491 662.508 133.5V141H660.701V130.434H662.459L662.488 131.654C663.081 130.71 663.921 130.238 665.008 130.238C665.359 130.238 665.626 130.284 665.809 130.375V132.055ZM675.896 138.354L678.357 130.434H680.291L676.043 142.631C675.385 144.389 674.34 145.268 672.908 145.268L672.566 145.238L671.893 145.111V143.646L672.381 143.686C672.993 143.686 673.468 143.562 673.807 143.314C674.152 143.067 674.435 142.615 674.656 141.957L675.057 140.883L671.287 130.434H673.26L675.896 138.354ZM681.277 135.619C681.277 134.584 681.479 133.653 681.883 132.826C682.293 131.999 682.859 131.361 683.582 130.912C684.311 130.463 685.141 130.238 686.072 130.238C687.511 130.238 688.673 130.736 689.559 131.732C690.451 132.729 690.896 134.053 690.896 135.707V135.834C690.896 136.863 690.698 137.787 690.301 138.607C689.91 139.421 689.347 140.056 688.611 140.512C687.882 140.967 687.042 141.195 686.092 141.195C684.66 141.195 683.497 140.697 682.605 139.701C681.72 138.705 681.277 137.387 681.277 135.746V135.619ZM683.094 135.834C683.094 137.006 683.364 137.947 683.904 138.656C684.451 139.366 685.18 139.721 686.092 139.721C687.01 139.721 687.739 139.363 688.279 138.646C688.82 137.924 689.09 136.915 689.09 135.619C689.09 134.46 688.813 133.523 688.26 132.807C687.713 132.084 686.984 131.723 686.072 131.723C685.18 131.723 684.461 132.077 683.914 132.787C683.367 133.497 683.094 134.512 683.094 135.834ZM699.686 139.955C698.982 140.782 697.951 141.195 696.59 141.195C695.464 141.195 694.604 140.87 694.012 140.219C693.426 139.561 693.13 138.591 693.123 137.309V130.434H694.93V137.26C694.93 138.861 695.581 139.662 696.883 139.662C698.263 139.662 699.181 139.148 699.637 138.119V130.434H701.443V141H699.725L699.686 139.955ZM709.305 132.055C709.031 132.009 708.735 131.986 708.416 131.986C707.231 131.986 706.427 132.491 706.004 133.5V141H704.197V130.434H705.955L705.984 131.654C706.577 130.71 707.417 130.238 708.504 130.238C708.855 130.238 709.122 130.284 709.305 130.375V132.055ZM717.645 130.434L717.703 131.762C718.51 130.746 719.565 130.238 720.867 130.238C723.1 130.238 724.227 131.498 724.246 134.018V141H722.439V134.008C722.433 133.246 722.257 132.683 721.912 132.318C721.574 131.954 721.043 131.771 720.32 131.771C719.734 131.771 719.22 131.928 718.777 132.24C718.335 132.553 717.99 132.963 717.742 133.471V141H715.936V130.434H717.645ZM731.355 141.195C729.923 141.195 728.758 140.727 727.859 139.789C726.961 138.845 726.512 137.585 726.512 136.01V135.678C726.512 134.63 726.71 133.695 727.107 132.875C727.511 132.048 728.071 131.404 728.787 130.941C729.51 130.473 730.291 130.238 731.131 130.238C732.505 130.238 733.572 130.691 734.334 131.596C735.096 132.501 735.477 133.796 735.477 135.482V136.234H728.318C728.344 137.276 728.647 138.119 729.227 138.764C729.812 139.402 730.555 139.721 731.453 139.721C732.091 139.721 732.632 139.59 733.074 139.33C733.517 139.07 733.904 138.725 734.236 138.295L735.34 139.154C734.454 140.515 733.126 141.195 731.355 141.195ZM731.131 131.723C730.402 131.723 729.79 131.99 729.295 132.523C728.8 133.051 728.494 133.793 728.377 134.75H733.67V134.613C733.618 133.695 733.37 132.986 732.928 132.484C732.485 131.977 731.886 131.723 731.131 131.723ZM741.121 134.291L743.465 130.434H745.574L742.117 135.658L745.682 141H743.592L741.15 137.045L738.709 141H736.609L740.174 135.658L736.717 130.434H738.807L741.121 134.291ZM749.949 127.875V130.434H751.922V131.83H749.949V138.383C749.949 138.806 750.037 139.125 750.213 139.34C750.389 139.548 750.688 139.652 751.111 139.652C751.32 139.652 751.606 139.613 751.971 139.535V141C751.495 141.13 751.033 141.195 750.584 141.195C749.777 141.195 749.168 140.951 748.758 140.463C748.348 139.975 748.143 139.281 748.143 138.383V131.83H746.219V130.434H748.143V127.875H749.949ZM767.928 135.834C767.928 137.442 767.56 138.738 766.824 139.721C766.089 140.704 765.092 141.195 763.836 141.195C762.553 141.195 761.544 140.788 760.809 139.975V145.062H759.002V130.434H760.652L760.74 131.605C761.476 130.694 762.498 130.238 763.807 130.238C765.076 130.238 766.079 130.717 766.814 131.674C767.557 132.631 767.928 133.962 767.928 135.668V135.834ZM766.121 135.629C766.121 134.438 765.867 133.497 765.359 132.807C764.852 132.117 764.155 131.771 763.27 131.771C762.176 131.771 761.355 132.257 760.809 133.227V138.275C761.349 139.239 762.176 139.721 763.289 139.721C764.155 139.721 764.842 139.379 765.35 138.695C765.864 138.005 766.121 136.983 766.121 135.629ZM775.34 132.055C775.066 132.009 774.77 131.986 774.451 131.986C773.266 131.986 772.462 132.491 772.039 133.5V141H770.232V130.434H771.99L772.02 131.654C772.612 130.71 773.452 130.238 774.539 130.238C774.891 130.238 775.158 130.284 775.34 130.375V132.055ZM776.336 135.619C776.336 134.584 776.538 133.653 776.941 132.826C777.352 131.999 777.918 131.361 778.641 130.912C779.37 130.463 780.2 130.238 781.131 130.238C782.57 130.238 783.732 130.736 784.617 131.732C785.509 132.729 785.955 134.053 785.955 135.707V135.834C785.955 136.863 785.757 137.787 785.359 138.607C784.969 139.421 784.406 140.056 783.67 140.512C782.941 140.967 782.101 141.195 781.15 141.195C779.718 141.195 778.556 140.697 777.664 139.701C776.779 138.705 776.336 137.387 776.336 135.746V135.619ZM778.152 135.834C778.152 137.006 778.423 137.947 778.963 138.656C779.51 139.366 780.239 139.721 781.15 139.721C782.068 139.721 782.798 139.363 783.338 138.646C783.878 137.924 784.148 136.915 784.148 135.619C784.148 134.46 783.872 133.523 783.318 132.807C782.771 132.084 782.042 131.723 781.131 131.723C780.239 131.723 779.52 132.077 778.973 132.787C778.426 133.497 778.152 134.512 778.152 135.834ZM790.086 130.434V142.221C790.086 144.252 789.165 145.268 787.322 145.268C786.925 145.268 786.557 145.209 786.219 145.092V143.646C786.427 143.699 786.701 143.725 787.039 143.725C787.443 143.725 787.749 143.614 787.957 143.393C788.172 143.178 788.279 142.8 788.279 142.26V130.434H790.086ZM788.094 127.631C788.094 127.344 788.182 127.1 788.357 126.898C788.54 126.69 788.803 126.586 789.148 126.586C789.5 126.586 789.767 126.687 789.949 126.889C790.132 127.09 790.223 127.338 790.223 127.631C790.223 127.924 790.132 128.168 789.949 128.363C789.767 128.559 789.5 128.656 789.148 128.656C788.797 128.656 788.533 128.559 788.357 128.363C788.182 128.168 788.094 127.924 788.094 127.631ZM797.391 141.195C795.958 141.195 794.793 140.727 793.895 139.789C792.996 138.845 792.547 137.585 792.547 136.01V135.678C792.547 134.63 792.745 133.695 793.143 132.875C793.546 132.048 794.106 131.404 794.822 130.941C795.545 130.473 796.326 130.238 797.166 130.238C798.54 130.238 799.607 130.691 800.369 131.596C801.131 132.501 801.512 133.796 801.512 135.482V136.234H794.354C794.38 137.276 794.682 138.119 795.262 138.764C795.848 139.402 796.59 139.721 797.488 139.721C798.126 139.721 798.667 139.59 799.109 139.33C799.552 139.07 799.939 138.725 800.271 138.295L801.375 139.154C800.49 140.515 799.161 141.195 797.391 141.195ZM797.166 131.723C796.437 131.723 795.825 131.99 795.33 132.523C794.835 133.051 794.529 133.793 794.412 134.75H799.705V134.613C799.653 133.695 799.406 132.986 798.963 132.484C798.52 131.977 797.921 131.723 797.166 131.723ZM807.85 139.721C808.494 139.721 809.057 139.525 809.539 139.135C810.021 138.744 810.288 138.256 810.34 137.67H812.049C812.016 138.275 811.808 138.852 811.424 139.398C811.04 139.945 810.525 140.382 809.881 140.707C809.243 141.033 808.566 141.195 807.85 141.195C806.411 141.195 805.265 140.717 804.412 139.76C803.566 138.796 803.143 137.481 803.143 135.814V135.512C803.143 134.483 803.331 133.568 803.709 132.768C804.087 131.967 804.627 131.345 805.33 130.902C806.04 130.46 806.876 130.238 807.84 130.238C809.025 130.238 810.008 130.593 810.789 131.303C811.577 132.012 811.997 132.934 812.049 134.066H810.34C810.288 133.383 810.027 132.823 809.559 132.387C809.096 131.944 808.523 131.723 807.84 131.723C806.922 131.723 806.209 132.055 805.701 132.719C805.2 133.376 804.949 134.33 804.949 135.58V135.922C804.949 137.139 805.2 138.077 805.701 138.734C806.202 139.392 806.919 139.721 807.85 139.721ZM816.531 127.875V130.434H818.504V131.83H816.531V138.383C816.531 138.806 816.619 139.125 816.795 139.34C816.971 139.548 817.27 139.652 817.693 139.652C817.902 139.652 818.188 139.613 818.553 139.535V141C818.077 141.13 817.615 141.195 817.166 141.195C816.359 141.195 815.75 140.951 815.34 140.463C814.93 139.975 814.725 139.281 814.725 138.383V131.83H812.801V130.434H814.725V127.875H816.531ZM830.691 132.055C830.418 132.009 830.122 131.986 829.803 131.986C828.618 131.986 827.814 132.491 827.391 133.5V141H825.584V130.434H827.342L827.371 131.654C827.964 130.71 828.803 130.238 829.891 130.238C830.242 130.238 830.509 130.284 830.691 130.375V132.055ZM834.324 141H832.518V130.434H834.324V141ZM832.371 127.631C832.371 127.338 832.459 127.09 832.635 126.889C832.817 126.687 833.084 126.586 833.436 126.586C833.787 126.586 834.054 126.687 834.236 126.889C834.419 127.09 834.51 127.338 834.51 127.631C834.51 127.924 834.419 128.168 834.236 128.363C834.054 128.559 833.787 128.656 833.436 128.656C833.084 128.656 832.817 128.559 832.635 128.363C832.459 128.168 832.371 127.924 832.371 127.631ZM836.795 135.629C836.795 133.982 837.176 132.673 837.938 131.703C838.699 130.727 839.708 130.238 840.965 130.238C842.254 130.238 843.26 130.694 843.982 131.605L844.07 130.434H845.721V140.746C845.721 142.113 845.314 143.191 844.5 143.979C843.693 144.766 842.605 145.16 841.238 145.16C840.477 145.16 839.731 144.997 839.002 144.672C838.273 144.346 837.716 143.9 837.332 143.334L838.27 142.25C839.044 143.207 839.992 143.686 841.111 143.686C841.99 143.686 842.674 143.438 843.162 142.943C843.657 142.449 843.904 141.752 843.904 140.854V139.945C843.182 140.779 842.195 141.195 840.945 141.195C839.708 141.195 838.706 140.697 837.938 139.701C837.176 138.705 836.795 137.348 836.795 135.629ZM838.611 135.834C838.611 137.025 838.855 137.963 839.344 138.646C839.832 139.324 840.516 139.662 841.395 139.662C842.534 139.662 843.37 139.145 843.904 138.109V133.285C843.351 132.276 842.521 131.771 841.414 131.771C840.535 131.771 839.848 132.113 839.354 132.797C838.859 133.48 838.611 134.493 838.611 135.834ZM850.262 131.713C851.062 130.73 852.104 130.238 853.387 130.238C855.62 130.238 856.746 131.498 856.766 134.018V141H854.959V134.008C854.952 133.246 854.777 132.683 854.432 132.318C854.093 131.954 853.562 131.771 852.84 131.771C852.254 131.771 851.74 131.928 851.297 132.24C850.854 132.553 850.509 132.963 850.262 133.471V141H848.455V126H850.262V131.713ZM861.922 127.875V130.434H863.895V131.83H861.922V138.383C861.922 138.806 862.01 139.125 862.186 139.34C862.361 139.548 862.661 139.652 863.084 139.652C863.292 139.652 863.579 139.613 863.943 139.535V141C863.468 141.13 863.006 141.195 862.557 141.195C861.749 141.195 861.141 140.951 860.73 140.463C860.32 139.975 860.115 139.281 860.115 138.383V131.83H858.191V130.434H860.115V127.875H861.922ZM872.781 131.713C873.582 130.73 874.624 130.238 875.906 130.238C878.139 130.238 879.266 131.498 879.285 134.018V141H877.479V134.008C877.472 133.246 877.296 132.683 876.951 132.318C876.613 131.954 876.082 131.771 875.359 131.771C874.773 131.771 874.259 131.928 873.816 132.24C873.374 132.553 873.029 132.963 872.781 133.471V141H870.975V126H872.781V131.713ZM886.375 141.195C884.943 141.195 883.777 140.727 882.879 139.789C881.98 138.845 881.531 137.585 881.531 136.01V135.678C881.531 134.63 881.73 133.695 882.127 132.875C882.531 132.048 883.09 131.404 883.807 130.941C884.529 130.473 885.311 130.238 886.15 130.238C887.524 130.238 888.592 130.691 889.354 131.596C890.115 132.501 890.496 133.796 890.496 135.482V136.234H883.338C883.364 137.276 883.667 138.119 884.246 138.764C884.832 139.402 885.574 139.721 886.473 139.721C887.111 139.721 887.651 139.59 888.094 139.33C888.536 139.07 888.924 138.725 889.256 138.295L890.359 139.154C889.474 140.515 888.146 141.195 886.375 141.195ZM886.15 131.723C885.421 131.723 884.809 131.99 884.314 132.523C883.82 133.051 883.514 133.793 883.396 134.75H888.689V134.613C888.637 133.695 888.39 132.986 887.947 132.484C887.505 131.977 886.906 131.723 886.15 131.723ZM897.703 132.055C897.43 132.009 897.133 131.986 896.814 131.986C895.63 131.986 894.826 132.491 894.402 133.5V141H892.596V130.434H894.354L894.383 131.654C894.975 130.71 895.815 130.238 896.902 130.238C897.254 130.238 897.521 130.284 897.703 130.375V132.055ZM903.562 141.195C902.13 141.195 900.965 140.727 900.066 139.789C899.168 138.845 898.719 137.585 898.719 136.01V135.678C898.719 134.63 898.917 133.695 899.314 132.875C899.718 132.048 900.278 131.404 900.994 130.941C901.717 130.473 902.498 130.238 903.338 130.238C904.712 130.238 905.779 130.691 906.541 131.596C907.303 132.501 907.684 133.796 907.684 135.482V136.234H900.525C900.551 137.276 900.854 138.119 901.434 138.764C902.02 139.402 902.762 139.721 903.66 139.721C904.298 139.721 904.839 139.59 905.281 139.33C905.724 139.07 906.111 138.725 906.443 138.295L907.547 139.154C906.661 140.515 905.333 141.195 903.562 141.195ZM903.338 131.723C902.609 131.723 901.997 131.99 901.502 132.523C901.007 133.051 900.701 133.793 900.584 134.75H905.877V134.613C905.825 133.695 905.577 132.986 905.135 132.484C904.692 131.977 904.093 131.723 903.338 131.723ZM921.268 141C921.163 140.792 921.079 140.421 921.014 139.887C920.174 140.759 919.171 141.195 918.006 141.195C916.964 141.195 916.108 140.902 915.438 140.316C914.773 139.724 914.441 138.975 914.441 138.07C914.441 136.97 914.858 136.117 915.691 135.512C916.531 134.9 917.71 134.594 919.227 134.594H920.984V133.764C920.984 133.132 920.796 132.631 920.418 132.26C920.04 131.882 919.484 131.693 918.748 131.693C918.104 131.693 917.563 131.856 917.127 132.182C916.691 132.507 916.473 132.901 916.473 133.363H914.656C914.656 132.836 914.842 132.328 915.213 131.84C915.59 131.345 916.098 130.954 916.736 130.668C917.381 130.382 918.087 130.238 918.855 130.238C920.073 130.238 921.027 130.544 921.717 131.156C922.407 131.762 922.765 132.598 922.791 133.666V138.529C922.791 139.499 922.915 140.271 923.162 140.844V141H921.268ZM918.27 139.623C918.836 139.623 919.373 139.477 919.881 139.184C920.389 138.891 920.757 138.51 920.984 138.041V135.873H919.568C917.355 135.873 916.248 136.521 916.248 137.816C916.248 138.383 916.437 138.826 916.814 139.145C917.192 139.464 917.677 139.623 918.27 139.623ZM928.074 127.875V130.434H930.047V131.83H928.074V138.383C928.074 138.806 928.162 139.125 928.338 139.34C928.514 139.548 928.813 139.652 929.236 139.652C929.445 139.652 929.731 139.613 930.096 139.535V141C929.62 141.13 929.158 141.195 928.709 141.195C927.902 141.195 927.293 140.951 926.883 140.463C926.473 139.975 926.268 139.281 926.268 138.383V131.83H924.344V130.434H926.268V127.875H928.074ZM939.285 135.434V141H937.41V126.781H942.654C944.21 126.781 945.428 127.178 946.307 127.973C947.192 128.767 947.635 129.818 947.635 131.127C947.635 132.507 947.202 133.572 946.336 134.32C945.477 135.062 944.243 135.434 942.635 135.434H939.285ZM939.285 133.9H942.654C943.657 133.9 944.425 133.666 944.959 133.197C945.493 132.722 945.76 132.038 945.76 131.146C945.76 130.3 945.493 129.623 944.959 129.115C944.425 128.607 943.693 128.344 942.762 128.324H939.285V133.9ZM953.992 141.195C952.56 141.195 951.395 140.727 950.496 139.789C949.598 138.845 949.148 137.585 949.148 136.01V135.678C949.148 134.63 949.347 133.695 949.744 132.875C950.148 132.048 950.708 131.404 951.424 130.941C952.146 130.473 952.928 130.238 953.768 130.238C955.141 130.238 956.209 130.691 956.971 131.596C957.732 132.501 958.113 133.796 958.113 135.482V136.234H950.955C950.981 137.276 951.284 138.119 951.863 138.764C952.449 139.402 953.191 139.721 954.09 139.721C954.728 139.721 955.268 139.59 955.711 139.33C956.154 139.07 956.541 138.725 956.873 138.295L957.977 139.154C957.091 140.515 955.763 141.195 953.992 141.195ZM953.768 131.723C953.038 131.723 952.426 131.99 951.932 132.523C951.437 133.051 951.131 133.793 951.014 134.75H956.307V134.613C956.255 133.695 956.007 132.986 955.564 132.484C955.122 131.977 954.523 131.723 953.768 131.723ZM962.664 127.875V130.434H964.637V131.83H962.664V138.383C962.664 138.806 962.752 139.125 962.928 139.34C963.104 139.548 963.403 139.652 963.826 139.652C964.035 139.652 964.321 139.613 964.686 139.535V141C964.21 141.13 963.748 141.195 963.299 141.195C962.492 141.195 961.883 140.951 961.473 140.463C961.062 139.975 960.857 139.281 960.857 138.383V131.83H958.934V130.434H960.857V127.875H962.664ZM972.908 138.197C972.908 137.709 972.723 137.331 972.352 137.064C971.987 136.791 971.346 136.557 970.428 136.361C969.516 136.166 968.79 135.932 968.25 135.658C967.716 135.385 967.319 135.059 967.059 134.682C966.805 134.304 966.678 133.855 966.678 133.334C966.678 132.468 967.042 131.736 967.771 131.137C968.507 130.538 969.445 130.238 970.584 130.238C971.782 130.238 972.752 130.548 973.494 131.166C974.243 131.785 974.617 132.576 974.617 133.539H972.801C972.801 133.044 972.589 132.618 972.166 132.26C971.749 131.902 971.222 131.723 970.584 131.723C969.926 131.723 969.412 131.866 969.041 132.152C968.67 132.439 968.484 132.813 968.484 133.275C968.484 133.712 968.657 134.04 969.002 134.262C969.347 134.483 969.969 134.695 970.867 134.896C971.772 135.098 972.505 135.339 973.064 135.619C973.624 135.899 974.038 136.238 974.305 136.635C974.578 137.025 974.715 137.504 974.715 138.07C974.715 139.014 974.337 139.773 973.582 140.346C972.827 140.912 971.847 141.195 970.643 141.195C969.796 141.195 969.048 141.046 968.396 140.746C967.745 140.447 967.234 140.03 966.863 139.496C966.499 138.956 966.316 138.373 966.316 137.748H968.123C968.156 138.354 968.396 138.835 968.846 139.193C969.301 139.545 969.9 139.721 970.643 139.721C971.326 139.721 971.873 139.584 972.283 139.311C972.7 139.031 972.908 138.66 972.908 138.197ZM976.59 135.619C976.59 134.584 976.792 133.653 977.195 132.826C977.605 131.999 978.172 131.361 978.895 130.912C979.624 130.463 980.454 130.238 981.385 130.238C982.824 130.238 983.986 130.736 984.871 131.732C985.763 132.729 986.209 134.053 986.209 135.707V135.834C986.209 136.863 986.01 137.787 985.613 138.607C985.223 139.421 984.66 140.056 983.924 140.512C983.195 140.967 982.355 141.195 981.404 141.195C979.972 141.195 978.81 140.697 977.918 139.701C977.033 138.705 976.59 137.387 976.59 135.746V135.619ZM978.406 135.834C978.406 137.006 978.676 137.947 979.217 138.656C979.764 139.366 980.493 139.721 981.404 139.721C982.322 139.721 983.051 139.363 983.592 138.646C984.132 137.924 984.402 136.915 984.402 135.619C984.402 134.46 984.126 133.523 983.572 132.807C983.025 132.084 982.296 131.723 981.385 131.723C980.493 131.723 979.773 132.077 979.227 132.787C978.68 133.497 978.406 134.512 978.406 135.834ZM988.514 140.053C988.514 139.74 988.605 139.48 988.787 139.271C988.976 139.063 989.256 138.959 989.627 138.959C989.998 138.959 990.278 139.063 990.467 139.271C990.662 139.48 990.76 139.74 990.76 140.053C990.76 140.352 990.662 140.603 990.467 140.805C990.278 141.007 989.998 141.107 989.627 141.107C989.256 141.107 988.976 141.007 988.787 140.805C988.605 140.603 988.514 140.352 988.514 140.053ZM1002.06 136.518L1002.33 138.393L1002.73 136.703L1005.54 126.781H1007.13L1009.87 136.703L1010.26 138.422L1010.56 136.508L1012.77 126.781H1014.66L1011.21 141H1009.5L1006.57 130.639L1006.35 129.555L1006.12 130.639L1003.08 141H1001.38L997.938 126.781H999.812L1002.06 136.518ZM1018.27 131.713C1019.07 130.73 1020.11 130.238 1021.39 130.238C1023.63 130.238 1024.75 131.498 1024.77 134.018V141H1022.97V134.008C1022.96 133.246 1022.78 132.683 1022.44 132.318C1022.1 131.954 1021.57 131.771 1020.85 131.771C1020.26 131.771 1019.75 131.928 1019.3 132.24C1018.86 132.553 1018.52 132.963 1018.27 133.471V141H1016.46V126H1018.27V131.713ZM1031.86 141.195C1030.43 141.195 1029.27 140.727 1028.37 139.789C1027.47 138.845 1027.02 137.585 1027.02 136.01V135.678C1027.02 134.63 1027.22 133.695 1027.62 132.875C1028.02 132.048 1028.58 131.404 1029.29 130.941C1030.02 130.473 1030.8 130.238 1031.64 130.238C1033.01 130.238 1034.08 130.691 1034.84 131.596C1035.6 132.501 1035.98 133.796 1035.98 135.482V136.234H1028.83C1028.85 137.276 1029.15 138.119 1029.73 138.764C1030.32 139.402 1031.06 139.721 1031.96 139.721C1032.6 139.721 1033.14 139.59 1033.58 139.33C1034.02 139.07 1034.41 138.725 1034.74 138.295L1035.85 139.154C1034.96 140.515 1033.63 141.195 1031.86 141.195ZM1031.64 131.723C1030.91 131.723 1030.3 131.99 1029.8 132.523C1029.31 133.051 1029 133.793 1028.88 134.75H1034.18V134.613C1034.13 133.695 1033.88 132.986 1033.44 132.484C1032.99 131.977 1032.39 131.723 1031.64 131.723ZM1040.54 127.875V130.434H1042.51V131.83H1040.54V138.383C1040.54 138.806 1040.62 139.125 1040.8 139.34C1040.97 139.548 1041.27 139.652 1041.7 139.652C1041.91 139.652 1042.19 139.613 1042.56 139.535V141C1042.08 141.13 1041.62 141.195 1041.17 141.195C1040.36 141.195 1039.75 140.951 1039.34 140.463C1038.93 139.975 1038.73 139.281 1038.73 138.383V131.83H1036.8V130.434H1038.73V127.875H1040.54ZM1046.43 131.713C1047.23 130.73 1048.28 130.238 1049.56 130.238C1051.79 130.238 1052.92 131.498 1052.94 134.018V141H1051.13V134.008C1051.12 133.246 1050.95 132.683 1050.6 132.318C1050.26 131.954 1049.73 131.771 1049.01 131.771C1048.43 131.771 1047.91 131.928 1047.47 132.24C1047.03 132.553 1046.68 132.963 1046.43 133.471V141H1044.63V126H1046.43V131.713ZM1060.03 141.195C1058.6 141.195 1057.43 140.727 1056.53 139.789C1055.63 138.845 1055.18 137.585 1055.18 136.01V135.678C1055.18 134.63 1055.38 133.695 1055.78 132.875C1056.18 132.048 1056.74 131.404 1057.46 130.941C1058.18 130.473 1058.96 130.238 1059.8 130.238C1061.18 130.238 1062.24 130.691 1063.01 131.596C1063.77 132.501 1064.15 133.796 1064.15 135.482V136.234H1056.99C1057.02 137.276 1057.32 138.119 1057.9 138.764C1058.48 139.402 1059.23 139.721 1060.12 139.721C1060.76 139.721 1061.3 139.59 1061.75 139.33C1062.19 139.07 1062.58 138.725 1062.91 138.295L1064.01 139.154C1063.13 140.515 1061.8 141.195 1060.03 141.195ZM1059.8 131.723C1059.07 131.723 1058.46 131.99 1057.97 132.523C1057.47 133.051 1057.17 133.793 1057.05 134.75H1062.34V134.613C1062.29 133.695 1062.04 132.986 1061.6 132.484C1061.16 131.977 1060.56 131.723 1059.8 131.723ZM1071.36 132.055C1071.08 132.009 1070.79 131.986 1070.47 131.986C1069.28 131.986 1068.48 132.491 1068.05 133.5V141H1066.25V130.434H1068.01L1068.04 131.654C1068.63 130.71 1069.47 130.238 1070.55 130.238C1070.91 130.238 1071.17 130.284 1071.36 130.375V132.055ZM463.016 164H461.209V153.434H463.016V164ZM461.062 150.631C461.062 150.338 461.15 150.09 461.326 149.889C461.508 149.687 461.775 149.586 462.127 149.586C462.479 149.586 462.745 149.687 462.928 149.889C463.11 150.09 463.201 150.338 463.201 150.631C463.201 150.924 463.11 151.168 462.928 151.363C462.745 151.559 462.479 151.656 462.127 151.656C461.775 151.656 461.508 151.559 461.326 151.363C461.15 151.168 461.062 150.924 461.062 150.631ZM468.367 150.875V153.434H470.34V154.83H468.367V161.383C468.367 161.806 468.455 162.125 468.631 162.34C468.807 162.548 469.106 162.652 469.529 162.652C469.738 162.652 470.024 162.613 470.389 162.535V164C469.913 164.13 469.451 164.195 469.002 164.195C468.195 164.195 467.586 163.951 467.176 163.463C466.766 162.975 466.561 162.281 466.561 161.383V154.83H464.637V153.434H466.561V150.875H468.367ZM472.586 153.785L471.561 153.082C472.166 152.236 472.479 151.344 472.498 150.406V149H474.285V150.27C474.279 150.921 474.116 151.572 473.797 152.223C473.484 152.867 473.081 153.388 472.586 153.785ZM481.521 161.197C481.521 160.709 481.336 160.331 480.965 160.064C480.6 159.791 479.959 159.557 479.041 159.361C478.13 159.166 477.404 158.932 476.863 158.658C476.329 158.385 475.932 158.059 475.672 157.682C475.418 157.304 475.291 156.855 475.291 156.334C475.291 155.468 475.656 154.736 476.385 154.137C477.12 153.538 478.058 153.238 479.197 153.238C480.395 153.238 481.365 153.548 482.107 154.166C482.856 154.785 483.23 155.576 483.23 156.539H481.414C481.414 156.044 481.202 155.618 480.779 155.26C480.363 154.902 479.835 154.723 479.197 154.723C478.54 154.723 478.025 154.866 477.654 155.152C477.283 155.439 477.098 155.813 477.098 156.275C477.098 156.712 477.27 157.04 477.615 157.262C477.96 157.483 478.582 157.695 479.48 157.896C480.385 158.098 481.118 158.339 481.678 158.619C482.238 158.899 482.651 159.238 482.918 159.635C483.191 160.025 483.328 160.504 483.328 161.07C483.328 162.014 482.951 162.773 482.195 163.346C481.44 163.912 480.46 164.195 479.256 164.195C478.41 164.195 477.661 164.046 477.01 163.746C476.359 163.447 475.848 163.03 475.477 162.496C475.112 161.956 474.93 161.373 474.93 160.748H476.736C476.769 161.354 477.01 161.835 477.459 162.193C477.915 162.545 478.514 162.721 479.256 162.721C479.939 162.721 480.486 162.584 480.896 162.311C481.313 162.031 481.521 161.66 481.521 161.197ZM493.094 150.875V153.434H495.066V154.83H493.094V161.383C493.094 161.806 493.182 162.125 493.357 162.34C493.533 162.548 493.833 162.652 494.256 162.652C494.464 162.652 494.751 162.613 495.115 162.535V164C494.64 164.13 494.178 164.195 493.729 164.195C492.921 164.195 492.312 163.951 491.902 163.463C491.492 162.975 491.287 162.281 491.287 161.383V154.83H489.363V153.434H491.287V150.875H493.094ZM498.992 154.713C499.793 153.73 500.835 153.238 502.117 153.238C504.35 153.238 505.477 154.498 505.496 157.018V164H503.689V157.008C503.683 156.246 503.507 155.683 503.162 155.318C502.824 154.954 502.293 154.771 501.57 154.771C500.984 154.771 500.47 154.928 500.027 155.24C499.585 155.553 499.24 155.963 498.992 156.471V164H497.186V149H498.992V154.713ZM512.586 164.195C511.154 164.195 509.988 163.727 509.09 162.789C508.191 161.845 507.742 160.585 507.742 159.01V158.678C507.742 157.63 507.941 156.695 508.338 155.875C508.742 155.048 509.301 154.404 510.018 153.941C510.74 153.473 511.521 153.238 512.361 153.238C513.735 153.238 514.803 153.691 515.564 154.596C516.326 155.501 516.707 156.796 516.707 158.482V159.234H509.549C509.575 160.276 509.878 161.119 510.457 161.764C511.043 162.402 511.785 162.721 512.684 162.721C513.322 162.721 513.862 162.59 514.305 162.33C514.747 162.07 515.135 161.725 515.467 161.295L516.57 162.154C515.685 163.515 514.357 164.195 512.586 164.195ZM512.361 154.723C511.632 154.723 511.02 154.99 510.525 155.523C510.031 156.051 509.725 156.793 509.607 157.75H514.9V157.613C514.848 156.695 514.601 155.986 514.158 155.484C513.715 154.977 513.117 154.723 512.361 154.723ZM524.656 164V154.83H522.986V153.434H524.656V152.35C524.656 151.217 524.959 150.341 525.564 149.723C526.17 149.104 527.026 148.795 528.133 148.795C528.549 148.795 528.963 148.85 529.373 148.961L529.275 150.426C528.969 150.367 528.644 150.338 528.299 150.338C527.713 150.338 527.26 150.51 526.941 150.855C526.622 151.194 526.463 151.682 526.463 152.32V153.434H528.719V154.83H526.463V164H524.656ZM537.244 162.955C536.541 163.782 535.509 164.195 534.148 164.195C533.022 164.195 532.163 163.87 531.57 163.219C530.984 162.561 530.688 161.591 530.682 160.309V153.434H532.488V160.26C532.488 161.861 533.139 162.662 534.441 162.662C535.822 162.662 536.74 162.148 537.195 161.119V153.434H539.002V164H537.283L537.244 162.955ZM543.465 153.434L543.523 154.762C544.331 153.746 545.385 153.238 546.688 153.238C548.921 153.238 550.047 154.498 550.066 157.018V164H548.26V157.008C548.253 156.246 548.077 155.683 547.732 155.318C547.394 154.954 546.863 154.771 546.141 154.771C545.555 154.771 545.04 154.928 544.598 155.24C544.155 155.553 543.81 155.963 543.562 156.471V164H541.756V153.434H543.465ZM552.352 158.629C552.352 157.008 552.736 155.706 553.504 154.723C554.272 153.733 555.278 153.238 556.521 153.238C557.758 153.238 558.738 153.661 559.461 154.508V149H561.268V164H559.607L559.52 162.867C558.797 163.753 557.791 164.195 556.502 164.195C555.278 164.195 554.279 163.694 553.504 162.691C552.736 161.689 552.352 160.38 552.352 158.766V158.629ZM554.158 158.834C554.158 160.032 554.406 160.969 554.9 161.646C555.395 162.324 556.079 162.662 556.951 162.662C558.097 162.662 558.934 162.148 559.461 161.119V156.266C558.921 155.27 558.09 154.771 556.971 154.771C556.085 154.771 555.395 155.113 554.9 155.797C554.406 156.48 554.158 157.493 554.158 158.834ZM568.562 158.619C568.562 157.584 568.764 156.653 569.168 155.826C569.578 154.999 570.145 154.361 570.867 153.912C571.596 153.463 572.426 153.238 573.357 153.238C574.796 153.238 575.958 153.736 576.844 154.732C577.736 155.729 578.182 157.053 578.182 158.707V158.834C578.182 159.863 577.983 160.787 577.586 161.607C577.195 162.421 576.632 163.056 575.896 163.512C575.167 163.967 574.327 164.195 573.377 164.195C571.945 164.195 570.783 163.697 569.891 162.701C569.005 161.705 568.562 160.387 568.562 158.746V158.619ZM570.379 158.834C570.379 160.006 570.649 160.947 571.189 161.656C571.736 162.366 572.465 162.721 573.377 162.721C574.295 162.721 575.024 162.363 575.564 161.646C576.105 160.924 576.375 159.915 576.375 158.619C576.375 157.46 576.098 156.523 575.545 155.807C574.998 155.084 574.269 154.723 573.357 154.723C572.465 154.723 571.746 155.077 571.199 155.787C570.652 156.497 570.379 157.512 570.379 158.834ZM585.555 155.055C585.281 155.009 584.985 154.986 584.666 154.986C583.481 154.986 582.677 155.491 582.254 156.5V164H580.447V153.434H582.205L582.234 154.654C582.827 153.71 583.667 153.238 584.754 153.238C585.105 153.238 585.372 153.284 585.555 153.375V155.055ZM594.637 150.875V153.434H596.609V154.83H594.637V161.383C594.637 161.806 594.725 162.125 594.9 162.34C595.076 162.548 595.376 162.652 595.799 162.652C596.007 162.652 596.294 162.613 596.658 162.535V164C596.183 164.13 595.721 164.195 595.271 164.195C594.464 164.195 593.855 163.951 593.445 163.463C593.035 162.975 592.83 162.281 592.83 161.383V154.83H590.906V153.434H592.83V150.875H594.637ZM600.535 154.713C601.336 153.73 602.378 153.238 603.66 153.238C605.893 153.238 607.02 154.498 607.039 157.018V164H605.232V157.008C605.226 156.246 605.05 155.683 604.705 155.318C604.367 154.954 603.836 154.771 603.113 154.771C602.527 154.771 602.013 154.928 601.57 155.24C601.128 155.553 600.783 155.963 600.535 156.471V164H598.729V149H600.535V154.713ZM614.129 164.195C612.697 164.195 611.531 163.727 610.633 162.789C609.734 161.845 609.285 160.585 609.285 159.01V158.678C609.285 157.63 609.484 156.695 609.881 155.875C610.285 155.048 610.844 154.404 611.561 153.941C612.283 153.473 613.064 153.238 613.904 153.238C615.278 153.238 616.346 153.691 617.107 154.596C617.869 155.501 618.25 156.796 618.25 158.482V159.234H611.092C611.118 160.276 611.421 161.119 612 161.764C612.586 162.402 613.328 162.721 614.227 162.721C614.865 162.721 615.405 162.59 615.848 162.33C616.29 162.07 616.678 161.725 617.01 161.295L618.113 162.154C617.228 163.515 615.9 164.195 614.129 164.195ZM613.904 154.723C613.175 154.723 612.563 154.99 612.068 155.523C611.574 156.051 611.268 156.793 611.15 157.75H616.443V157.613C616.391 156.695 616.144 155.986 615.701 155.484C615.258 154.977 614.66 154.723 613.904 154.723ZM634.666 161.51L636.697 153.434H638.504L635.428 164H633.963L631.395 155.992L628.895 164H627.43L624.363 153.434H626.16L628.24 161.344L630.701 153.434H632.156L634.666 161.51ZM639.871 158.619C639.871 157.584 640.073 156.653 640.477 155.826C640.887 154.999 641.453 154.361 642.176 153.912C642.905 153.463 643.735 153.238 644.666 153.238C646.105 153.238 647.267 153.736 648.152 154.732C649.044 155.729 649.49 157.053 649.49 158.707V158.834C649.49 159.863 649.292 160.787 648.895 161.607C648.504 162.421 647.941 163.056 647.205 163.512C646.476 163.967 645.636 164.195 644.686 164.195C643.253 164.195 642.091 163.697 641.199 162.701C640.314 161.705 639.871 160.387 639.871 158.746V158.619ZM641.688 158.834C641.688 160.006 641.958 160.947 642.498 161.656C643.045 162.366 643.774 162.721 644.686 162.721C645.604 162.721 646.333 162.363 646.873 161.646C647.413 160.924 647.684 159.915 647.684 158.619C647.684 157.46 647.407 156.523 646.854 155.807C646.307 155.084 645.577 154.723 644.666 154.723C643.774 154.723 643.055 155.077 642.508 155.787C641.961 156.497 641.688 157.512 641.688 158.834ZM656.863 155.055C656.59 155.009 656.294 154.986 655.975 154.986C654.79 154.986 653.986 155.491 653.562 156.5V164H651.756V153.434H653.514L653.543 154.654C654.135 153.71 654.975 153.238 656.062 153.238C656.414 153.238 656.681 153.284 656.863 153.375V155.055ZM661.482 159.107L660.35 160.289V164H658.543V149H660.35V158.072L661.316 156.91L664.607 153.434H666.805L662.693 157.848L667.283 164H665.164L661.482 159.107ZM669.559 164V154.83H667.889V153.434H669.559V152.35C669.559 151.217 669.861 150.341 670.467 149.723C671.072 149.104 671.928 148.795 673.035 148.795C673.452 148.795 673.865 148.85 674.275 148.961L674.178 150.426C673.872 150.367 673.546 150.338 673.201 150.338C672.615 150.338 672.163 150.51 671.844 150.855C671.525 151.194 671.365 151.682 671.365 152.32V153.434H673.621V154.83H671.365V164H669.559ZM675.145 158.619C675.145 157.584 675.346 156.653 675.75 155.826C676.16 154.999 676.727 154.361 677.449 153.912C678.178 153.463 679.008 153.238 679.939 153.238C681.378 153.238 682.54 153.736 683.426 154.732C684.318 155.729 684.764 157.053 684.764 158.707V158.834C684.764 159.863 684.565 160.787 684.168 161.607C683.777 162.421 683.214 163.056 682.479 163.512C681.749 163.967 680.91 164.195 679.959 164.195C678.527 164.195 677.365 163.697 676.473 162.701C675.587 161.705 675.145 160.387 675.145 158.746V158.619ZM676.961 158.834C676.961 160.006 677.231 160.947 677.771 161.656C678.318 162.366 679.048 162.721 679.959 162.721C680.877 162.721 681.606 162.363 682.146 161.646C682.687 160.924 682.957 159.915 682.957 158.619C682.957 157.46 682.68 156.523 682.127 155.807C681.58 155.084 680.851 154.723 679.939 154.723C679.048 154.723 678.328 155.077 677.781 155.787C677.234 156.497 676.961 157.512 676.961 158.834ZM692.137 155.055C691.863 155.009 691.567 154.986 691.248 154.986C690.063 154.986 689.259 155.491 688.836 156.5V164H687.029V153.434H688.787L688.816 154.654C689.409 153.71 690.249 153.238 691.336 153.238C691.688 153.238 691.954 153.284 692.137 153.375V155.055ZM697.85 162.721C698.494 162.721 699.057 162.525 699.539 162.135C700.021 161.744 700.288 161.256 700.34 160.67H702.049C702.016 161.275 701.808 161.852 701.424 162.398C701.04 162.945 700.525 163.382 699.881 163.707C699.243 164.033 698.566 164.195 697.85 164.195C696.411 164.195 695.265 163.717 694.412 162.76C693.566 161.796 693.143 160.481 693.143 158.814V158.512C693.143 157.483 693.331 156.568 693.709 155.768C694.087 154.967 694.627 154.345 695.33 153.902C696.04 153.46 696.876 153.238 697.84 153.238C699.025 153.238 700.008 153.593 700.789 154.303C701.577 155.012 701.997 155.934 702.049 157.066H700.34C700.288 156.383 700.027 155.823 699.559 155.387C699.096 154.944 698.523 154.723 697.84 154.723C696.922 154.723 696.209 155.055 695.701 155.719C695.2 156.376 694.949 157.33 694.949 158.58V158.922C694.949 160.139 695.2 161.077 695.701 161.734C696.202 162.392 696.919 162.721 697.85 162.721ZM708.465 164.195C707.033 164.195 705.867 163.727 704.969 162.789C704.07 161.845 703.621 160.585 703.621 159.01V158.678C703.621 157.63 703.82 156.695 704.217 155.875C704.62 155.048 705.18 154.404 705.896 153.941C706.619 153.473 707.4 153.238 708.24 153.238C709.614 153.238 710.682 153.691 711.443 154.596C712.205 155.501 712.586 156.796 712.586 158.482V159.234H705.428C705.454 160.276 705.757 161.119 706.336 161.764C706.922 162.402 707.664 162.721 708.562 162.721C709.201 162.721 709.741 162.59 710.184 162.33C710.626 162.07 711.014 161.725 711.346 161.295L712.449 162.154C711.564 163.515 710.236 164.195 708.465 164.195ZM708.24 154.723C707.511 154.723 706.899 154.99 706.404 155.523C705.91 156.051 705.604 156.793 705.486 157.75H710.779V157.613C710.727 156.695 710.48 155.986 710.037 155.484C709.594 154.977 708.995 154.723 708.24 154.723ZM714.627 166.832L713.602 166.129C714.214 165.276 714.533 164.397 714.559 163.492V161.861H716.326V163.277C716.326 163.935 716.163 164.592 715.838 165.25C715.519 165.908 715.115 166.435 714.627 166.832ZM725.535 164H723.729V149H725.535V164ZM732.82 164.195C731.388 164.195 730.223 163.727 729.324 162.789C728.426 161.845 727.977 160.585 727.977 159.01V158.678C727.977 157.63 728.175 156.695 728.572 155.875C728.976 155.048 729.536 154.404 730.252 153.941C730.975 153.473 731.756 153.238 732.596 153.238C733.969 153.238 735.037 153.691 735.799 154.596C736.561 155.501 736.941 156.796 736.941 158.482V159.234H729.783C729.809 160.276 730.112 161.119 730.691 161.764C731.277 162.402 732.02 162.721 732.918 162.721C733.556 162.721 734.096 162.59 734.539 162.33C734.982 162.07 735.369 161.725 735.701 161.295L736.805 162.154C735.919 163.515 734.591 164.195 732.82 164.195ZM732.596 154.723C731.867 154.723 731.255 154.99 730.76 155.523C730.265 156.051 729.959 156.793 729.842 157.75H735.135V157.613C735.083 156.695 734.835 155.986 734.393 155.484C733.95 154.977 733.351 154.723 732.596 154.723ZM741.492 150.875V153.434H743.465V154.83H741.492V161.383C741.492 161.806 741.58 162.125 741.756 162.34C741.932 162.548 742.231 162.652 742.654 162.652C742.863 162.652 743.149 162.613 743.514 162.535V164C743.038 164.13 742.576 164.195 742.127 164.195C741.32 164.195 740.711 163.951 740.301 163.463C739.891 162.975 739.686 162.281 739.686 161.383V154.83H737.762V153.434H739.686V150.875H741.492ZM757.068 162.955C756.365 163.782 755.333 164.195 753.973 164.195C752.846 164.195 751.987 163.87 751.395 163.219C750.809 162.561 750.512 161.591 750.506 160.309V153.434H752.312V160.26C752.312 161.861 752.964 162.662 754.266 162.662C755.646 162.662 756.564 162.148 757.02 161.119V153.434H758.826V164H757.107L757.068 162.955ZM767.732 161.197C767.732 160.709 767.547 160.331 767.176 160.064C766.811 159.791 766.17 159.557 765.252 159.361C764.34 159.166 763.615 158.932 763.074 158.658C762.54 158.385 762.143 158.059 761.883 157.682C761.629 157.304 761.502 156.855 761.502 156.334C761.502 155.468 761.867 154.736 762.596 154.137C763.331 153.538 764.269 153.238 765.408 153.238C766.606 153.238 767.576 153.548 768.318 154.166C769.067 154.785 769.441 155.576 769.441 156.539H767.625C767.625 156.044 767.413 155.618 766.99 155.26C766.574 154.902 766.046 154.723 765.408 154.723C764.751 154.723 764.236 154.866 763.865 155.152C763.494 155.439 763.309 155.813 763.309 156.275C763.309 156.712 763.481 157.04 763.826 157.262C764.171 157.483 764.793 157.695 765.691 157.896C766.596 158.098 767.329 158.339 767.889 158.619C768.449 158.899 768.862 159.238 769.129 159.635C769.402 160.025 769.539 160.504 769.539 161.07C769.539 162.014 769.161 162.773 768.406 163.346C767.651 163.912 766.671 164.195 765.467 164.195C764.62 164.195 763.872 164.046 763.221 163.746C762.57 163.447 762.059 163.03 761.688 162.496C761.323 161.956 761.141 161.373 761.141 160.748H762.947C762.98 161.354 763.221 161.835 763.67 162.193C764.126 162.545 764.725 162.721 765.467 162.721C766.15 162.721 766.697 162.584 767.107 162.311C767.524 162.031 767.732 161.66 767.732 161.197ZM778.66 154.713C779.461 153.73 780.503 153.238 781.785 153.238C784.018 153.238 785.145 154.498 785.164 157.018V164H783.357V157.008C783.351 156.246 783.175 155.683 782.83 155.318C782.492 154.954 781.961 154.771 781.238 154.771C780.652 154.771 780.138 154.928 779.695 155.24C779.253 155.553 778.908 155.963 778.66 156.471V164H776.854V149H778.66V154.713ZM792.254 164.195C790.822 164.195 789.656 163.727 788.758 162.789C787.859 161.845 787.41 160.585 787.41 159.01V158.678C787.41 157.63 787.609 156.695 788.006 155.875C788.41 155.048 788.969 154.404 789.686 153.941C790.408 153.473 791.189 153.238 792.029 153.238C793.403 153.238 794.471 153.691 795.232 154.596C795.994 155.501 796.375 156.796 796.375 158.482V159.234H789.217C789.243 160.276 789.546 161.119 790.125 161.764C790.711 162.402 791.453 162.721 792.352 162.721C792.99 162.721 793.53 162.59 793.973 162.33C794.415 162.07 794.803 161.725 795.135 161.295L796.238 162.154C795.353 163.515 794.025 164.195 792.254 164.195ZM792.029 154.723C791.3 154.723 790.688 154.99 790.193 155.523C789.699 156.051 789.393 156.793 789.275 157.75H794.568V157.613C794.516 156.695 794.269 155.986 793.826 155.484C793.383 154.977 792.785 154.723 792.029 154.723ZM800.438 164H798.631V149H800.438V164ZM812.264 158.834C812.264 160.442 811.896 161.738 811.16 162.721C810.424 163.704 809.428 164.195 808.172 164.195C806.889 164.195 805.88 163.788 805.145 162.975V168.062H803.338V153.434H804.988L805.076 154.605C805.812 153.694 806.834 153.238 808.143 153.238C809.412 153.238 810.415 153.717 811.15 154.674C811.893 155.631 812.264 156.962 812.264 158.668V158.834ZM810.457 158.629C810.457 157.438 810.203 156.497 809.695 155.807C809.188 155.117 808.491 154.771 807.605 154.771C806.512 154.771 805.691 155.257 805.145 156.227V161.275C805.685 162.239 806.512 162.721 807.625 162.721C808.491 162.721 809.178 162.379 809.686 161.695C810.2 161.005 810.457 159.983 810.457 158.629ZM822.986 161.354L825.447 153.434H827.381L823.133 165.631C822.475 167.389 821.43 168.268 819.998 168.268L819.656 168.238L818.982 168.111V166.646L819.471 166.686C820.083 166.686 820.558 166.562 820.896 166.314C821.242 166.067 821.525 165.615 821.746 164.957L822.146 163.883L818.377 153.434H820.35L822.986 161.354ZM828.367 158.619C828.367 157.584 828.569 156.653 828.973 155.826C829.383 154.999 829.949 154.361 830.672 153.912C831.401 153.463 832.231 153.238 833.162 153.238C834.601 153.238 835.763 153.736 836.648 154.732C837.54 155.729 837.986 157.053 837.986 158.707V158.834C837.986 159.863 837.788 160.787 837.391 161.607C837 162.421 836.437 163.056 835.701 163.512C834.972 163.967 834.132 164.195 833.182 164.195C831.749 164.195 830.587 163.697 829.695 162.701C828.81 161.705 828.367 160.387 828.367 158.746V158.619ZM830.184 158.834C830.184 160.006 830.454 160.947 830.994 161.656C831.541 162.366 832.27 162.721 833.182 162.721C834.1 162.721 834.829 162.363 835.369 161.646C835.91 160.924 836.18 159.915 836.18 158.619C836.18 157.46 835.903 156.523 835.35 155.807C834.803 155.084 834.074 154.723 833.162 154.723C832.27 154.723 831.551 155.077 831.004 155.787C830.457 156.497 830.184 157.512 830.184 158.834ZM846.775 162.955C846.072 163.782 845.04 164.195 843.68 164.195C842.553 164.195 841.694 163.87 841.102 163.219C840.516 162.561 840.219 161.591 840.213 160.309V153.434H842.02V160.26C842.02 161.861 842.671 162.662 843.973 162.662C845.353 162.662 846.271 162.148 846.727 161.119V153.434H848.533V164H846.814L846.775 162.955ZM855.818 158.629C855.818 156.982 856.199 155.673 856.961 154.703C857.723 153.727 858.732 153.238 859.988 153.238C861.277 153.238 862.283 153.694 863.006 154.605L863.094 153.434H864.744V163.746C864.744 165.113 864.337 166.191 863.523 166.979C862.716 167.766 861.629 168.16 860.262 168.16C859.5 168.16 858.755 167.997 858.025 167.672C857.296 167.346 856.74 166.9 856.355 166.334L857.293 165.25C858.068 166.207 859.015 166.686 860.135 166.686C861.014 166.686 861.697 166.438 862.186 165.943C862.68 165.449 862.928 164.752 862.928 163.854V162.945C862.205 163.779 861.219 164.195 859.969 164.195C858.732 164.195 857.729 163.697 856.961 162.701C856.199 161.705 855.818 160.348 855.818 158.629ZM857.635 158.834C857.635 160.025 857.879 160.963 858.367 161.646C858.855 162.324 859.539 162.662 860.418 162.662C861.557 162.662 862.394 162.145 862.928 161.109V156.285C862.374 155.276 861.544 154.771 860.438 154.771C859.559 154.771 858.872 155.113 858.377 155.797C857.882 156.48 857.635 157.493 857.635 158.834ZM871.863 164.195C870.431 164.195 869.266 163.727 868.367 162.789C867.469 161.845 867.02 160.585 867.02 159.01V158.678C867.02 157.63 867.218 156.695 867.615 155.875C868.019 155.048 868.579 154.404 869.295 153.941C870.018 153.473 870.799 153.238 871.639 153.238C873.012 153.238 874.08 153.691 874.842 154.596C875.604 155.501 875.984 156.796 875.984 158.482V159.234H868.826C868.852 160.276 869.155 161.119 869.734 161.764C870.32 162.402 871.062 162.721 871.961 162.721C872.599 162.721 873.139 162.59 873.582 162.33C874.025 162.07 874.412 161.725 874.744 161.295L875.848 162.154C874.962 163.515 873.634 164.195 871.863 164.195ZM871.639 154.723C870.91 154.723 870.298 154.99 869.803 155.523C869.308 156.051 869.002 156.793 868.885 157.75H874.178V157.613C874.126 156.695 873.878 155.986 873.436 155.484C872.993 154.977 872.394 154.723 871.639 154.723ZM880.535 150.875V153.434H882.508V154.83H880.535V161.383C880.535 161.806 880.623 162.125 880.799 162.34C880.975 162.548 881.274 162.652 881.697 162.652C881.906 162.652 882.192 162.613 882.557 162.535V164C882.081 164.13 881.619 164.195 881.17 164.195C880.363 164.195 879.754 163.951 879.344 163.463C878.934 162.975 878.729 162.281 878.729 161.383V154.83H876.805V153.434H878.729V150.875H880.535ZM896.111 164C896.007 163.792 895.923 163.421 895.857 162.887C895.018 163.759 894.015 164.195 892.85 164.195C891.808 164.195 890.952 163.902 890.281 163.316C889.617 162.724 889.285 161.975 889.285 161.07C889.285 159.97 889.702 159.117 890.535 158.512C891.375 157.9 892.553 157.594 894.07 157.594H895.828V156.764C895.828 156.132 895.639 155.631 895.262 155.26C894.884 154.882 894.327 154.693 893.592 154.693C892.947 154.693 892.407 154.856 891.971 155.182C891.535 155.507 891.316 155.901 891.316 156.363H889.5C889.5 155.836 889.686 155.328 890.057 154.84C890.434 154.345 890.942 153.954 891.58 153.668C892.225 153.382 892.931 153.238 893.699 153.238C894.917 153.238 895.87 153.544 896.561 154.156C897.251 154.762 897.609 155.598 897.635 156.666V161.529C897.635 162.499 897.758 163.271 898.006 163.844V164H896.111ZM893.113 162.623C893.68 162.623 894.217 162.477 894.725 162.184C895.232 161.891 895.6 161.51 895.828 161.041V158.873H894.412C892.199 158.873 891.092 159.521 891.092 160.816C891.092 161.383 891.281 161.826 891.658 162.145C892.036 162.464 892.521 162.623 893.113 162.623ZM902.43 164H900.623V149H902.43V164ZM907.293 164H905.486V149H907.293V164ZM918.611 161.354L921.072 153.434H923.006L918.758 165.631C918.1 167.389 917.055 168.268 915.623 168.268L915.281 168.238L914.607 168.111V166.646L915.096 166.686C915.708 166.686 916.183 166.562 916.521 166.314C916.867 166.067 917.15 165.615 917.371 164.957L917.771 163.883L914.002 153.434H915.975L918.611 161.354ZM923.992 158.619C923.992 157.584 924.194 156.653 924.598 155.826C925.008 154.999 925.574 154.361 926.297 153.912C927.026 153.463 927.856 153.238 928.787 153.238C930.226 153.238 931.388 153.736 932.273 154.732C933.165 155.729 933.611 157.053 933.611 158.707V158.834C933.611 159.863 933.413 160.787 933.016 161.607C932.625 162.421 932.062 163.056 931.326 163.512C930.597 163.967 929.757 164.195 928.807 164.195C927.374 164.195 926.212 163.697 925.32 162.701C924.435 161.705 923.992 160.387 923.992 158.746V158.619ZM925.809 158.834C925.809 160.006 926.079 160.947 926.619 161.656C927.166 162.366 927.895 162.721 928.807 162.721C929.725 162.721 930.454 162.363 930.994 161.646C931.535 160.924 931.805 159.915 931.805 158.619C931.805 157.46 931.528 156.523 930.975 155.807C930.428 155.084 929.699 154.723 928.787 154.723C927.895 154.723 927.176 155.077 926.629 155.787C926.082 156.497 925.809 157.512 925.809 158.834ZM942.4 162.955C941.697 163.782 940.665 164.195 939.305 164.195C938.178 164.195 937.319 163.87 936.727 163.219C936.141 162.561 935.844 161.591 935.838 160.309V153.434H937.645V160.26C937.645 161.861 938.296 162.662 939.598 162.662C940.978 162.662 941.896 162.148 942.352 161.119V153.434H944.158V164H942.439L942.4 162.955ZM953.582 153.434L953.641 154.762C954.448 153.746 955.503 153.238 956.805 153.238C959.038 153.238 960.164 154.498 960.184 157.018V164H958.377V157.008C958.37 156.246 958.195 155.683 957.85 155.318C957.511 154.954 956.98 154.771 956.258 154.771C955.672 154.771 955.158 154.928 954.715 155.24C954.272 155.553 953.927 155.963 953.68 156.471V164H951.873V153.434H953.582ZM967.293 164.195C965.861 164.195 964.695 163.727 963.797 162.789C962.898 161.845 962.449 160.585 962.449 159.01V158.678C962.449 157.63 962.648 156.695 963.045 155.875C963.449 155.048 964.008 154.404 964.725 153.941C965.447 153.473 966.229 153.238 967.068 153.238C968.442 153.238 969.51 153.691 970.271 154.596C971.033 155.501 971.414 156.796 971.414 158.482V159.234H964.256C964.282 160.276 964.585 161.119 965.164 161.764C965.75 162.402 966.492 162.721 967.391 162.721C968.029 162.721 968.569 162.59 969.012 162.33C969.454 162.07 969.842 161.725 970.174 161.295L971.277 162.154C970.392 163.515 969.064 164.195 967.293 164.195ZM967.068 154.723C966.339 154.723 965.727 154.99 965.232 155.523C964.738 156.051 964.432 156.793 964.314 157.75H969.607V157.613C969.555 156.695 969.308 155.986 968.865 155.484C968.423 154.977 967.824 154.723 967.068 154.723ZM977.898 164.195C976.466 164.195 975.301 163.727 974.402 162.789C973.504 161.845 973.055 160.585 973.055 159.01V158.678C973.055 157.63 973.253 156.695 973.65 155.875C974.054 155.048 974.614 154.404 975.33 153.941C976.053 153.473 976.834 153.238 977.674 153.238C979.048 153.238 980.115 153.691 980.877 154.596C981.639 155.501 982.02 156.796 982.02 158.482V159.234H974.861C974.887 160.276 975.19 161.119 975.77 161.764C976.355 162.402 977.098 162.721 977.996 162.721C978.634 162.721 979.174 162.59 979.617 162.33C980.06 162.07 980.447 161.725 980.779 161.295L981.883 162.154C980.997 163.515 979.669 164.195 977.898 164.195ZM977.674 154.723C976.945 154.723 976.333 154.99 975.838 155.523C975.343 156.051 975.037 156.793 974.92 157.75H980.213V157.613C980.161 156.695 979.913 155.986 979.471 155.484C979.028 154.977 978.429 154.723 977.674 154.723ZM983.68 158.629C983.68 157.008 984.064 155.706 984.832 154.723C985.6 153.733 986.606 153.238 987.85 153.238C989.087 153.238 990.066 153.661 990.789 154.508V149H992.596V164H990.936L990.848 162.867C990.125 163.753 989.119 164.195 987.83 164.195C986.606 164.195 985.607 163.694 984.832 162.691C984.064 161.689 983.68 160.38 983.68 158.766V158.629ZM985.486 158.834C985.486 160.032 985.734 160.969 986.229 161.646C986.723 162.324 987.407 162.662 988.279 162.662C989.425 162.662 990.262 162.148 990.789 161.119V156.266C990.249 155.27 989.419 154.771 988.299 154.771C987.413 154.771 986.723 155.113 986.229 155.797C985.734 156.48 985.486 157.493 985.486 158.834ZM995.447 163.053C995.447 162.74 995.538 162.48 995.721 162.271C995.91 162.063 996.189 161.959 996.561 161.959C996.932 161.959 997.212 162.063 997.4 162.271C997.596 162.48 997.693 162.74 997.693 163.053C997.693 163.352 997.596 163.603 997.4 163.805C997.212 164.007 996.932 164.107 996.561 164.107C996.189 164.107 995.91 164.007 995.721 163.805C995.538 163.603 995.447 163.352 995.447 163.053Z" fill="white"/>
</svg>
