<?xml version="1.0" standalone="no"?>
<!DOCTYPE svg PUBLIC "-//W3C//DTD SVG 20010904//EN"
 "http://www.w3.org/TR/2001/REC-SVG-20010904/DTD/svg10.dtd">
<svg version="1.0" xmlns="http://www.w3.org/2000/svg"
 width="90.000000pt" height="90.000000pt" viewBox="0 0 90.000000 90.000000"
 preserveAspectRatio="xMidYMid meet">
<metadata>
Created by potrace 1.16, written by Peter Selinger 2001-2019
</metadata>
<g transform="translate(0.000000,90.000000) scale(0.100000,-0.100000)"
fill="#000000" stroke="none">
<path d="M230 790 c-38 -38 -19 -154 29 -180 31 -16 86 -12 104 8 21 22 31 73
23 106 -3 13 -18 38 -32 55 -21 25 -33 31 -65 31 -26 0 -46 -7 -59 -20z"/>
<path d="M546 779 c-31 -37 -40 -69 -32 -111 9 -45 33 -68 73 -68 67 0 103 43
103 125 0 58 -25 85 -79 85 -32 0 -44 -6 -65 -31z"/>
<path d="M46 578 c-9 -12 -16 -40 -16 -61 0 -76 48 -127 119 -127 94 0 110
122 25 189 -38 30 -107 29 -128 -1z"/>
<path d="M726 579 c-85 -67 -69 -189 25 -189 73 0 119 51 119 133 0 30 -6 49
-18 60 -26 24 -93 22 -126 -4z"/>
<path d="M355 539 c-19 -17 -47 -53 -61 -79 -15 -27 -44 -63 -66 -80 -57 -46
-78 -86 -78 -147 0 -57 27 -101 81 -128 41 -22 397 -22 438 0 54 27 81 71 81
128 0 61 -21 101 -78 147 -22 17 -51 53 -66 80 -14 26 -42 62 -61 79 -31 27
-43 31 -95 31 -52 0 -64 -4 -95 -31z m119 -145 c3 -9 6 -27 6 -40 0 -19 5 -24
24 -24 37 0 56 -10 56 -30 0 -20 -19 -30 -56 -30 -19 0 -24 -5 -24 -24 0 -37
-10 -56 -30 -56 -20 0 -30 19 -30 56 0 19 -5 24 -24 24 -37 0 -56 10 -56 30 0
20 19 30 56 30 19 0 24 5 24 24 0 37 10 56 30 56 10 0 21 -7 24 -16z"/>
</g>
</svg>
